<?xml version="1.0" standalone="no"?>
<!DOCTYPE svg PUBLIC "-//W3C//DTD SVG 1.1//EN" "http://www.w3.org/Graphics/SVG/1.1/DTD/svg11.dtd" >
<svg xmlns="http://www.w3.org/2000/svg" xmlns:xlink="http://www.w3.org/1999/xlink" version="1.1">
<metadata>
Created by FontForge 20170731 at Tue Aug 27 03:27:06 2019
 By Aleksey,,,
Copyright (c) 2019 by Cafe24. All rights reserved.
</metadata>
<defs>
<font id="Cafe24Ssukssuk" horiz-adv-x="930" >
  <font-face 
    font-family="Cafe24 Ssukssuk "
    font-weight="400"
    font-stretch="normal"
    units-per-em="1000"
    panose-1="0 0 0 0 0 0 0 0 0 0"
    ascent="800"
    descent="-200"
    x-height="415"
    cap-height="631"
    bbox="-17.7778 -222 875.5 801.529"
    underline-thickness="50"
    underline-position="-250"
    unicode-range="U+000D-FFE6"
  />
<missing-glyph horiz-adv-x="830" 
 />
    <glyph glyph-name=".notdef" horiz-adv-x="830" 
 />
    <glyph glyph-name=".null" horiz-adv-x="0" 
 />
    <glyph glyph-name="nonmarkingreturn" unicode="&#xd;" horiz-adv-x="300" 
 />
    <glyph glyph-name="space" unicode=" " horiz-adv-x="300" 
 />
    <glyph glyph-name="exclam" unicode="!" horiz-adv-x="300" 
d="M218 43q0 -9 -2.5 -20t-8 -20.5t-14.5 -16t-22 -6.5q-11 0 -23 3t-21.5 9t-16 15.5t-6.5 22.5q0 9 1.5 20t5.5 21.5t11 19.5t18 13q23 2 39 -2.5t23 -12.5q9 -11 12 -24t4 -22zM216 592q0 -48 -1.5 -104.5t-3.5 -110.5t-3.5 -99t-2.5 -69q0 -22 -11 -34t-31 -12
q-19 0 -30.5 12.5t-11.5 40.5l-15 373q-2 31 16 44.5t39 12.5q29 -1 42 -18.5t13 -35.5z" />
    <glyph glyph-name="quotedbl" unicode="&#x22;" horiz-adv-x="341" 
d="M73 732q-2 17 6.5 26t22.5 9q10 2 20 -4t15 -20q4 -15 7 -35t3.5 -42t-1.5 -44.5t-8 -41.5q-4 -18 -15 -25t-22 -5q-12 2 -23 12.5t-7 27.5q3 12 4.5 30.5t1 39t-1.5 40t-2 32.5zM205 732q-2 17 6.5 26t21.5 9q10 2 20 -4t16 -20q4 -15 6.5 -35t3 -42t-1.5 -44.5
t-7 -41.5q-5 -18 -16 -25t-22 -5t-22 12.5t-8 27.5q3 12 4 30.5t1 39t-0.5 40t-1.5 32.5z" />
    <glyph glyph-name="numbersign" unicode="#" horiz-adv-x="741" 
d="M73 173q-10 3 -16 9t-9 13.5t-3.5 16t0.5 15.5q2 14 14 23t31 7q26 -5 53 -8t53 -5q4 36 9 73t11 74l-92 6q-17 1 -22 16.5t-3 27.5q1 14 13.5 27t35.5 10q40 -4 80 -6q7 38 12.5 67.5t10.5 48.5q5 23 20.5 29.5t30.5 2.5q14 -5 24 -18.5t5 -33.5q-6 -21 -11.5 -46
t-10.5 -54q75 -1 148 0q5 34 11 67.5t12 67.5q1 14 14 20.5t31 3.5q16 -3 27 -14t9 -25l-20 -119q23 1 45.5 2t46.5 3q20 1 27 -12.5t8 -25.5q1 -14 -5.5 -25.5t-26.5 -12.5q-24 -2 -51 -3.5t-56 -2.5q-5 -38 -11 -75t-11 -73q26 2 50 5l48 6q20 3 32 -5t15 -21
q5 -16 -4.5 -32t-32.5 -20q-28 -5 -58 -8.5t-61 -5.5q-4 -28 -7.5 -55t-6.5 -53q-1 -21 -14 -30t-28 -8q-8 0 -16 3t-14 8.5t-8.5 13.5t-0.5 18l11 99q-36 -1 -72.5 -1.5t-69.5 0.5q-5 -50 -6 -94q-1 -15 -11.5 -25.5t-28.5 -10.5q-16 1 -29.5 10t-13.5 29q0 17 1.5 41.5
t4.5 52.5q-43 2 -73 5.5t-41 6.5zM445 389q-77 -2 -149 0q-5 -36 -10 -74t-9 -76q38 -2 74 -2.5t73 1.5l10 76t11 75z" />
    <glyph glyph-name="dollar" unicode="$" horiz-adv-x="554" 
d="M387 560q-12 6 -24 8.5t-33 4.5q1 -48 2.5 -89t-1.5 -86q34 -17 66 -34t56.5 -40t39 -53.5t14.5 -73.5q-1 -42 -17.5 -69.5t-43 -44t-58 -23.5t-62.5 -7q1 -20 0.5 -33.5t0.5 -30.5q0 -12 -4.5 -19t-12 -10.5t-15.5 -5t-14 -1.5q-7 0 -17.5 3.5t-16.5 12.5q-7 9 -8.5 32
t-1.5 52q-50 5 -96.5 28.5t-68.5 67.5q-8 16 -2 29.5t16 18.5q8 5 20 5.5t19 -7.5q26 -31 50.5 -43.5t59.5 -22.5l8 222q-27 12 -57.5 27t-56 35t-42.5 45.5t-17 60.5q0 34 17.5 57t44 38t57.5 22.5t58 9.5l-4 64q-1 16 11 24.5t25 8.5q19 0 31 -6t14 -24l4 -69
q33 -5 56.5 -11t43.5 -23q12 -11 12 -24t-6 -21q-11 -14 -24.5 -12t-22.5 7zM325 299q-1 -44 -1.5 -84.5t0.5 -85.5q61 7 85 24.5t24 52.5q0 22 -11 39.5t-27 31.5t-35 24t-35 17v-19zM249 432q2 37 0.5 70t-1.5 73q-38 -5 -65 -21.5t-26 -42.5q0 -17 10 -29t24.5 -21.5
t30 -16t27.5 -12.5z" />
    <glyph glyph-name="percent" unicode="%" horiz-adv-x="810" 
d="M492 630q15 20 29.5 23.5t28.5 -3.5q18 -8 24.5 -25t-1.5 -32q-39 -80 -76 -151t-71.5 -138.5t-67 -134.5t-62.5 -139q-7 -23 -27 -28t-33 1q-12 4 -22.5 14t-6.5 30q33 70 72.5 150t79 158t74.5 149.5t59 125.5zM176 612q24 0 34 -17q11 -3 20 -15q18 -36 27.5 -79
t7.5 -78q-1 -24 -7 -46.5t-19 -40.5t-33 -28.5t-49 -10.5q-23 0 -39.5 11t-26.5 28t-14.5 37.5t-4.5 39.5q0 27 6.5 60t20 62.5t33 51t44.5 25.5zM197 430q2 54 -20 99q-2 -2 -3.5 -4.5t-2.5 -4.5q-6 -14 -14.5 -38.5t-12.5 -48.5t-1 -42t18 -19q14 -1 24.5 10t11.5 48z
M592 335q24 0 34 -17q11 -3 20 -15q18 -36 27.5 -79t7.5 -78q-1 -24 -7 -46.5t-19 -40.5t-33 -28.5t-49 -10.5q-23 0 -39.5 11t-26.5 28t-14.5 37.5t-4.5 39.5q0 27 6.5 60t20 62.5t33 51t44.5 25.5zM613 153q2 54 -20 99q-2 -2 -3.5 -4.5t-2.5 -4.5q-6 -14 -14.5 -38.5
t-12.5 -48.5t-1 -42t18 -19q14 -1 24.5 10t11.5 48z" />
    <glyph glyph-name="ampersand" unicode="&#x26;" horiz-adv-x="723" 
d="M633 88q19 -1 28 -14.5t7 -29.5q-3 -39 -40 -39q-38 0 -73 8.5t-67 23.5q-46 -36 -104 -55t-124 -17q-32 1 -62 10t-53 27t-38 45t-16 64q-2 36 6.5 65t25 53t39.5 45t49 41q-25 39 -40.5 81t-17.5 94q-2 34 8 62.5t30.5 49.5t51.5 33t72 12q27 0 53 -9t46 -26.5t33 -42
t13 -55.5q0 -38 -9.5 -67.5t-26.5 -53.5t-41.5 -45.5t-55.5 -44.5q11 -14 21.5 -27t21.5 -28q26 -32 50 -58t50 -46q17 26 28.5 55.5t16.5 63.5q4 21 17.5 30.5t27.5 8.5q15 -1 27.5 -13.5t10.5 -35.5q-3 -43 -16 -80.5t-34 -69.5q39 -14 85 -15zM258 43q43 -5 83 7t72 36
q-26 20 -48.5 43t-45.5 49q-32 36 -61 73q-38 -33 -59 -65.5t-19 -68.5q1 -21 8.5 -34.5t19 -22t25 -12.5t25.5 -5zM242 494q0 -39 10 -70t27 -59q40 30 68.5 65t26.5 81q-2 22 -15.5 38.5t-48.5 15.5q-28 -1 -48 -17.5t-20 -53.5z" />
    <glyph glyph-name="quotesingle" unicode="'" horiz-adv-x="243" 
d="M78 728q-2 17 7 26t22 9q10 2 20 -3.5t16 -19.5q4 -14 6.5 -34t3 -42.5t-1.5 -45.5t-7 -42q-5 -18 -16 -24.5t-22 -4.5t-22 12.5t-8 27.5q3 11 4 30t1 39t-1 39.5t-2 32.5z" />
    <glyph glyph-name="parenleft" unicode="(" horiz-adv-x="413" 
d="M220 704q14 18 31 19.5t29 -7t16 -25t-8 -34.5q-29 -44 -49.5 -78t-33.5 -68t-18.5 -73t-5.5 -92q0 -76 23.5 -143.5t85.5 -132.5q15 -16 13 -32t-12 -26q-9 -9 -27.5 -11t-30.5 11q-66 67 -99.5 152.5t-33.5 188.5q0 68 10.5 120.5t27.5 94.5t38.5 74.5t43.5 61.5z" />
    <glyph glyph-name="parenright" unicode=")" horiz-adv-x="442" 
d="M200 705q22 -29 43.5 -61.5t38.5 -74.5t27.5 -94.5t10.5 -120.5q0 -103 -33.5 -188.5t-99.5 -152.5q-12 -12 -31 -10.5t-27 10.5q-10 10 -11.5 26t12.5 32q61 65 85 133t24 143q0 53 -6 92t-18.5 73t-33 68t-48.5 78q-12 18 -8.5 34.5t16 25t29 7t30.5 -19.5z" />
    <glyph glyph-name="asterisk" unicode="*" horiz-adv-x="529" 
d="M125 620q13 14 27.5 13.5t24.5 -9.5q19 -17 43 -42.5t48 -55.5l60 99q8 14 20.5 18.5t24.5 1.5q7 -3 13.5 -7t9.5 -11t2 -16.5t-9 -22.5q-9 -17 -20.5 -36.5t-24.5 -41.5q24 1 45.5 1h37.5t27 -8t13 -21q1 -8 0.5 -15.5t-4 -13.5t-12.5 -10t-24 -4q-19 -1 -42 -1t-49 -2
q19 -26 34 -49t24 -40q8 -14 7 -25.5t-12 -19.5q-11 -11 -28 -7.5t-28 22.5q-11 18 -25 38.5t-30 42.5q-16 -29 -30 -55t-25 -47q-8 -15 -23 -20.5t-30 2.5q-16 9 -18.5 23.5t3.5 27.5q11 21 25.5 47.5t31.5 55.5l-120 -6q-17 -1 -28 9.5t-12 27.5q0 19 11.5 28.5t25.5 10.5
q20 2 45.5 2t54.5 2q-15 18 -30 34t-29 30q-11 11 -13.5 24.5t8.5 25.5z" />
    <glyph glyph-name="plus" unicode="+" horiz-adv-x="542" 
d="M260 567q18 0 31 -11t14 -25q2 -24 3 -56.5t1 -68.5q35 -1 67 -1h54q16 0 27 -10t13 -22q1 -8 0.5 -16.5t-4 -16.5t-12.5 -13t-24 -5q-25 -1 -56 -0.5t-64 0.5v-130q0 -16 -11.5 -26.5t-23.5 -12.5q-8 -2 -17 -1.5t-17 4t-14 12.5t-6 24q-1 26 -0.5 60.5t0.5 69.5h-66.5
t-59.5 -1q-17 -1 -28 9.5t-12 27.5q-1 23 11 33.5t26 11.5q24 2 57.5 2.5t71.5 0.5l-3 122q-1 17 12 27.5t30 11.5z" />
    <glyph glyph-name="comma" unicode="," horiz-adv-x="252" 
d="M153 -96q-11 -21 -23 -32t-32 -4q-10 3 -13 13t2 23q4 9 8.5 20.5t7.5 22.5q4 12 7 24q-11 0 -23 4t-21 14t-13.5 25.5t-1.5 38.5q5 31 26.5 46.5t50.5 15.5q28 -2 46 -22t21 -51q1 -22 -2.5 -42t-10.5 -37.5t-15 -32t-14 -26.5z" />
    <glyph glyph-name="hyphen" unicode="-" horiz-adv-x="530" 
d="M55 351q-1 23 11 33.5t26 11.5q32 1 78 1.5t94 0.5t92.5 -0.5t73.5 -0.5q16 0 27 -9.5t13 -22.5q1 -8 0.5 -16.5t-4 -16.5t-12.5 -13t-24 -5h-75.5t-88 0.5t-90 0t-81.5 -1.5q-17 -1 -28 9.5t-12 28.5z" />
    <glyph glyph-name="period" unicode="." horiz-adv-x="290" 
d="M135 -32q-12 0 -24 4.5t-21.5 15t-14 26.5t-1.5 39q5 31 26.5 46.5t50.5 15.5q28 0 46.5 -21t20.5 -52q2 -41 -18 -57.5t-65 -16.5z" />
    <glyph glyph-name="slash" unicode="/" horiz-adv-x="462" 
d="M315 624q15 20 29.5 23.5t28.5 -2.5q19 -8 25.5 -24t-1.5 -32q-39 -79 -73 -152t-64.5 -144.5t-57.5 -145t-52 -152.5q-8 -24 -25 -28t-30 1q-13 3 -23 13t-6 31q25 78 57 164.5t65.5 169.5t66.5 155.5t60 122.5z" />
    <glyph glyph-name="zero" unicode="0" horiz-adv-x="468" 
d="M83 260q-1 37 6.5 80.5t24 84t43 73.5t64.5 50q-2 12 2 22t12.5 16t20.5 7t25 -5q28 -23 49.5 -61t35.5 -81t20 -86.5t4 -77.5q-7 -121 -45.5 -185.5t-121.5 -66.5q-42 0 -69 25t-42.5 60.5t-21.5 75t-7 69.5zM308 278q1 27 -2.5 57t-10 59t-16 54.5t-21.5 45.5l-22 -14
q-18 -18 -32.5 -44t-25 -56.5t-15.5 -64.5t-4 -68q1 -25 5.5 -49t13 -42.5t19.5 -30t26 -11.5q25 0 41 14t25.5 37t13.5 52.5t5 60.5z" />
    <glyph glyph-name="one" unicode="1" horiz-adv-x="369" 
d="M84 -2q-21 -1 -29.5 13t-7.5 28q1 13 11 23t29 11h29.5t32.5 1q-3 62 -4.5 116t-1 106.5t2.5 107t7 118.5q-16 -8 -32 -17t-18 -12q-43 -25 -62 5q-3 3 -5.5 9.5t-2 14t5 17t15.5 18.5q17 14 48 31t58 27q11 4 24.5 6t25 -1.5t19 -12.5t7.5 -25q-3 -71 -5.5 -127
t-4 -112.5t-1 -119t4.5 -146.5l91 2q17 0 24.5 -13t7.5 -24q0 -13 -9 -25.5t-26 -12.5q-24 0 -54.5 -1t-62 -1.5t-62.5 -1.5t-55 -2z" />
    <glyph glyph-name="two" unicode="2" horiz-adv-x="541" 
d="M119 516q-18 -4 -26.5 8.5t-10.5 23.5q-2 12 5 24t23 18q55 20 123 23.5t128 -10.5q34 -8 51.5 -21t23.5 -31t2 -39t-14 -44q-20 -46 -50.5 -91.5t-63 -90.5t-63.5 -90t-53 -91q25 -3 60 -2.5t71 2.5t68.5 4t52.5 2q22 -2 26.5 -13.5t5.5 -22.5q0 -6 -1.5 -14t-6 -15
t-11 -11.5t-16.5 -4.5q-25 0 -64.5 -1.5t-81.5 -2t-79.5 -0.5t-59.5 3q-20 5 -33 15.5t-19 24t-5.5 28t6.5 26.5q24 52 58 102.5t69 101t68.5 101t57.5 101.5q-20 11 -52 13.5t-66.5 -0.5t-67.5 -10t-55 -16z" />
    <glyph glyph-name="three" unicode="3" horiz-adv-x="533" 
d="M137 490q-8 -9 -16.5 -12.5t-17.5 -3.5q-19 0 -31.5 16t-4.5 39q3 9 6.5 14.5t9.5 12.5q12 14 34.5 27.5t50.5 24t59.5 17t61.5 7.5q38 1 69 -10.5t45 -40.5q11 -24 5.5 -53.5t-23.5 -62t-46.5 -67t-64.5 -68.5q41 1 78.5 -7.5t66 -27.5t44.5 -50t15 -74q0 -47 -19.5 -79
t-51.5 -51.5t-73.5 -28t-84.5 -7.5q-51 2 -98.5 13.5t-76.5 30.5q-13 13 -15 27.5t4.5 25t20 16t30.5 0.5q24 -16 59.5 -24.5t73.5 -9.5q21 0 48 2.5t50.5 12t38.5 27.5t13 48q-2 28 -12 45.5t-26.5 27.5t-39 13.5t-47.5 4.5q-15 1 -25.5 0.5t-20.5 -2t-20.5 -3.5t-26.5 -5
q-16 2 -25.5 10t-12.5 19t0.5 23t15.5 22q19 16 47.5 39.5t55.5 51t47.5 58t22.5 61.5q1 8 -7 11t-18 3t-19.5 -1.5t-10.5 -1.5q-16 -2 -36.5 -5.5t-40 -10.5t-36 -17.5t-25.5 -26.5z" />
    <glyph glyph-name="four" unicode="4" horiz-adv-x="565" 
d="M365 504q3 18 14 27.5t24 10t24.5 -7.5t16.5 -26q0 -69 -2.5 -130.5t-4.5 -122.5h87q18 -5 26 -16.5t7.5 -24.5t-10 -24t-27.5 -14h-86q-2 -32 -2 -66v-69q-1 -21 -12.5 -32t-25.5 -11.5t-26.5 9t-14.5 30.5v71.5t2 67.5h-260q-13 -3 -25 1q-17 10 -23 22t-3 31
q57 100 108.5 194.5t106.5 194.5q16 13 32 12t26 -11t11 -26t-12 -32q-22 -38 -43 -79t-41.5 -80.5t-41 -77.5t-41.5 -70h209q2 60 4.5 120t2.5 129z" />
    <glyph glyph-name="five" unicode="5" horiz-adv-x="510" 
d="M93 530q-21 2 -31.5 15.5t-8.5 27.5t13 24.5t31 11.5q73 0 155 1t155 1q18 -2 26 -14.5t8 -24.5q0 -14 -10 -27t-28 -13q-47 0 -97.5 -0.5t-101.5 -1.5q-1 -51 -2.5 -108t-1.5 -105q8 3 16.5 7t20.5 8t28 8t39 7q31 3 57.5 -7.5t46 -32t30 -51.5t10.5 -66q-1 -43 -14 -82
t-37 -67.5t-59.5 -43.5t-81.5 -9q-24 4 -46 9.5t-39 24.5q-6 12 -6 23q0 15 9 25t23 12q10 1 27.5 -7.5t47.5 -8.5q26 0 44.5 10.5t30 28t17 40t5.5 47.5q0 16 -4.5 30.5t-13.5 25.5t-21.5 17t-28.5 5q-12 -1 -25 -5.5t-24.5 -9.5t-21 -9.5t-15.5 -6.5q-11 -4 -20.5 -8
t-18.5 -6.5t-18.5 -1.5t-21.5 8q-8 8 -11.5 15t-5.5 19q0 61 2.5 131.5t3.5 133.5h-32v0z" />
    <glyph glyph-name="six" unicode="6" horiz-adv-x="466" 
d="M87 605q2 21 15.5 31.5t28.5 8.5q10 -2 24 -13.5t13 -26.5q-2 -57 -4.5 -115t-4.5 -117q21 14 46 26t54 14q71 3 108.5 -32.5t38.5 -105.5q0 -27 -8.5 -55.5t-22 -56.5t-32 -53.5t-37.5 -46.5q-10 -11 -24.5 -23.5t-31 -22.5t-35 -17t-36.5 -7q-34 -2 -59 26
q-20 23 -28 64.5t-10 88t-1 90.5t1 73q0 37 0.5 76.5t1.5 76.5t2 67.5t1 49.5zM265 334q-12 0 -26.5 -5t-29 -13t-28 -17t-23.5 -17q0 -22 1 -43.5t3 -43.5q0 -5 1 -14.5t1.5 -21.5t1.5 -25.5t3 -24.5q2 -8 4 -18.5t16 -10.5q9 0 18 5.5t17 12.5t14 14t9 10q13 14 28.5 33.5
t28 42t20 46t4.5 46.5q-4 23 -20.5 33.5t-42.5 10.5z" />
    <glyph glyph-name="seven" unicode="7" horiz-adv-x="502" 
d="M75 534q-17 1 -25.5 12.5t-9 25.5t6 26t19.5 14t39.5 2.5t59 1t67.5 0t66 -1t54.5 -1.5t32.5 -2q11 -2 21.5 -7t18 -12.5t10.5 -17.5t0 -22q-19 -69 -41.5 -140.5t-46.5 -140.5t-47 -132.5t-44 -115.5q-10 -12 -22.5 -15t-24.5 0q-20 5 -31 22.5t1 37.5q9 27 29 80.5
t43 119t47.5 136.5t42.5 132z" />
    <glyph glyph-name="eight" unicode="8" horiz-adv-x="524" 
d="M220 642q77 0 120.5 -21t65.5 -54q18 4 32 -8q8 -8 11.5 -20.5t-2.5 -29.5q-27 -42 -60.5 -89.5t-60.5 -90.5q26 -21 50.5 -42.5t44 -46t31.5 -53t14 -63.5q2 -29 -13 -53.5t-39 -42t-53.5 -27.5t-55.5 -10q-27 -1 -58 2.5t-58.5 15t-47.5 32t-23 53.5q-2 25 4 50.5
t15 48.5q11 27 33 57t44 59q-28 19 -54.5 40t-47 45t-33 52t-11.5 63q1 25 12.5 48.5t31 42.5t47 30.5t61.5 11.5zM314 234q-8 8 -16.5 15t-18.5 14q-14 -18 -28 -36.5t-25 -37.5t-18 -38t-7 -37q1 -12 11.5 -21t25 -14.5t31 -8t30.5 -1.5q26 2 50.5 15t30.5 36
q4 16 -2.5 32.5t-17.5 31.5t-24 28zM264 379q20 31 42.5 64t45.5 66q-6 4 -8 7q-7 14 -33 30t-74 16q-18 0 -33 -5.5t-26 -14.5t-17.5 -19t-6.5 -19q0 -23 14.5 -41t40.5 -40z" />
    <glyph glyph-name="nine" unicode="9" horiz-adv-x="503" 
d="M398 634q19 -14 21 -31.5t-9 -29.5q5 -9 8 -17q5 -20 3 -44t-4 -45q0 -111 2.5 -212t2.5 -212q-1 -21 -12 -32t-25 -12t-27 9t-15 31q0 42 -1 80t-1.5 75.5t-1.5 75t-1 78.5q-12 -17 -28 -32t-34.5 -26t-38.5 -17.5t-39 -6.5q-44 0 -74.5 13.5t-49.5 35.5t-27.5 50
t-8.5 57q0 45 19 79t50.5 59.5t71.5 43t82 28.5q12 3 31 6.5t39 5t38 -0.5t29 -9zM272 394q18 20 30.5 38t21.5 37.5t15 42t11 51.5q-26 -1 -40 -2.5t-27 -5.5q-24 -6 -51 -15t-50.5 -24t-40 -36.5t-19.5 -51.5q-2 -25 13 -47t55 -22q22 0 45 9t37 26z" />
    <glyph glyph-name="colon" unicode=":" horiz-adv-x="314" 
d="M148 450q-12 0 -24 4.5t-21 14.5t-14 26.5t-2 39.5q5 31 27 46t51 15q27 0 45.5 -21t20.5 -52q3 -41 -17.5 -57t-65.5 -16zM147 137q-11 0 -23 4.5t-21.5 15t-14.5 26.5t-2 39q5 31 27 46.5t51 15.5q27 0 45.5 -21.5t20.5 -51.5q2 -41 -18 -57.5t-65 -16.5z" />
    <glyph glyph-name="semicolon" unicode=";" horiz-adv-x="315" 
d="M148 450q-12 0 -24 4.5t-21 14.5t-14 26.5t-2 39.5q5 31 27 46t51 15q27 0 45.5 -21t20.5 -52q3 -41 -17.5 -57t-65.5 -16zM189 77q-11 -20 -22.5 -31t-31.5 -5q-10 3 -13 13t2 22q4 10 8 21.5t7 22.5q4 12 7 24q-11 0 -22.5 4t-20.5 14t-14 26t-2 39q5 31 27 46t51 15
q27 -2 45.5 -22.5t20.5 -50.5q2 -22 -2 -42t-10.5 -37.5t-14.5 -32.5t-15 -26z" />
    <glyph glyph-name="less" unicode="&#x3c;" horiz-adv-x="495" 
d="M369 696q11 11 29 14.5t39 -13.5q11 -10 14 -22t-8 -27q-33 -38 -64.5 -73t-62.5 -70.5t-62.5 -74t-64.5 -84.5q36 -45 66 -84.5t56 -77t50 -74.5t48 -76q12 -19 7.5 -38t-16.5 -26q-17 -8 -32 -6t-23 14q-29 43 -55 84.5t-54 82t-59 80t-69 79.5q-18 20 -17 37t8 30
q64 87 131.5 164.5t138.5 160.5z" />
    <glyph glyph-name="equal" unicode="=" horiz-adv-x="467" 
d="M41 451q-1 24 10.5 34t25.5 12q32 2 73.5 3t83.5 1h82h69q16 0 26.5 -10t12.5 -23q1 -7 0.5 -16t-4 -16.5t-12 -13t-23.5 -5.5h-71h-77.5t-79.5 -1t-76 -2q-17 0 -28 10t-12 27zM45 265q0 23 11.5 33.5t25.5 11.5q32 2 73.5 3t84 1h81.5h68q16 0 27 -9.5t13 -22.5
q1 -8 1 -16.5t-4 -16.5t-13 -13t-24 -5q-66 -1 -147.5 -0.5t-156.5 -2.5q-17 -1 -27.5 9.5t-12.5 27.5z" />
    <glyph glyph-name="greater" unicode="&#x3e;" horiz-adv-x="489" 
d="M153 696q70 -83 137.5 -160.5t132.5 -164.5q6 -13 7 -30t-17 -37q-38 -40 -69 -79.5t-59 -80t-54.5 -82t-54.5 -84.5q-8 -12 -23 -14t-32 6q-12 7 -17 26t7 38q24 39 48 76.5t50.5 75.5t56.5 77.5t66 84.5q-33 45 -64.5 83.5t-62.5 73.5t-62.5 70t-64.5 73q-11 15 -8 27
t14 22q21 17 39.5 13.5t29.5 -14.5z" />
    <glyph glyph-name="question" unicode="?" horiz-adv-x="482" 
d="M149 454q9 -13 3.5 -26t-18.5 -19q-11 -6 -25 -5t-26 14q-11 11 -20.5 33t-11.5 39q-2 32 8.5 61.5t33 51.5t55.5 35.5t77 13.5q39 0 73 -11.5t59 -33t38.5 -51t12.5 -64.5q-1 -40 -13.5 -71t-31.5 -56.5t-41 -47.5t-41 -43q-27 -25 -27 -74q0 -16 -9.5 -26.5t-32.5 -9.5
q-21 1 -30.5 15t-9.5 35q0 19 4.5 34t14 30.5t24.5 32.5t36 40q15 16 29 31.5t24 32t16 35.5t6 42q0 46 -28.5 67.5t-65.5 21.5q-24 0 -42 -6.5t-30 -16.5t-18 -23t-7 -26q0 -4 1.5 -21.5t12.5 -33.5zM218 -12q-9 0 -18 3.5t-15.5 11t-10 19.5t-0.5 29q3 20 19 31.5t37 11.5
q20 0 32.5 -15t14.5 -37q2 -32 -12.5 -43t-46.5 -11z" />
    <glyph glyph-name="at" unicode="@" horiz-adv-x="855" 
d="M459 35q9 -25 -4 -39t-30 -16q-60 -11 -112 -4t-85 22q-40 18 -70.5 49t-51.5 70t-32 82t-11 84q-4 85 21.5 151.5t74 113t117 72t151.5 27.5q66 1 127.5 -20.5t109.5 -59t78 -87.5t35 -107q3 -48 -6 -90t-29 -73t-52 -48.5t-74 -17.5q-38 0 -69 20.5t-50 50.5
q-21 -42 -58.5 -62t-83.5 -18q-26 0 -47.5 11t-37 31t-24.5 47t-9 59t9 65t30 60t54.5 44.5t81.5 17.5q25 0 48 -7.5t40 -26t26 -50.5t6 -81q1 -18 10 -34t23 -27t31.5 -16.5t35.5 -2.5q21 3 34 20t19.5 40t8 48t-1.5 45q-9 47 -36 83t-64 60t-80 35t-85 10
q-65 0 -118.5 -22t-91 -61t-56 -93.5t-12.5 -119.5q5 -43 17 -75t28 -56t35.5 -41t40.5 -30q11 -6 46.5 -14t81.5 0q6 1 14 3t17 1.5t17 -5.5t13 -18zM464 275q1 1 1 21t-4 43t-14.5 42.5t-31.5 20.5q-27 1 -47 -8.5t-33 -25.5t-20 -35t-9 -37q-2 -14 1 -29t10.5 -28t19 -22
t27.5 -10q25 -2 54 17t46 51z" />
    <glyph glyph-name="A" unicode="A" horiz-adv-x="520" 
d="M217 647q8 13 19.5 19t23 4.5t20.5 -9t12 -20.5q11 -5 15 -21q5 -12 21 -61t39 -125t51.5 -173.5t58.5 -205.5q7 -24 -4.5 -38.5t-28.5 -16.5q-11 -1 -24 4.5t-18 21.5q-10 32 -19 64.5t-19 66.5q-49 -2 -97.5 -4t-98.5 -3l-26 -115q-6 -17 -18 -24.5t-24 -6.5
q-14 1 -27 9t-10 31q14 75 34 150.5t41 151t41.5 151t37.5 150.5zM263 506q-18 -69 -37.5 -138t-37.5 -138q39 1 77.5 2.5t77.5 2.5q-19 67 -38.5 134.5t-41.5 136.5z" />
    <glyph glyph-name="B" unicode="B" horiz-adv-x="522" 
d="M74 577q5 25 22.5 33t33.5 0q32 16 70.5 23.5t77 6t74.5 -12t64 -30.5t44.5 -49.5t16.5 -69.5q0 -32 -12.5 -60t-33.5 -52t-48 -44t-57 -36q5 0 15 -2q22 -4 44.5 -17t39.5 -32t26 -42t6 -45q-7 -39 -34 -64.5t-64.5 -40.5t-80 -22t-80.5 -9q-17 -1 -33.5 -1.5
t-32.5 -0.5q-7 0 -13 3q-15 -3 -29 6.5t-16 32.5v525zM395 486q-2 23 -16.5 38.5t-36.5 24.5t-48.5 11t-53 -0.5t-49.5 -9.5t-38 -18v-238q8 2 15.5 4t15.5 4q29 9 66.5 24.5t70.5 38t55 52.5t19 69zM324 216q-21 5 -42 5t-42.5 -1.5t-43.5 -3.5t-43 -2v-125q37 0 75 1.5
t72 13.5q9 3 21 7.5t23 12.5t18.5 20.5t7.5 30.5q0 13 -16 25.5t-30 15.5z" />
    <glyph glyph-name="C" unicode="C" horiz-adv-x="530" 
d="M468 528q-10 -13 -28 -12t-32 9q-17 11 -37 16t-41 6q-34 1 -65 -15t-56 -47t-42 -74.5t-23 -96.5q-8 -63 2 -107t31.5 -71.5t51.5 -40t63 -11.5q47 1 87 17t60 46q12 19 28 21.5t28.5 -5.5t17.5 -24.5t-4 -35.5q-15 -28 -40 -47.5t-54 -31.5t-59.5 -17.5t-57.5 -5.5
q-125 0 -189.5 79.5t-50.5 228.5q6 62 25 119t51 101t76 70.5t99 28.5q36 1 62 -3.5t43.5 -10.5t27 -12t12.5 -8l12.5 -12.5t10 -14.5t2 -17.5t-10.5 -21.5z" />
    <glyph glyph-name="D" unicode="D" horiz-adv-x="568" 
d="M104 592q2 20 15.5 32.5t33.5 11.5q83 -3 149 -17.5t113 -47.5t74 -88t33 -139q5 -73 -10.5 -127.5t-46 -93.5t-72.5 -64t-89.5 -38.5t-97 -17t-95.5 -0.5q-12 5 -16 14t-4 17q-2 26 -3 65t-0.5 86t2 100t3.5 106.5t4.5 105t6.5 95.5zM188 553q-2 -35 -5 -95t-5.5 -127.5
t-3.5 -135.5t1 -119q44 -1 93.5 11.5t90 43.5t64 82.5t16.5 127.5q-6 58 -20.5 97.5t-43.5 63.5t-74.5 36t-112.5 15z" />
    <glyph glyph-name="E" unicode="E" horiz-adv-x="521" 
d="M55 555q-14 2 -20 11.5t-4 20.5q2 16 14 30t32 15q91 -1 176 -2t176 -3q13 0 19.5 -6.5t7.5 -16.5q2 -14 -7.5 -29.5t-27.5 -19.5q-52 1 -104.5 0.5t-106.5 -0.5q-1 -38 -3 -91.5t-4 -112.5l226 -3q13 0 19.5 -6.5t7.5 -16.5q2 -14 -7.5 -29.5t-27.5 -19.5
q-54 1 -109.5 0.5t-111.5 -0.5l-6 -168q42 1 77 3.5t66.5 6t61 7.5t60.5 8q16 4 25.5 -3.5t13.5 -18.5q5 -15 -1.5 -32t-26.5 -21q-33 -8 -74.5 -13.5t-84.5 -8.5t-84 -5t-71 -2q-20 -2 -34.5 12.5t-12.5 35.5q-1 3 -1 31t1.5 70.5t3 94.5t4 104t5 99t4.5 79h-71v0z" />
    <glyph glyph-name="F" unicode="F" horiz-adv-x="542" 
d="M85 555q-14 2 -20 11.5t-4 20.5q2 16 14 30t32 15q91 -1 176 -2t176 -3q13 0 19.5 -6.5t7.5 -16.5q2 -14 -7.5 -29.5t-27.5 -19.5q-52 1 -104.5 0.5t-106.5 -0.5q-1 -38 -2.5 -91.5t-3.5 -112.5l253 -3q13 0 19.5 -6.5t7.5 -16.5q2 -14 -7.5 -29.5t-27.5 -19.5
q-57 1 -122 0.5t-126 -0.5q-2 -53 -4 -101t-3 -79q0 -10 -1.5 -22t-5 -22t-11 -16.5t-20.5 -6.5q-20 0 -33 10t-15 40q0 3 0.5 31t1.5 70t3 94t4 103.5t4.5 98.5t4.5 79h-71v0z" />
    <glyph glyph-name="G" unicode="G" horiz-adv-x="542" 
d="M352 616q20 -2 37.5 -12.5t20.5 -35.5q1 -12 -5 -21.5t-15 -14.5t-21 -4.5t-23 8.5q-11 3 -21 3.5t-21 -0.5q-44 -6 -76 -34.5t-52.5 -68.5t-30 -86.5t-9.5 -87.5q1 -29 8.5 -59.5t23.5 -55.5t40.5 -41.5t59.5 -16.5q45 0 75.5 15.5t49 40.5t26.5 55.5t8 59.5
q-41 -4 -74 -5.5t-74 0.5q-20 2 -30 14t-10 26t11 26t33 13q45 0 86 1.5t84 3.5q7 1 13 0.5t13 -1.5q12 -3 18 -7t13 -15q6 -17 3.5 -32.5t-4.5 -33.5q-5 -42 -18 -77.5t-36 -70.5q-16 -25 -38 -42.5t-47.5 -29t-53 -17t-52.5 -5.5q-51 0 -89 21.5t-63.5 57.5t-39 82
t-14.5 96q-2 57 13 118t47 112.5t81 86t115 36.5h18.5t19.5 -2z" />
    <glyph glyph-name="H" unicode="H" horiz-adv-x="609" 
d="M435 580q0 17 5.5 22.5t19.5 5.5q6 0 16 -1t19.5 -3.5t16 -7.5t6.5 -13q1 -57 1 -129t-1 -146.5t-1.5 -146.5t0.5 -129q0 -10 -6.5 -17t-15.5 -11t-19.5 -5.5t-17.5 -0.5q-22 3 -22 31q-1 52 -1 115t1 130q-29 0 -62.5 -2t-68 -3.5t-68 -3.5t-63.5 -2q-1 -64 -1 -123
t1 -106q0 -10 -6.5 -17t-15.5 -11t-19.5 -5.5t-17.5 -0.5q-22 3 -22 31q-1 58 -0.5 133t0.5 153v153t-1 132q0 17 5.5 22.5t19.5 5.5q6 0 16 -1t19.5 -3.5t16 -7.5t6.5 -13q1 -54 1 -123t-1 -143q60 0 130 3.5t131 3.5v124t-1 110z" />
    <glyph glyph-name="I" unicode="I" horiz-adv-x="428" 
d="M96 -6q-21 -1 -29.5 13t-7.5 28q1 13 11 23t29 11q15 0 33 0.5t38 0.5v114.5t0.5 125.5t0.5 126t-1 116q-20 -1 -38 -1.5t-32 -0.5q-21 -1 -29.5 13t-7.5 28q1 13 11 23t29 11q24 0 56.5 1t66 2t65.5 2t56 1q17 0 24.5 -13t7.5 -24q0 -13 -9 -25.5t-26 -12.5l-91 -2
q1 -54 0.5 -116t-1 -126t-1 -125.5t-0.5 -113.5l92 2q17 0 24.5 -13t7.5 -24q0 -13 -9 -25.5t-26 -12.5q-24 0 -56 -1t-65.5 -1.5t-66 -1.5t-56.5 -2z" />
    <glyph glyph-name="J" unicode="J" horiz-adv-x="454" 
d="M110 548q-21 -1 -29.5 13t-7.5 28q1 13 11 23t29 11l284 6q17 0 24.5 -13t7.5 -24q0 -13 -9 -25.5t-26 -12.5q-12 0 -27.5 -0.5t-33.5 -0.5q3 -91 5.5 -188.5t0.5 -190.5q-1 -15 -2.5 -36.5t-5.5 -43t-11.5 -41.5t-19.5 -32l-16 -16t-21 -15q-17 -6 -31 -7.5t-26.5 0.5
t-26 7.5t-29.5 11.5q-22 11 -44 21.5t-44 23.5q-23 12 -21 35q1 12 7 20.5t15.5 13t20.5 4.5t22 -5q7 -3 25 -13.5t38 -20.5t38.5 -15.5t27.5 0.5q9 5 15 22t9 36t4 36t1 23q1 87 -3.5 183.5t-6.5 184.5l-144 -3v0z" />
    <glyph glyph-name="K" unicode="K" horiz-adv-x="517" 
d="M435 601q12 9 24 10t21 -3t15.5 -12t8.5 -18t3 -21.5t-9 -19.5q-37 -36 -71 -70t-69 -68t-72 -67.5t-79 -68.5q69 -49 114 -83.5t75 -58t49 -38.5t36 -26q22 -15 22 -36q0 -14 -7 -22.5t-17.5 -12.5t-23 -2.5t-22.5 8.5q-29 21 -62.5 45.5t-68.5 50t-69 50.5t-64 48
v-85.5t1 -74.5q0 -10 -6.5 -17t-15.5 -11t-19.5 -5.5t-17.5 -0.5q-22 3 -22 31q-1 58 -0.5 133t0.5 153v153t-1 132q0 17 5.5 22.5t19.5 5.5q6 0 16 -1t19.5 -3.5t16 -7.5t6.5 -13q1 -53 1 -119t-1 -138q66 60 132 122t132 139z" />
    <glyph glyph-name="L" unicode="L" horiz-adv-x="443" 
d="M105 638q3 14 12.5 21t22.5 9q14 2 28 -5t19 -22q0 -20 -1 -60t-2.5 -90.5t-3.5 -107t-4 -110t-3.5 -99t-2.5 -74.5q42 1 69.5 2.5t49.5 3.5t43.5 5t52.5 7q16 4 25.5 -3.5t13.5 -18.5q5 -15 -1.5 -32t-26.5 -21q-71 -8 -137 -14.5t-127 -7.5q-20 -2 -34.5 12.5
t-12.5 35.5q-1 4 -0.5 41.5t2 93.5t3.5 122.5t4.5 128t5.5 111.5t5 72z" />
    <glyph glyph-name="M" unicode="M" horiz-adv-x="757" 
d="M93 602q3 17 13.5 26.5t23 11t24 -6t17.5 -23.5q3 -3 6.5 -6t6.5 -8q21 -54 46 -106.5t51 -104.5t50.5 -105t43.5 -108q24 43 42.5 81.5t35 76.5t32.5 78t35 87q5 13 14.5 33t21.5 41t25 39.5t25 28.5q23 8 38.5 1t21.5 -30q4 -76 5.5 -145.5t2 -138t0.5 -137.5v-143
q-1 -21 -12.5 -32t-25.5 -11.5t-26.5 9t-14.5 30.5q1 111 2.5 220t-2.5 219q-22 -48 -39.5 -92.5t-34 -87t-35 -84t-42.5 -82.5q-11 -20 -20 -43t-26 -40q-31 -19 -58 8q-6 8 -8 15t-6 15q-39 76 -77 168t-78 181q-2 -101 -3 -204.5t-1 -193.5q-1 -21 -12.5 -32t-25.5 -11.5
t-26.5 9t-14.5 30.5q0 65 1 137.5t1.5 146.5t1.5 146t1 137z" />
    <glyph glyph-name="N" unicode="N" horiz-adv-x="586" 
d="M88 594q0 17 5.5 22.5t19.5 5.5q6 0 16 -1t19.5 -3.5t16 -7.5t6.5 -13v-3q15 -21 28.5 -46.5t24.5 -47.5q27 -47 51 -87t48.5 -80t50.5 -82t57 -94q-1 52 0.5 102t3 99.5t3.5 101t2 107.5q1 19 11.5 27t22.5 10q14 2 29.5 -5.5t15.5 -27.5q-3 -68 -5.5 -131.5t-5 -126.5
t-5.5 -127t-7 -134q-1 -15 -10 -22.5t-21 -8.5t-24.5 5t-20.5 19v-1l-42 66q-51 81 -104 163t-102 159q0 -50 -1 -102t-1.5 -102.5t-0.5 -97.5t1 -86q0 -10 -6.5 -17t-15.5 -11t-19.5 -5.5t-17.5 -0.5q-22 3 -22 31q-1 58 -0.5 130t0.5 147v147t-1 129z" />
    <glyph glyph-name="O" unicode="O" horiz-adv-x="483" 
d="M241 628q5 3 12 5.5t15 2.5q40 -11 69.5 -42.5t49 -73.5t29 -90t10.5 -91q0 -25 -4 -58.5t-13.5 -69t-25 -69.5t-36.5 -61t-49 -43.5t-62 -16.5q-47 0 -79.5 21.5t-53 55t-30.5 74t-11 78.5q-1 25 1.5 56t8 62.5t13 60.5t16.5 52q8 19 21 44t31 47t39.5 38t46.5 18h2z
M333 450q-5 14 -11.5 30t-14.5 30t-19 26t-26 18q-8 -4 -13 -5q-28 -21 -48.5 -55t-33.5 -73.5t-19 -81t-6 -76.5q0 -23 4.5 -51.5t15.5 -53.5t29.5 -42t45.5 -16q30 1 51.5 29t35 67t19.5 80t5 67q0 10 -1.5 25l-3 30t-4.5 29t-6 23z" />
    <glyph glyph-name="P" unicode="P" horiz-adv-x="544" 
d="M90 589q3 18 14 27.5t24 10t24.5 -7.5t16.5 -26q31 16 71 26.5t85 10.5q24 0 54.5 -7.5t57.5 -22.5t46.5 -37t21.5 -52q6 -54 -25.5 -103t-82.5 -88.5t-113 -67t-118 -38.5q0 -39 -0.5 -77.5t0.5 -77.5q-1 -21 -12.5 -32t-25.5 -11.5t-26.5 9t-14.5 30.5
q-1 135 1.5 267.5t1.5 266.5zM169 503q0 -52 -0.5 -103.5t-1.5 -104.5l29 7q30 7 70.5 25.5t76.5 46t60 62t20 73.5q0 5 -6.5 13t-19.5 15t-32.5 12t-46.5 4q-45 -2 -83 -16.5t-66 -33.5z" />
    <glyph glyph-name="Q" unicode="Q" horiz-adv-x="484" 
d="M241 615q5 3 12 5.5t15 2.5q40 -11 69.5 -40.5t49 -69t29 -85.5t10.5 -89q0 -26 -4.5 -58.5t-15 -66t-27 -64.5t-39.5 -54q21 -17 42 -31.5t46 -26.5q16 -11 19.5 -25t-1.5 -26q-6 -14 -22 -21.5t-36 3.5q-35 20 -64 40.5t-59 44.5q-15 -3 -29 -3q-47 0 -79.5 17
t-53 44.5t-30.5 63.5t-11 74q-1 25 1.5 54t8 58t13 56t16.5 50q8 19 21 44t31 47t39.5 38t46.5 18h2zM333 437q-5 14 -11.5 30t-14.5 30t-19 26t-26 18q-8 -4 -13 -5q-28 -21 -48.5 -53t-33.5 -69t-19 -76.5t-6 -74.5q0 -23 4.5 -46.5t15.5 -43t29.5 -32t45.5 -11.5
q30 1 51.5 24.5t35 56.5t19.5 69.5t5 62.5q-1 20 -4.5 48.5t-10.5 45.5z" />
    <glyph glyph-name="R" unicode="R" horiz-adv-x="547" 
d="M90 589q3 18 14 27.5t24 10t24.5 -7.5t16.5 -26q31 16 71 26.5t85 10.5q24 0 54.5 -7.5t57.5 -22.5t46.5 -37t21.5 -52q5 -47 -19 -91t-65.5 -81t-94.5 -65.5t-105 -45.5q38 -31 77.5 -57.5t82.5 -50.5q29 -17 57.5 -29t53.5 -34q10 -15 9.5 -29.5t-8.5 -24t-22 -12.5
t-30 5q-23 20 -49 30.5t-51 24.5q-47 27 -90.5 56t-84.5 64q-1 -29 -0.5 -56.5t0.5 -55.5q-1 -21 -12.5 -32t-25.5 -11.5t-26.5 9t-14.5 30.5q-1 135 1.5 267.5t1.5 266.5zM169 503q0 -52 -0.5 -103.5t-1.5 -104.5l29 7q30 7 70.5 25.5t76.5 46t60 62t20 73.5q0 5 -6.5 13
t-19.5 15t-32.5 12t-46.5 4q-45 -2 -83 -16.5t-66 -33.5z" />
    <glyph glyph-name="S" unicode="S" horiz-adv-x="459" 
d="M418 550q5 -17 -0.5 -30.5t-16 -20t-25 -4.5t-27.5 15q-7 10 -19 18.5t-27.5 14.5t-32.5 9t-33 2q-11 -1 -28 -3.5t-32.5 -11t-27.5 -25t-13 -46.5q-1 -17 10.5 -34.5t29 -34.5t36.5 -31.5t34 -24.5q29 -20 61.5 -42.5t59.5 -49.5t44 -58.5t16 -69.5q0 -27 -11.5 -48.5
t-31 -36.5t-45.5 -24t-54 -10q-23 -1 -52.5 1t-60 7.5t-59.5 14t-50 21.5t-24 30q-2 17 4.5 28.5t17 17t22.5 4.5t21 -10q37 -19 82 -28t88 -9q28 0 49 13.5t22 37.5q0 22 -14 41q-32 44 -77.5 77t-83.5 61q-24 18 -45 33.5t-36 34.5t-24 45.5t-9 67.5q0 73 49.5 105.5
t132.5 34.5q51 2 95 -14t66 -38q2 -2 5 -6.5t6 -9.5t5.5 -9t2.5 -5z" />
    <glyph glyph-name="T" unicode="T" horiz-adv-x="524" 
d="M62 552q-21 -1 -29.5 13t-7.5 28q1 13 11 23t29 11h48t71.5 0.5t83 0t83 0t71 0.5h47.5q17 0 24.5 -13t7.5 -24q0 -13 -9 -25.5t-26 -12.5q-20 -1 -60.5 -0.5t-90.5 0.5q1 -57 0.5 -124.5t-1 -135.5t-1 -132.5t0.5 -116.5q0 -10 -6.5 -17t-15.5 -11t-19.5 -5.5
t-17.5 -0.5q-22 3 -22 31q-1 53 -1 118t0.5 133t0.5 135.5t-1 125.5h-53h-48.5t-40.5 -0.5t-28 -0.5z" />
    <glyph glyph-name="U" unicode="U" horiz-adv-x="503" 
d="M65 571q2 19 13 28t24 10t27.5 -8t14.5 -26q-1 -52 -1.5 -106.5t-0.5 -107t1.5 -100.5t6.5 -87q3 -23 11 -43t21.5 -33.5t33 -19.5t45.5 -3q23 2 38.5 14t25.5 29.5t15 39.5t7 44q3 42 3.5 89t0 95t-2 95t-1.5 89q-1 16 10.5 26t25.5 11t27.5 -6.5t15.5 -26.5
q1 -44 2 -92.5t2 -98t0 -98t-4 -92.5q-3 -41 -14 -76.5t-31.5 -61.5t-51 -42t-73.5 -17q-30 -1 -59 7.5t-54 26t-43 43t-25 57.5q-8 31 -9.5 63t-2.5 61q-2 74 -2 157t4 160z" />
    <glyph glyph-name="V" unicode="V" horiz-adv-x="477" 
d="M25 573q-5 20 7.5 32.5t26.5 14.5t27 -6.5t18 -28.5q16 -52 34 -110t35.5 -117.5t34.5 -119t32 -113.5q15 43 32.5 99.5t35.5 118.5t34.5 125t29.5 120q8 15 19 22t22 7q14 1 27 -12.5t11 -32.5q-17 -62 -35 -128.5t-38 -132.5t-41.5 -129.5t-44.5 -119.5
q-5 -15 -16.5 -29t-30.5 -14q-6 0 -14 1t-16 3.5t-15 7t-10 11.5q-23 60 -44 127.5t-41 137.5t-39.5 138t-40.5 128z" />
    <glyph glyph-name="W" unicode="W" horiz-adv-x="795" 
d="M42 592q0 17 12 26.5t26 11.5t26.5 -6.5t15.5 -24.5q1 -9 5.5 -40t10 -73.5t12.5 -91.5t14 -94t12.5 -82t9.5 -54q15 45 32 99t36 110.5t39 111t40 101.5q5 11 15 18.5t21 8.5q12 2 22.5 -4t15.5 -22q19 -51 33.5 -108.5t29 -116t30 -116t36.5 -108.5q39 108 65.5 222.5
t56.5 223.5q5 17 17.5 24t26.5 5q18 -1 32 -14t10 -34q-3 -22 -12.5 -63t-23 -92.5t-30 -108.5t-34 -110t-36 -98t-34.5 -72q-13 -22 -35 -22q-11 0 -20 4.5t-15 15.5q-25 43 -43.5 93.5t-34.5 106t-31 116.5t-31 126q-6 -26 -18.5 -66.5t-28 -86.5t-32.5 -93.5t-31.5 -87
t-25.5 -67t-14 -32.5q-15 -26 -48 -23q-27 4 -33 32q-35 131 -57 275.5t-34 279.5z" />
    <glyph glyph-name="X" unicode="X" horiz-adv-x="475" 
d="M358 592q8 19 23 24t29 0.5t23.5 -17t6.5 -29.5q-33 -72 -68 -139t-73 -133q35 -57 70 -113.5t72 -107.5q8 -12 8.5 -23.5t-4 -20.5t-13 -14.5t-18.5 -6.5q-20 -2 -37 17q-34 43 -64.5 91t-60.5 98q-29 -48 -58.5 -95t-59.5 -96q-11 -17 -26.5 -20t-29 4t-20.5 20.5
t0 30.5q37 60 74 118.5t73 118.5l-37 60l-60 96t-57 98q-6 23 5.5 33t23.5 14q22 7 39 -10q25 -46 54 -91t59 -92l18 -30q30 53 57.5 106t50.5 109z" />
    <glyph glyph-name="Y" unicode="Y" horiz-adv-x="542" 
d="M25 563q-5 20 7.5 34t27.5 16q11 2 21.5 -3t18.5 -18q32 -79 71 -148.5t83 -144.5q19 29 43.5 63.5t50.5 71.5t51.5 75.5t45.5 75.5q11 19 31 19t34 -11q10 -8 14 -19t-2 -23q-23 -44 -53 -85t-60.5 -82t-59 -83.5t-49.5 -88.5l3.5 -56t2 -45.5t0 -42.5t-0.5 -48
q-1 -21 -12.5 -32t-25.5 -11.5t-26.5 9t-14.5 30.5q0 41 1 83.5t-3 99.5q-25 47 -52 91t-53 88t-50.5 89.5t-43.5 95.5z" />
    <glyph glyph-name="Z" unicode="Z" horiz-adv-x="505" 
d="M104 544q-32 1 -42 9.5t-10 25.5q1 14 9.5 25.5t26.5 12.5q28 2 66.5 2.5t79 0.5t78 -0.5t64.5 -0.5q38 -1 54 -29t-3 -66q-26 -47 -58.5 -101t-68 -110.5t-72.5 -112.5t-73 -107q38 2 63 3t44 1h34.5h34.5t43.5 -0.5t62.5 -0.5q19 0 28.5 -12t9.5 -28t-9.5 -28
t-29.5 -12q-59 0 -96.5 -0.5t-70.5 -1t-70.5 -1t-96.5 -0.5q-19 0 -31 8.5t-17 21.5t-3 29t11 30q34 55 69.5 108t71 106.5t71.5 110t73 120.5q-32 -1 -65.5 -1.5t-66 -1t-61.5 -0.5h-50z" />
    <glyph glyph-name="bracketleft" unicode="[" horiz-adv-x="431" 
d="M355 762q20 -4 26.5 -15.5t6.5 -28.5q-1 -14 -13 -24t-24 -11q-33 1 -51 2t-28.5 2t-17.5 1h-18t-18 -3t-11 -23q-16 -84 -21 -176.5t-5 -181.5t2.5 -168.5t1.5 -137.5q0 -7 4.5 -11t16.5 -6l149 -1q28 0 36 -15.5t8 -32.5q0 -15 -8 -24.5t-27 -9.5l-191 -5q-32 0 -55 22
t-19 60q-5 81 -7 173t0.5 186t10 185t21.5 171q1 10 5 22.5t12 24.5t22 20.5t37 10.5q44 5 84 3.5t71 -9.5z" />
    <glyph glyph-name="backslash" unicode="\" horiz-adv-x="703" 
d="M4 314q-1 23 11 33t26 11q6 0 14 0.5t18 0.5q-7 57 -11.5 113t-9.5 110q0 18 11.5 27t26.5 11q14 2 26.5 -6.5t15.5 -24.5l26 -228l79 2q14 57 30 111t37 102q5 11 14.5 19t21.5 9q11 2 22 -4t16 -23q17 -48 30.5 -102t25.5 -110q30 1 58 1h53q11 53 20.5 105t24.5 103
q5 17 17.5 24.5t26.5 5.5q17 -1 31.5 -14.5t10.5 -34.5q-4 -26 -14 -76.5t-24 -111.5h21q17 0 27.5 -9t12.5 -22q1 -8 0.5 -17t-4 -16.5t-12.5 -13t-24 -5.5q-8 0 -18.5 -0.5t-23.5 -0.5q-10 -39 -21 -77.5t-23 -73t-24 -63.5t-24 -48q-5 -11 -15 -16.5t-20 -5.5t-20 4.5
t-15 15.5q-26 57 -46 125t-37 137h-41t-41 -1q-12 -43 -24.5 -86t-23 -78t-18 -59t-10.5 -29q-15 -26 -48 -23q-27 4 -33 32q-17 58 -28 118t-20 121q-13 0 -23 -0.5t-18 -0.5q-17 -1 -28 10t-12 29zM487 138q13 36 23 72t18 73q-18 0 -37 -0.5t-40 -0.5q8 -39 17 -75.5
t19 -68.5zM186 164q8 26 15.5 55t15.5 60q-13 -1 -25 -0.5t-24 -0.5q5 -38 9.5 -68t8.5 -46zM335 451q-5 -16 -10 -38.5t-13 -48.5h42z" />
    <glyph glyph-name="bracketright" unicode="]" horiz-adv-x="442" 
d="M110 768q30 5 70.5 2t83.5 -6q22 -2 37 -10.5t23.5 -20.5t12.5 -25t4 -23q4 -79 5 -171t0.5 -186t-1 -185t-0.5 -168q0 -19 -9 -34.5t-23 -26t-31 -16t-33 -5.5l-158 5q-20 0 -28 9.5t-8 24.5q0 17 8.5 32.5t35.5 15.5l134 1q21 3 21 17q3 53 4 128.5t1 162t-1.5 179
t-5.5 179.5q-1 21 -9 28.5t-18 8.5q-24 3 -50.5 4t-59.5 1q-19 -1 -28 9t-10 25q-1 18 6 30.5t27 14.5z" />
    <glyph glyph-name="asciicircum" unicode="^" horiz-adv-x="428" 
d="M264 741q35 -35 60 -69t52 -76q7 -9 9 -23.5t-12 -27.5q-8 -7 -16 -8.5t-16 0t-15 6t-12 9.5q-29 33 -48.5 60.5t-44.5 56.5q-11 -18 -20.5 -34.5t-18.5 -33t-20 -34t-25 -36.5q-9 -14 -26 -15.5t-30 6.5q-14 7 -17 17t1 19q23 50 47 89.5t53 80.5q26 38 50 39.5
t49 -26.5z" />
    <glyph glyph-name="underscore" unicode="_" horiz-adv-x="524" 
d="M56 -81q-1 23 11 33t26 11q32 2 78 3t94.5 1t93.5 -0.5t74 -0.5q16 0 26.5 -10t12.5 -22q1 -8 1 -16.5t-4 -16.5t-12.5 -13t-23.5 -5h-76h-89h-90.5t-81.5 -1q-17 -2 -27.5 9t-12.5 28z" />
    <glyph glyph-name="grave" unicode="`" horiz-adv-x="278" 
d="M208 597q10 -14 5 -26.5t-16 -17.5q-7 -6 -19 -6t-24 10q-11 11 -24 32t-26 45.5t-24 49t-16 43.5q-4 20 2.5 30.5t16.5 15.5q11 4 27.5 0.5t22.5 -20.5q6 -12 16 -33.5t20.5 -45t21 -45t17.5 -32.5z" />
    <glyph glyph-name="a" unicode="a" horiz-adv-x="514" 
d="M382 448q4 -14 0.5 -27t-3.5 -30q0 -46 12.5 -94.5t30.5 -93.5t37 -83t31 -63q6 -13 -3.5 -26.5t-35.5 -18.5q-14 0 -24 7.5t-18 18.5t-14 23.5t-10 23.5q-14 33 -25 61t-22 62q-19 -52 -44 -98.5t-51 -68.5q-14 -11 -32.5 -17t-36.5 -4q-30 2 -53.5 19t-39 42.5
t-22.5 57t-5 63.5q3 39 20 79.5t43 76.5t59.5 63.5t69.5 40.5q14 5 33.5 9.5t39.5 4.5t37 -6t26 -22zM262 219q9 25 16 45.5t11.5 40t7.5 41t5 48.5q-32 -5 -61.5 -25.5t-52.5 -49.5t-37.5 -61.5t-16.5 -60.5q0 -9 1 -25t6.5 -31t15.5 -26.5t27 -11.5q11 0 24 16t24 36.5
t19.5 39t10.5 24.5z" />
    <glyph glyph-name="b" unicode="b" horiz-adv-x="576" 
d="M97 617q3 18 14 27.5t24 10t24.5 -7.5t16.5 -26q0 -73 -0.5 -162.5t0.5 -175.5q35 53 88.5 86t129.5 35q19 0 36 -6q49 -20 72 -58t24 -83q1 -41 -17.5 -80.5t-53.5 -67.5q-26 -20 -56 -35t-62 -26q-43 -14 -88.5 -27t-91.5 -16q-17 2 -27.5 11.5t-12.5 20.5
q-12 10 -13 28q-5 15 -7 43.5t-2 59.5t0.5 58.5t0.5 41.5q0 88 0.5 174.5t0.5 174.5zM193 111q-2 -5 -2 -11t-1 -11q34 6 73 17t75 27t64 36.5t39 44.5q4 8 4.5 22t-1.5 29q-4 23 -15.5 41.5t-32.5 17.5q-47 -1 -81.5 -19.5t-59 -48.5t-40 -68t-22.5 -77z" />
    <glyph glyph-name="c" unicode="c" horiz-adv-x="490" 
d="M404 342q-1 -21 -16 -32.5t-31 -11.5q-11 0 -20 6.5t-11 20.5q-2 11 -2.5 21t-3.5 20q-6 20 -22 27t-35 5q-18 -2 -35.5 -10t-28.5 -18q-16 -15 -29.5 -39t-23 -51.5t-15 -55.5t-5.5 -51q0 -32 12 -60.5t47 -36.5q24 -5 55 0t61 15t55 22.5t38 24.5q12 10 24.5 12
t22.5 -3t16 -14.5t6 -21.5q0 -15 -12 -30q-19 -17 -47.5 -33t-62.5 -28.5t-71 -19.5t-71 -5q-74 4 -110.5 46.5t-39.5 117.5q-4 63 12.5 115.5t45.5 106.5q24 45 67 70t91 26q68 0 99 -35.5t40 -99.5z" />
    <glyph glyph-name="d" unicode="d" horiz-adv-x="524" 
d="M360 580q0 19 14 29t28 9q12 -1 23 -9t14 -25q2 -127 5.5 -258t4.5 -258q-1 -17 -8.5 -27t-17.5 -14t-21.5 -2t-19.5 10q-25 -14 -56 -20.5t-71 -7.5q-35 -1 -71 6t-65.5 24.5t-49.5 46.5t-23 73q-3 36 14.5 69.5t46 58.5t65 40t72.5 15q73 0 121 -23q-2 66 -3.5 132
t-1.5 131zM369 123v32t-1 32q0 1 -0.5 1.5t-0.5 1.5q-5 36 -35.5 50t-82.5 16q-19 0 -41.5 -6t-41 -18.5t-30.5 -31t-9 -42.5q1 -20 12.5 -35t29 -24t40.5 -13t48 -3t57 10.5t55 29.5z" />
    <glyph glyph-name="e" unicode="e" horiz-adv-x="492" 
d="M134 244q-3 -17 -4.5 -32.5t-2.5 -29.5q0 -18 3.5 -39t14.5 -39t31 -30t54 -12q20 0 42.5 6t44 13.5t40 15.5t29.5 12q17 6 29.5 -0.5t18 -19.5t1.5 -27.5t-20 -24.5q-10 -6 -32 -14.5t-50.5 -16t-59.5 -12.5t-58 -5q-46 0 -78 18t-52.5 47t-30 64t-9.5 70
q1 43 13.5 93.5t37.5 94t62.5 74t88.5 33.5q34 3 67 -7t60 -30t46.5 -51t26.5 -70q2 -12 0.5 -25t-7.5 -24.5t-15.5 -20t-22.5 -11.5h-268zM253 406q-35 -5 -59 -29.5t-38 -58.5h209q-4 18 -13 34.5t-23 29.5t-33 20t-43 4z" />
    <glyph glyph-name="f" unicode="f" horiz-adv-x="488" 
d="M396 539q0 -16 -7 -26t-17 -14.5t-21.5 -2.5t-21.5 11q-29 16 -55 31t-63 27q3 -104 3 -206h221q17 0 24.5 -13t7.5 -24q0 -13 -9 -25.5t-26 -12.5h-37.5h-52.5t-62 0.5t-66 0.5q0 -64 -0.5 -127.5t0.5 -127.5q-1 -20 -11.5 -30.5t-24.5 -12.5t-27.5 8t-15.5 31
q0 82 -0.5 145t-0.5 114h-78q-21 -1 -29.5 13t-7.5 28q1 13 11 23t29 11h74q-1 54 -1.5 88t-1 55t-1 32t-0.5 20q0 22 3.5 41.5t13.5 30.5q12 14 33 17t47 -2q40 -7 81.5 -27t66.5 -43q9 -8 15 -16.5t7 -16.5z" />
    <glyph glyph-name="g" unicode="g" horiz-adv-x="511" 
d="M268 457q19 8 44.5 15.5t49.5 7.5q14 0 26.5 -5.5t20.5 -19.5q21 0 36 -22q5 -8 7.5 -20.5t2.5 -26.5t-2.5 -27t-5.5 -23q0 -5 -0.5 -10t-0.5 -10q-5 -88 -2.5 -173.5t2.5 -161.5q0 -26 -3 -51.5t-14 -48.5q-14 -29 -44 -48.5t-66.5 -31.5t-75 -17t-68.5 -6
q-21 2 -30.5 14.5t-9 26.5t11.5 25.5t32 12.5q14 0 39.5 3.5t52.5 10.5t49.5 16t31.5 20q8 11 11 30.5t3 41.5q0 31 0.5 58t0.5 54v55.5t-1 62.5q-22 -26 -50.5 -47.5t-60.5 -37.5t-67.5 -24.5t-71.5 -7.5q-17 1 -31 11.5t-23.5 26.5t-15.5 35.5t-6 37.5q1 52 24.5 93t58 72
t73.5 52.5t72 36.5zM365 393q-8 3 -13 7q-26 -3 -66 -22.5t-77 -48t-62.5 -62.5t-22.5 -67q1 -12 6 -20.5t19 -8.5q34 0 66.5 15t60.5 39.5t50 55t36 60.5q1 4 3.5 11.5t3.5 16t0.5 15.5t-4.5 9z" />
    <glyph glyph-name="h" unicode="h" horiz-adv-x="506" 
d="M85 595q-1 17 11.5 30t31.5 11q15 -2 26 -13.5t13 -32.5v-10.5t-0.5 -13.5t-1 -25t-1 -45.5t-1.5 -75t-1 -113.5q16 21 33.5 42t37 37t41.5 26t48 10q38 1 60 -16.5t34 -44.5t17.5 -59t9.5 -60q3 -21 4 -48t1 -55.5t-0.5 -55.5t-0.5 -48q-1 -23 -14 -34t-28 -10
q-14 1 -24.5 10.5t-12.5 29.5q-1 19 0 47t2 58t0.5 58.5t-4.5 49.5q-2 9 -4.5 25.5t-7.5 32.5t-14 28t-24 12q-17 0 -37.5 -19t-41.5 -45.5t-40.5 -55t-34.5 -47.5v-138q-1 -22 -13 -33t-26 -11t-26 10t-14 30q-1 16 -1 62t0.5 106t1 126.5t1 123.5t0.5 97v47z" />
    <glyph glyph-name="i" unicode="i" horiz-adv-x="264" 
d="M94 362q2 21 15 32.5t33 12.5q16 1 29 -12.5t9 -32.5q-2 -67 -4 -129q-1 -26 -1.5 -53.5t-0.5 -53t0.5 -48t2.5 -37.5q2 -18 -10.5 -29t-29.5 -13q-15 -1 -29.5 7t-16.5 28q-1 14 -2 40.5t-1 58.5v66.5t1 66.5t2 57.5t3 38.5zM64 525q-16 10 -18 23.5t5 25t21 17.5t31 2
q10 -3 26.5 -7t34 -8.5t34 -9t25.5 -8.5q18 -7 23.5 -21.5t0 -28t-19.5 -22t-33 -2.5q-11 3 -27 6.5t-34.5 8t-36.5 10.5t-32 14z" />
    <glyph glyph-name="j" unicode="j" horiz-adv-x="385" 
d="M169 515q-16 10 -18 23t5 24.5t21 17.5t31 2q10 -3 26.5 -7t34 -8.5t34 -9t25.5 -7.5q18 -7 23.5 -21.5t0 -28t-19.5 -22t-33 -2.5q-11 3 -27 6t-34.5 7.5t-36.5 11t-32 14.5zM225 361q2 21 13 28t23 9q14 2 28 -6t15 -27q2 -101 2.5 -201.5t-2.5 -201.5
q-1 -14 -0.5 -33.5t-3.5 -38.5q-5 -24 -22 -38.5t-49 -16.5q-38 -3 -81 3t-74 12q-20 2 -30.5 16.5t-9.5 28.5t12 23.5t32 10.5q35 -5 74.5 -10t69.5 -3q4 28 4 58v56q2 83 1 165.5t-2 165.5z" />
    <glyph glyph-name="k" unicode="k" horiz-adv-x="498" 
d="M385 435q23 8 38.5 -0.5t19.5 -23.5q3 -12 -2 -25t-21 -23q-62 -24 -116 -63.5t-105 -81.5q69 -35 135.5 -74.5t137.5 -68.5q18 -14 21 -30q3 -18 -11 -32.5t-39 -12.5q-77 29 -144.5 69.5l-137.5 82.5q0 -29 0.5 -56.5t0.5 -55.5q1 -5 -2 -12t-9 -14t-14.5 -11t-18.5 -3
q-17 2 -23.5 9t-11.5 26q-1 5 -1.5 12t-1 24t0 49t0.5 87v136v198q0 18 -0.5 34.5t4.5 33.5q8 14 20 20t23 4q14 -2 24.5 -14t9.5 -32q-2 -73 -2.5 -147t0.5 -149q54 40 107.5 80t117.5 64z" />
    <glyph glyph-name="l" unicode="l" horiz-adv-x="260" 
d="M94 592q0 20 11.5 32t34.5 12q20 0 31 -12t9 -32q0 -21 -1 -59t-1.5 -86.5t-0.5 -103v-109t0.5 -104.5t2.5 -89q1 -18 -12.5 -29t-30.5 -13q-15 -1 -30.5 7t-15.5 28q1 131 1 276.5t2 281.5z" />
    <glyph glyph-name="m" unicode="m" horiz-adv-x="851" 
d="M78 433q0 22 9 36.5t35 14.5q14 0 27 -9t13 -30l1 -140q8 20 30 48t51 53.5t61.5 43.5t62.5 18q30 -1 50 -16.5t32 -41t18 -57t9 -63.5q9 25 24 56.5t36 59.5t48 47t60 19q41 0 67 -26t40.5 -67t20 -91.5t6.5 -98.5t-1 -89t-2 -63q0 -27 -18.5 -38t-35.5 -7
q-12 4 -20.5 13.5t-8.5 27.5q2 33 3 72.5t0 79t-4.5 76t-10 64.5t-17.5 45t-27 17q-10 0 -23.5 -15t-26 -34t-22 -36.5t-11.5 -21.5q-17 -38 -27.5 -67t-18 -57t-13.5 -59t-12 -72q-2 -18 -15 -25.5t-28 -5.5q-16 2 -28 12.5t-11 28.5q0 59 2 112t-3 115q-1 7 -1.5 26.5
t-4 40.5t-11 37t-20.5 16q-13 1 -33 -11t-42 -31.5t-44.5 -45.5t-40.5 -53t-29 -54t-11 -48q-1 -5 -1.5 -21.5t-0.5 -35t0.5 -34.5t0.5 -22q0 -19 -13.5 -25t-25.5 -7q-37 -3 -39 52q-2 92 -3.5 184.5t-2.5 202.5z" />
    <glyph glyph-name="n" unicode="n" horiz-adv-x="559" 
d="M483 25q-2 -18 -15 -25.5t-28 -5.5q-16 2 -28 12.5t-11 28.5q0 59 2 112t-3 115q-1 7 -1.5 26.5t-4 40.5t-11 37t-20.5 16q-13 1 -33 -11t-42 -31.5t-44.5 -45.5t-40.5 -53t-29 -54t-11 -48q-1 -5 -1.5 -21.5t-0.5 -35t0.5 -34.5t0.5 -22q0 -19 -13.5 -25t-25.5 -7
q-37 -3 -39 52q-2 92 -3.5 184.5t-2.5 202.5q0 22 9 36.5t35 14.5q14 0 27 -9t13 -30l1 -140q8 20 30 48t51 53.5t61.5 43.5t62.5 18q47 -2 73 -34t35 -80q1 -8 3.5 -25t4 -53.5t2 -97t-2.5 -153.5z" />
    <glyph glyph-name="o" unicode="o" horiz-adv-x="383" 
d="M261 474q21 1 32.5 -9.5t13.5 -24.5q1 -10 -4 -22q16 -38 21 -84.5t5 -96.5q0 -30 -7.5 -73t-23.5 -82.5t-42 -69t-63 -32.5q-38 -3 -65 17.5t-44.5 53.5t-25 73t-7.5 75q1 34 7.5 70.5t21 70.5t36 62.5t52.5 46.5q21 12 43.5 17t49.5 8zM249 239q1 43 -2 82t-16 66
q-11 -3 -22 -9q-18 -9 -33 -30t-25.5 -47.5t-15.5 -56.5t-5 -57q0 -12 1 -32.5t6 -40t16 -34t31 -14.5q19 1 31.5 20.5t20 46.5t10.5 56t3 50z" />
    <glyph glyph-name="p" unicode="p" horiz-adv-x="515" 
d="M71 439q-1 8 4 15t13 12.5t17.5 8.5t18.5 2q11 -1 19.5 -8.5t6.5 -25.5v-52q17 14 37 28t42.5 25.5t46.5 18.5t50 7q66 0 108 -36t45 -107q3 -53 -17.5 -98.5t-55.5 -79.5t-81.5 -54t-97.5 -23q-17 -2 -37.5 -0.5t-39.5 6.5v-211q-1 -22 -13.5 -33t-26.5 -11t-25.5 10
t-13.5 30v576zM323 390q-18 0 -42.5 -10.5t-50 -27t-47 -35.5t-33.5 -35v-120q12 -2 24.5 -7t44.5 -3q31 0 64 12.5t60 35t43.5 54t13.5 69.5q-2 22 -8.5 35t-16.5 20t-23.5 9.5t-28.5 2.5z" />
    <glyph glyph-name="q" unicode="q" horiz-adv-x="560" 
d="M202 85q-33 1 -59.5 16.5t-44.5 39.5t-28 54.5t-11 62.5q-1 22 2 43.5t11 41.5q14 35 39 60.5t55.5 42t66 25.5t70.5 12q20 2 46 1.5t49 -5.5q15 14 35.5 8t28.5 -32q2 -151 5.5 -299.5t4.5 -299.5q-1 -21 -12.5 -32t-25.5 -11.5t-26.5 9t-14.5 30.5q-1 87 -2.5 172.5
t-3.5 171.5q-19 -24 -38.5 -44t-42 -35t-48 -23.5t-56.5 -8.5zM384 311q0 23 -0.5 45t-0.5 44q-23 4 -47.5 4.5t-54.5 -3.5q-42 -6 -79.5 -26.5t-54.5 -62.5q-8 -22 -8 -53q0 -17 3.5 -33t11 -29.5t19.5 -22t29 -8.5q31 0 57.5 14t49 36t41.5 47t34 48z" />
    <glyph glyph-name="r" unicode="r" horiz-adv-x="443" 
d="M80 435q4 19 15.5 29t25.5 9q12 -1 24 -9.5t14 -28.5v-67q59 26 116.5 52t121.5 34q21 1 32.5 -9.5t13.5 -24.5t-7 -27t-30 -18q-27 -3 -58.5 -13.5t-63.5 -24.5t-64 -29t-62 -27q-1 -60 -2 -118t0 -123q-1 -22 -13.5 -33t-26.5 -11t-25.5 10t-13.5 30q-1 35 -1 75.5
v81.5t0.5 80t1 72t1 56.5t1.5 33.5z" />
    <glyph glyph-name="s" unicode="s" horiz-adv-x="439" 
d="M375 419q8 -14 7 -29.5t-21 -25.5q-20 -8 -30.5 -1.5t-15.5 14.5q-8 14 -34 23t-64 8q-35 -2 -55.5 -16.5t-20.5 -49.5q0 -14 8.5 -27t22 -25t31.5 -22.5t38 -18.5q71 -30 110 -62t37 -73q-2 -40 -19.5 -65t-43 -38.5t-54 -18.5t-51.5 -5q-31 0 -64 12.5t-70 29.5
q-22 11 -31 30t5 38q13 18 29 15.5t27 -8.5q28 -16 63 -29.5t67 -10.5q32 5 47 14t15 34q0 11 -7 19.5t-20 16t-31.5 15.5t-40.5 19q-33 16 -61.5 32t-49.5 36t-33.5 44.5t-12.5 57.5t15.5 57.5t40 40.5t55.5 24t63 8q21 0 43.5 -3.5t43 -11t37 -19.5t25.5 -29z" />
    <glyph glyph-name="t" unicode="t" horiz-adv-x="462" 
d="M116 609q0 19 13 28.5t27 9.5q12 0 25.5 -11t13.5 -29q0 -94 -3 -187h198q17 0 24.5 -13t7.5 -24q0 -13 -9 -25.5t-26 -12.5h-35.5h-47.5t-55.5 0.5t-58.5 0.5q-1 -34 -1.5 -68t-0.5 -69t-1.5 -69t3.5 -68q43 7 84.5 23t86.5 25q17 3 32.5 -2t20.5 -25q5 -23 -5 -33
t-32 -16q-11 -3 -33 -10t-48 -15t-53 -15.5t-48 -11.5q-35 -7 -56.5 5.5t-28.5 62.5q-3 30 -4 58.5t0 60.5t2 70.5t1 88.5v8h-67q-21 -1 -29.5 13t-7.5 28q1 13 11 23t29 11h66q2 48 3.5 96t1.5 92z" />
    <glyph glyph-name="u" unicode="u" horiz-adv-x="543" 
d="M83 402q5 21 18 30t27 7t24.5 -13.5t9.5 -32.5q-2 -36 -6.5 -73.5t-6.5 -75.5t-0.5 -75.5t11.5 -72.5q24 0 54 24t58.5 57t52 67t35.5 55q7 12 14.5 28t18.5 32q8 14 19.5 19.5t22.5 4.5t20.5 -9.5t14.5 -24.5q1 -28 2 -62t3.5 -68.5t9 -67t19.5 -57.5q6 -20 -1.5 -34
t-20.5 -19t-28 0.5t-25 23.5q-15 29 -22 66t-11 76q-18 -23 -45 -58t-60 -66t-70.5 -51.5t-75.5 -14.5q-17 3 -29.5 11.5t-21 21t-13.5 28.5t-8 33q-5 34 -4.5 74.5t3.5 81t6.5 76t4.5 59.5z" />
    <glyph glyph-name="v" unicode="v" horiz-adv-x="503" 
d="M49 387q-11 29 2 45t37 18q11 1 22.5 -8.5t16.5 -23.5q12 -37 25 -78.5t27.5 -83.5t30 -82.5t32.5 -76.5q26 40 46.5 80.5t39 83.5t38 89.5t43.5 99.5q7 15 21.5 19.5t25.5 -0.5q17 -6 26 -17.5t-2 -36.5q-21 -50 -43 -101t-43.5 -98.5t-43 -89.5t-41.5 -74
q-17 -29 -32 -40t-41 -11q-20 0 -32.5 9t-26.5 40q-12 25 -27 63t-31.5 83t-34.5 94.5t-35 96.5z" />
    <glyph glyph-name="w" unicode="w" horiz-adv-x="678" 
d="M49 363q-3 13 -0.5 22t8 15.5t12.5 10t13 4.5q14 2 27 -5.5t18 -27.5q11 -65 24.5 -129.5t36.5 -127.5q22 25 41 55t36.5 61.5t33 63t32.5 60.5q8 14 20.5 20t24.5 4q11 -2 19.5 -10t12.5 -23q9 -53 27.5 -109t53.5 -131q23 63 38 125.5t25 133.5q4 20 16 29.5t26 8.5
q12 -1 24 -10.5t13 -31.5q-8 -81 -24.5 -157t-53.5 -150q-6 -21 -17.5 -37t-26 -21.5t-31.5 0.5t-33 28q-11 15 -22.5 39t-22.5 52.5t-22 60t-21 61.5q-12 -21 -26.5 -46t-28.5 -49t-28 -45t-26 -35q-9 -10 -21.5 -21t-27 -18.5t-30 -9t-29.5 8.5q-5 4 -10.5 12t-8.5 20
q-12 43 -20.5 79t-16.5 70.5t-16 70.5t-19 79z" />
    <glyph glyph-name="x" unicode="x" horiz-adv-x="477" 
d="M43 -1q-14 8 -16 23t6 28q33 59 68.5 106.5t71.5 98.5q-14 22 -25.5 39.5t-23.5 34t-24.5 34t-28.5 40.5q-12 17 -11.5 33t17.5 29q16 12 30 8t25 -15q25 -28 45.5 -62t47.5 -71q29 40 56.5 77.5t48.5 63.5q16 17 33 25.5t40 -5.5q16 -11 15.5 -28.5t-11.5 -31.5
q-18 -25 -34 -46t-31.5 -41.5t-30.5 -42t-32 -45.5l139 -199q14 -21 10.5 -34.5t-15.5 -24.5q-11 -9 -23.5 -10.5t-27.5 11.5q-37 46 -72 95t-63 90l-115 -162q-14 -21 -34 -25t-35 7z" />
    <glyph glyph-name="y" unicode="y" horiz-adv-x="500" 
d="M379 438q8 18 18.5 21.5t21.5 3.5q15 0 28.5 -12.5t8.5 -34.5q-47 -138 -102 -270t-131 -257q-16 -26 -31.5 -51.5t-35.5 -48.5q-22 -12 -39 -6q-17 5 -24 23.5t6 39.5q15 16 29.5 37.5t29 45.5t27.5 49t25 48q-14 39 -34 84.5t-41.5 93.5t-42 97.5t-36.5 96.5
q-6 19 5 31t23 17q12 4 26.5 -1t21.5 -22q32 -85 64 -158.5t61 -143.5q35 78 64.5 157t57.5 160z" />
    <glyph glyph-name="z" unicode="z" horiz-adv-x="469" 
d="M114 396q-24 0 -35.5 12t-11.5 27q0 16 11.5 28.5t31.5 13.5q123 6 247 0q24 -2 38.5 -13.5t19 -29t-0.5 -37.5t-20 -38q-69 -81 -132 -147.5t-112 -131.5q65 -1 125 -1.5t123 2.5q16 1 25.5 -2.5t14.5 -9t7 -13t2 -15.5q2 -20 -14 -28.5t-34 -9.5q-70 -2 -149.5 -2.5
t-150.5 2.5q-33 2 -46 27.5t5 56.5q22 38 52.5 76t65 76.5t72.5 78.5t75 82q-29 1 -55 1t-51 -0.5t-50.5 -2t-52.5 -2.5z" />
    <glyph glyph-name="braceleft" unicode="{" horiz-adv-x="428" 
d="M280 767q20 0 37.5 -9.5t17.5 -35.5q0 -38 -47 -38q-8 0 -18.5 -1.5t-20.5 -4.5q-18 -6 -34 -17.5t-15 -31.5q1 -21 7 -46t13.5 -51.5t15 -53.5t10.5 -54q4 -29 -6.5 -52.5t-30.5 -42.5q23 -22 29 -50t5 -51q0 -18 -2 -40.5t-4 -45.5t-2 -46.5t3 -42.5q4 -23 19.5 -32
t40.5 -14q11 -3 18 -12t5 -25q-2 -17 -10.5 -25.5t-32.5 -6.5q-54 3 -89 36.5t-35 107.5q0 15 3 43.5t4.5 58t-1 53t-12.5 29.5q-8 5 -19 7.5t-21 1.5q-45 -4 -53 30q-2 14 4.5 27.5t25.5 21.5q48 18 65 39.5t8 50.5q-2 9 -5.5 20.5t-7.5 24.5t-8 24.5t-7 20.5
q-5 19 -10.5 38t-8 38.5t-0.5 38t11 35.5q20 37 56 55.5t74 24.5q13 3 28 3z" />
    <glyph glyph-name="bar" unicode="|" horiz-adv-x="341" 
d="M135 665q2 20 15.5 31.5t33.5 12.5q16 1 28.5 -12.5t9.5 -31.5q-7 -137 -11 -259q-2 -52 -3.5 -106.5t-2 -104.5t0 -92.5t2.5 -70.5q2 -18 -10.5 -29t-28.5 -13t-30.5 6.5t-16.5 27.5q-2 26 -2.5 71t-0.5 101.5t1.5 120t3.5 126.5t4.5 120.5t6.5 101.5z" />
    <glyph glyph-name="braceright" unicode="}" horiz-adv-x="420" 
d="M116 762h14t14 -1q40 -3 76 -21.5t58 -54.5q9 -17 11.5 -35.5t0.5 -37.5t-7 -38.5t-9 -38.5q-2 -9 -5.5 -21t-7.5 -24.5t-7 -24.5t-5 -21q-8 -29 10 -49.5t66 -37.5q20 -8 27 -21t4 -26q-5 -36 -52 -32q-9 0 -18.5 -3t-17.5 -7q-10 -6 -11.5 -33.5t1.5 -61t7 -65.5t5 -47
q1 -36 -7.5 -59t-25 -37.5t-39.5 -21t-50 -9.5q-24 -3 -33.5 5.5t-11.5 25.5q-2 16 5 25.5t16 11.5q24 7 40 17t20 33q2 19 0.5 42t-4.5 46t-5.5 45t-3.5 40q-2 23 3.5 51t27.5 50q-20 20 -31.5 43t-7.5 51q2 27 8 55t13 55t12 52t5 46q0 15 -9 25t-22.5 16t-29 8.5
t-28.5 2.5q-49 -1 -49 37q-1 25 16 34.5t37 10.5z" />
    <glyph glyph-name="asciitilde" unicode="~" horiz-adv-x="689" 
d="M158 279q1 -21 -12 -30t-29 -8q-14 1 -25.5 10t-14.5 28q-2 20 0 42t7 39q12 36 42 51.5t61 16.5q14 1 40.5 -2.5t51.5 -19.5q22 -14 40.5 -35t37.5 -41t39.5 -34.5t45.5 -14.5q15 0 28 5t23 15t14 24t1 32q-2 9 -8.5 21t-10.5 24.5t-2.5 24t13.5 20.5q20 14 39.5 7
t30.5 -21q13 -17 22 -42.5t9 -49.5q0 -65 -42 -104t-113 -41q-33 -2 -55.5 7t-42 26.5t-40 41t-49.5 51.5q-14 14 -30 18.5t-24 4.5q-27 0 -37.5 -15.5t-9.5 -50.5z" />
    <glyph glyph-name="cid208" unicode="&#xa1;" 
 />
    <glyph glyph-name="cid143" unicode="&#xa2;" 
 />
    <glyph glyph-name="cid143" unicode="&#xffe0;" 
 />
    <glyph glyph-name="cid144" unicode="&#xa3;" 
 />
    <glyph glyph-name="cid144" unicode="&#xffe1;" 
 />
    <glyph glyph-name="cid214" unicode="&#xa4;" 
 />
    <glyph glyph-name="cid155" unicode="&#xa7;" 
 />
    <glyph glyph-name="cid107" unicode="&#xa8;" 
 />
    <glyph glyph-name="cid98" unicode="&#xa9;" 
 />
    <glyph glyph-name="cid668" unicode="&#xaa;" 
 />
    <glyph glyph-name="cid176" unicode="&#xab;" 
 />
    <glyph glyph-name="cid176" unicode="&#x226a;" 
 />
    <glyph glyph-name="cid194" unicode="&#xac;" 
 />
    <glyph glyph-name="cid194" unicode="&#xffe2;" 
 />
    <glyph glyph-name="cid109" unicode="&#xad;" 
 />
    <glyph glyph-name="cid109" unicode="&#x2013;" 
 />
    <glyph glyph-name="cid138" unicode="&#xb0;" 
 />
    <glyph glyph-name="cid130" unicode="&#xb1;" 
 />
    <glyph glyph-name="cid843" unicode="&#xb2;" 
 />
    <glyph glyph-name="cid844" unicode="&#xb3;" 
 />
    <glyph glyph-name="cid199" unicode="&#xb4;" 
 />
    <glyph glyph-name="cid244" unicode="&#xb6;" 
 />
    <glyph glyph-name="cid104" unicode="&#xb7;" 
 />
    <glyph glyph-name="cid104" unicode="&#x30fb;" 
 />
    <glyph glyph-name="cid206" unicode="&#xb8;" 
 />
    <glyph glyph-name="cid842" unicode="&#xb9;" 
 />
    <glyph glyph-name="cid675" unicode="&#xba;" 
 />
    <glyph glyph-name="cid177" unicode="&#xbb;" 
 />
    <glyph glyph-name="cid177" unicode="&#x226b;" 
 />
    <glyph glyph-name="cid751" unicode="&#xbc;" 
 />
    <glyph glyph-name="cid748" unicode="&#xbd;" 
 />
    <glyph glyph-name="cid752" unicode="&#xbe;" 
 />
    <glyph glyph-name="cid209" unicode="&#xbf;" 
 />
    <glyph glyph-name="cid666" unicode="&#xc6;" 
 />
    <glyph glyph-name="cid667" unicode="&#xd0;" 
 />
    <glyph glyph-name="cid131" unicode="&#xd7;" 
 />
    <glyph glyph-name="cid673" unicode="&#xd8;" 
 />
    <glyph glyph-name="cid676" unicode="&#xde;" 
 />
    <glyph glyph-name="cid768" unicode="&#xdf;" 
 />
    <glyph glyph-name="cid757" unicode="&#xe6;" 
 />
    <glyph glyph-name="cid759" unicode="&#xf0;" 
 />
    <glyph glyph-name="cid132" unicode="&#xf7;" 
 />
    <glyph glyph-name="cid766" unicode="&#xf8;" 
 />
    <glyph glyph-name="cid769" unicode="&#xfe;" 
 />
    <glyph glyph-name="cid758" unicode="&#x111;" 
 />
    <glyph glyph-name="cid669" unicode="&#x126;" 
 />
    <glyph glyph-name="cid760" unicode="&#x127;" 
 />
    <glyph glyph-name="cid761" unicode="&#x131;" 
 />
    <glyph glyph-name="cid670" unicode="&#x132;" 
 />
    <glyph glyph-name="cid762" unicode="&#x133;" 
 />
    <glyph glyph-name="cid763" unicode="&#x138;" 
 />
    <glyph glyph-name="cid671" unicode="&#x13f;" 
 />
    <glyph glyph-name="cid764" unicode="&#x140;" 
 />
    <glyph glyph-name="cid672" unicode="&#x141;" 
 />
    <glyph glyph-name="cid765" unicode="&#x142;" 
 />
    <glyph glyph-name="cid772" unicode="&#x149;" 
 />
    <glyph glyph-name="cid678" unicode="&#x14a;" 
 />
    <glyph glyph-name="cid771" unicode="&#x14b;" 
 />
    <glyph glyph-name="cid674" unicode="&#x152;" 
 />
    <glyph glyph-name="cid767" unicode="&#x153;" 
 />
    <glyph glyph-name="cid677" unicode="&#x166;" 
 />
    <glyph glyph-name="cid770" unicode="&#x167;" 
 />
    <glyph glyph-name="cid8275" unicode="&#x2bc;" 
 />
    <glyph glyph-name="cid201" unicode="&#x2c7;" 
 />
    <glyph glyph-name="cid210" unicode="&#x2d0;" 
 />
    <glyph glyph-name="cid210" unicode="&#x2236;" 
 />
    <glyph glyph-name="cid202" unicode="&#x2d8;" 
 />
    <glyph glyph-name="cid205" unicode="&#x2d9;" 
 />
    <glyph glyph-name="cid204" unicode="&#x2da;" 
 />
    <glyph glyph-name="cid207" unicode="&#x2db;" 
 />
    <glyph glyph-name="cid200" unicode="&#x2dc;" 
 />
    <glyph glyph-name="cid203" unicode="&#x2dd;" 
 />
    <glyph glyph-name="cid471" unicode="&#x391;" 
 />
    <glyph glyph-name="cid472" unicode="&#x392;" 
 />
    <glyph glyph-name="cid473" unicode="&#x393;" 
 />
    <glyph glyph-name="cid474" unicode="&#x394;" 
 />
    <glyph glyph-name="cid475" unicode="&#x395;" 
 />
    <glyph glyph-name="cid476" unicode="&#x396;" 
 />
    <glyph glyph-name="cid477" unicode="&#x397;" 
 />
    <glyph glyph-name="cid478" unicode="&#x398;" 
 />
    <glyph glyph-name="cid479" unicode="&#x399;" 
 />
    <glyph glyph-name="cid480" unicode="&#x39a;" 
 />
    <glyph glyph-name="cid481" unicode="&#x39b;" 
 />
    <glyph glyph-name="cid482" unicode="&#x39c;" 
 />
    <glyph glyph-name="cid483" unicode="&#x39d;" 
 />
    <glyph glyph-name="cid484" unicode="&#x39e;" 
 />
    <glyph glyph-name="cid485" unicode="&#x39f;" 
 />
    <glyph glyph-name="cid486" unicode="&#x3a0;" 
 />
    <glyph glyph-name="cid487" unicode="&#x3a1;" 
 />
    <glyph glyph-name="cid488" unicode="&#x3a3;" 
 />
    <glyph glyph-name="cid489" unicode="&#x3a4;" 
 />
    <glyph glyph-name="cid490" unicode="&#x3a5;" 
 />
    <glyph glyph-name="cid491" unicode="&#x3a6;" 
 />
    <glyph glyph-name="cid492" unicode="&#x3a7;" 
 />
    <glyph glyph-name="cid493" unicode="&#x3a8;" 
 />
    <glyph glyph-name="cid494" unicode="&#x3a9;" 
 />
    <glyph glyph-name="cid495" unicode="&#x3b1;" 
 />
    <glyph glyph-name="cid496" unicode="&#x3b2;" 
 />
    <glyph glyph-name="cid497" unicode="&#x3b3;" 
 />
    <glyph glyph-name="cid498" unicode="&#x3b4;" 
 />
    <glyph glyph-name="cid499" unicode="&#x3b5;" 
 />
    <glyph glyph-name="cid500" unicode="&#x3b6;" 
 />
    <glyph glyph-name="cid501" unicode="&#x3b7;" 
 />
    <glyph glyph-name="cid502" unicode="&#x3b8;" 
 />
    <glyph glyph-name="cid503" unicode="&#x3b9;" 
 />
    <glyph glyph-name="cid504" unicode="&#x3ba;" 
 />
    <glyph glyph-name="cid505" unicode="&#x3bb;" 
 />
    <glyph glyph-name="cid506" unicode="&#x3bc;" 
 />
    <glyph glyph-name="cid507" unicode="&#x3bd;" 
 />
    <glyph glyph-name="cid508" unicode="&#x3be;" 
 />
    <glyph glyph-name="cid509" unicode="&#x3bf;" 
 />
    <glyph glyph-name="cid510" unicode="&#x3c0;" 
 />
    <glyph glyph-name="cid511" unicode="&#x3c1;" 
 />
    <glyph glyph-name="cid512" unicode="&#x3c3;" 
 />
    <glyph glyph-name="cid513" unicode="&#x3c4;" 
 />
    <glyph glyph-name="cid514" unicode="&#x3c5;" 
 />
    <glyph glyph-name="cid515" unicode="&#x3c6;" 
 />
    <glyph glyph-name="cid516" unicode="&#x3c7;" 
 />
    <glyph glyph-name="cid517" unicode="&#x3c8;" 
 />
    <glyph glyph-name="cid518" unicode="&#x3c9;" 
 />
    <glyph glyph-name="cid1026" unicode="&#x401;" 
 />
    <glyph glyph-name="cid1020" unicode="&#x410;" 
 />
    <glyph glyph-name="cid1021" unicode="&#x411;" 
 />
    <glyph glyph-name="cid1022" unicode="&#x412;" 
 />
    <glyph glyph-name="cid1023" unicode="&#x413;" 
 />
    <glyph glyph-name="cid1024" unicode="&#x414;" 
 />
    <glyph glyph-name="cid1025" unicode="&#x415;" 
 />
    <glyph glyph-name="cid1027" unicode="&#x416;" 
 />
    <glyph glyph-name="cid1028" unicode="&#x417;" 
 />
    <glyph glyph-name="cid1029" unicode="&#x418;" 
 />
    <glyph glyph-name="cid1030" unicode="&#x419;" 
 />
    <glyph glyph-name="cid1031" unicode="&#x41a;" 
 />
    <glyph glyph-name="cid1032" unicode="&#x41b;" 
 />
    <glyph glyph-name="cid1033" unicode="&#x41c;" 
 />
    <glyph glyph-name="cid1034" unicode="&#x41d;" 
 />
    <glyph glyph-name="cid1035" unicode="&#x41e;" 
 />
    <glyph glyph-name="cid1036" unicode="&#x41f;" 
 />
    <glyph glyph-name="cid1037" unicode="&#x420;" 
 />
    <glyph glyph-name="cid1038" unicode="&#x421;" 
 />
    <glyph glyph-name="cid1039" unicode="&#x422;" 
 />
    <glyph glyph-name="cid1040" unicode="&#x423;" 
 />
    <glyph glyph-name="cid1041" unicode="&#x424;" 
 />
    <glyph glyph-name="cid1042" unicode="&#x425;" 
 />
    <glyph glyph-name="cid1043" unicode="&#x426;" 
 />
    <glyph glyph-name="cid1044" unicode="&#x427;" 
 />
    <glyph glyph-name="cid1045" unicode="&#x428;" 
 />
    <glyph glyph-name="cid1046" unicode="&#x429;" 
 />
    <glyph glyph-name="cid1047" unicode="&#x42a;" 
 />
    <glyph glyph-name="cid1048" unicode="&#x42b;" 
 />
    <glyph glyph-name="cid1049" unicode="&#x42c;" 
 />
    <glyph glyph-name="cid1050" unicode="&#x42d;" 
 />
    <glyph glyph-name="cid1051" unicode="&#x42e;" 
 />
    <glyph glyph-name="cid1052" unicode="&#x42f;" 
 />
    <glyph glyph-name="cid1053" unicode="&#x430;" 
 />
    <glyph glyph-name="cid1054" unicode="&#x431;" 
 />
    <glyph glyph-name="cid1055" unicode="&#x432;" 
 />
    <glyph glyph-name="cid1056" unicode="&#x433;" 
 />
    <glyph glyph-name="cid1057" unicode="&#x434;" 
 />
    <glyph glyph-name="cid1058" unicode="&#x435;" 
 />
    <glyph glyph-name="cid1060" unicode="&#x436;" 
 />
    <glyph glyph-name="cid1061" unicode="&#x437;" 
 />
    <glyph glyph-name="cid1062" unicode="&#x438;" 
 />
    <glyph glyph-name="cid1063" unicode="&#x439;" 
 />
    <glyph glyph-name="cid1064" unicode="&#x43a;" 
 />
    <glyph glyph-name="cid1065" unicode="&#x43b;" 
 />
    <glyph glyph-name="cid1066" unicode="&#x43c;" 
 />
    <glyph glyph-name="cid1067" unicode="&#x43d;" 
 />
    <glyph glyph-name="cid1068" unicode="&#x43e;" 
 />
    <glyph glyph-name="cid1069" unicode="&#x43f;" 
 />
    <glyph glyph-name="cid1070" unicode="&#x440;" 
 />
    <glyph glyph-name="cid1071" unicode="&#x441;" 
 />
    <glyph glyph-name="cid1072" unicode="&#x442;" 
 />
    <glyph glyph-name="cid1073" unicode="&#x443;" 
 />
    <glyph glyph-name="cid1074" unicode="&#x444;" 
 />
    <glyph glyph-name="cid1075" unicode="&#x445;" 
 />
    <glyph glyph-name="cid1076" unicode="&#x446;" 
 />
    <glyph glyph-name="cid1077" unicode="&#x447;" 
 />
    <glyph glyph-name="cid1078" unicode="&#x448;" 
 />
    <glyph glyph-name="cid1079" unicode="&#x449;" 
 />
    <glyph glyph-name="cid1080" unicode="&#x44a;" 
 />
    <glyph glyph-name="cid1081" unicode="&#x44b;" 
 />
    <glyph glyph-name="cid1082" unicode="&#x44c;" 
 />
    <glyph glyph-name="cid1083" unicode="&#x44d;" 
 />
    <glyph glyph-name="cid1084" unicode="&#x44e;" 
 />
    <glyph glyph-name="cid1085" unicode="&#x44f;" 
 />
    <glyph glyph-name="cid1059" unicode="&#x451;" 
 />
    <glyph glyph-name="cid97" unicode="&#x2010;" 
 />
    <glyph glyph-name="cid110" unicode="&#x2014;" 
 />
    <glyph glyph-name="cid110" unicode="&#x2015;" 
 />
    <glyph glyph-name="cid111" unicode="&#x2016;" 
 />
    <glyph glyph-name="cid8238" unicode="&#x201b;" 
 />
    <glyph glyph-name="cid8237" unicode="&#x201f;" 
 />
    <glyph glyph-name="cid245" unicode="&#x2020;" 
 />
    <glyph glyph-name="cid246" unicode="&#x2021;" 
 />
    <glyph glyph-name="cid8607" unicode="&#x2022;" 
 />
    <glyph glyph-name="twodotenleader" unicode="&#x2025;" horiz-adv-x="902" 
d="M213 158q-9 0 -18.5 3.5t-16.5 11.5t-10.5 21t-1.5 31q4 23 20.5 35t39.5 12q22 0 36 -16t16 -40q2 -32 -14 -45t-51 -13zM664 158q-9 0 -18.5 3.5t-16.5 11.5t-10.5 21t-1.5 31q4 23 20.5 35t39.5 12q22 0 36.5 -16t16.5 -40q1 -32 -14.5 -45t-51.5 -13z" />
    <glyph glyph-name="ellipsis" unicode="&#x2026;" horiz-adv-x="902" 
d="M147 158q-9 0 -18.5 3.5t-16.5 11.5t-10.5 21t-1.5 31q3 23 20.5 35t40.5 12q21 0 35 -16t16 -40q2 -32 -14 -45t-51 -13zM446 158q-8 0 -17.5 3.5t-16.5 11.5t-11 21t-1 31q4 23 20.5 35t39.5 12q21 0 35.5 -16t16.5 -40q2 -32 -14 -45t-52 -13zM746 158q-9 0 -18.5 3.5
t-16.5 11.5t-11 21t-2 31q4 23 21 35t40 12q21 0 35 -16t16 -40q2 -32 -13.5 -45t-50.5 -13z" />
    <glyph glyph-name="cid216" unicode="&#x2030;" 
 />
    <glyph glyph-name="cid139" unicode="&#x2032;" 
 />
    <glyph glyph-name="cid140" unicode="&#x2033;" 
 />
    <glyph glyph-name="cid8582" unicode="&#x2034;" 
 />
    <glyph glyph-name="cid9326" unicode="&#x2035;" 
 />
    <glyph glyph-name="cid9324" unicode="&#x2036;" 
 />
    <glyph glyph-name="cid8612" unicode="&#x2039;" 
 />
    <glyph glyph-name="cid8613" unicode="&#x203a;" 
 />
    <glyph glyph-name="cid156" unicode="&#x203b;" 
 />
    <glyph glyph-name="cid8763" unicode="&#x203c;" 
 />
    <glyph glyph-name="cid357" unicode="&#x203e;" 
 />
    <glyph glyph-name="cid8599" unicode="&#x2042;" 
 />
    <glyph glyph-name="cid845" unicode="&#x2074;" 
 />
    <glyph glyph-name="cid8239" unicode="&#x207a;" 
 />
    <glyph glyph-name="cid8240" unicode="&#x207b;" 
 />
    <glyph glyph-name="cid8248" unicode="&#x207c;" 
 />
    <glyph glyph-name="cid8250" unicode="&#x207d;" 
 />
    <glyph glyph-name="cid8251" unicode="&#x207e;" 
 />
    <glyph glyph-name="cid846" unicode="&#x207f;" 
 />
    <glyph glyph-name="cid847" unicode="&#x2081;" 
 />
    <glyph glyph-name="cid848" unicode="&#x2082;" 
 />
    <glyph glyph-name="cid849" unicode="&#x2083;" 
 />
    <glyph glyph-name="cid850" unicode="&#x2084;" 
 />
    <glyph glyph-name="dong" unicode="&#x20ab;" horiz-adv-x="550" 
d="M181 487q-1 24 11 31t26 8q31 2 64.5 2h68.5v52q0 19 14 29t28 9q11 -1 22 -9t15 -25v-58h56q17 0 27.5 -6t12.5 -19q1 -8 0.5 -17t-4 -16.5t-12.5 -13t-24 -5.5h-54q2 -83 4 -162.5t3 -169.5q-1 -17 -8 -27.5t-17.5 -14.5t-21.5 -1.5t-20 10.5q-25 -14 -51 -20.5
t-66 -7.5q-35 -1 -68 6t-59 24.5t-43 46.5t-20 73q-2 36 12 69.5t39 58.5t58.5 40t69.5 15q38 0 63 -6t48 -17l-3 85h-63.5t-67.5 -2q-17 -1 -28 10t-12 28zM24 -31q-1 23 11.5 33.5t26.5 11.5q21 1 55 2t74 1h83.5t83 -0.5t72.5 -0.5h52q17 0 27.5 -9.5t12.5 -22.5
q1 -8 0.5 -16t-4 -14.5t-12.5 -11t-24 -4.5h-87.5t-116.5 0.5t-119 0t-95 -2.5q-16 -1 -27.5 7t-12.5 26zM359 172v33t-2 33q-4 37 -30 51t-78 16q-19 0 -38 -6t-34.5 -18.5t-24 -31t-6.5 -42.5q3 -42 31.5 -59.5t79.5 -15.5q25 1 52 10.5t50 29.5z" />
    <glyph glyph-name="cid141" unicode="&#x2103;" 
 />
    <glyph glyph-name="cid215" unicode="&#x2109;" 
 />
    <glyph glyph-name="cid590" unicode="&#x2113;" 
 />
    <glyph glyph-name="cid258" unicode="&#x2116;" 
 />
    <glyph glyph-name="cid263" unicode="&#x2121;" 
 />
    <glyph glyph-name="cid260" unicode="&#x2122;" 
 />
    <glyph glyph-name="cid643" unicode="&#x2126;" 
 />
    <glyph glyph-name="cid142" unicode="&#x212b;" 
 />
    <glyph glyph-name="cid749" unicode="&#x2153;" 
 />
    <glyph glyph-name="cid750" unicode="&#x2154;" 
 />
    <glyph glyph-name="cid753" unicode="&#x215b;" 
 />
    <glyph glyph-name="cid754" unicode="&#x215c;" 
 />
    <glyph glyph-name="cid755" unicode="&#x215d;" 
 />
    <glyph glyph-name="cid756" unicode="&#x215e;" 
 />
    <glyph glyph-name="cid461" unicode="&#x2160;" 
 />
    <glyph glyph-name="cid462" unicode="&#x2161;" 
 />
    <glyph glyph-name="cid463" unicode="&#x2162;" 
 />
    <glyph glyph-name="cid464" unicode="&#x2163;" 
 />
    <glyph glyph-name="cid465" unicode="&#x2164;" 
 />
    <glyph glyph-name="cid466" unicode="&#x2165;" 
 />
    <glyph glyph-name="cid467" unicode="&#x2166;" 
 />
    <glyph glyph-name="cid468" unicode="&#x2167;" 
 />
    <glyph glyph-name="cid469" unicode="&#x2168;" 
 />
    <glyph glyph-name="cid470" unicode="&#x2169;" 
 />
    <glyph glyph-name="cid451" unicode="&#x2170;" 
 />
    <glyph glyph-name="cid452" unicode="&#x2171;" 
 />
    <glyph glyph-name="cid453" unicode="&#x2172;" 
 />
    <glyph glyph-name="cid454" unicode="&#x2173;" 
 />
    <glyph glyph-name="cid455" unicode="&#x2174;" 
 />
    <glyph glyph-name="cid456" unicode="&#x2175;" 
 />
    <glyph glyph-name="cid457" unicode="&#x2176;" 
 />
    <glyph glyph-name="cid458" unicode="&#x2177;" 
 />
    <glyph glyph-name="cid459" unicode="&#x2178;" 
 />
    <glyph glyph-name="cid460" unicode="&#x2179;" 
 />
    <glyph glyph-name="cid171" unicode="&#x2190;" 
 />
    <glyph glyph-name="cid172" unicode="&#x2191;" 
 />
    <glyph glyph-name="cid170" unicode="&#x2192;" 
 />
    <glyph glyph-name="cid173" unicode="&#x2193;" 
 />
    <glyph glyph-name="cid174" unicode="&#x2194;" 
 />
    <glyph glyph-name="cid247" unicode="&#x2195;" 
 />
    <glyph glyph-name="cid250" unicode="&#x2196;" 
 />
    <glyph glyph-name="cid248" unicode="&#x2197;" 
 />
    <glyph glyph-name="cid251" unicode="&#x2198;" 
 />
    <glyph glyph-name="cid249" unicode="&#x2199;" 
 />
    <glyph glyph-name="cid8868" unicode="&#x21b0;" 
 />
    <glyph glyph-name="cid8865" unicode="&#x21b1;" 
 />
    <glyph glyph-name="cid8864" unicode="&#x21b2;" 
 />
    <glyph glyph-name="cid8869" unicode="&#x21b3;" 
 />
    <glyph glyph-name="cid8867" unicode="&#x21b4;" 
 />
    <glyph glyph-name="cid8884" unicode="&#x21bc;" 
 />
    <glyph glyph-name="cid8885" unicode="&#x21c0;" 
 />
    <glyph glyph-name="cid8896" unicode="&#x21c4;" 
 />
    <glyph glyph-name="cid8897" unicode="&#x21c5;" 
 />
    <glyph glyph-name="cid8816" unicode="&#x21cd;" 
 />
    <glyph glyph-name="cid8815" unicode="&#x21cf;" 
 />
    <glyph glyph-name="cid8814" unicode="&#x21d0;" 
 />
    <glyph glyph-name="cid8854" unicode="&#x21d1;" 
 />
    <glyph glyph-name="cid8854" unicode="&#x2963;" 
 />
    <glyph glyph-name="cid195" unicode="&#x21d2;" 
 />
    <glyph glyph-name="cid8855" unicode="&#x21d3;" 
 />
    <glyph glyph-name="cid8855" unicode="&#x2965;" 
 />
    <glyph glyph-name="cid196" unicode="&#x21d4;" 
 />
    <glyph glyph-name="cid9190" unicode="&#x21e0;" 
 />
    <glyph glyph-name="cid9192" unicode="&#x21e1;" 
 />
    <glyph glyph-name="cid9191" unicode="&#x21e2;" 
 />
    <glyph glyph-name="cid9193" unicode="&#x21e3;" 
 />
    <glyph glyph-name="cid9198" unicode="&#x21e6;" 
 />
    <glyph glyph-name="cid9200" unicode="&#x21e7;" 
 />
    <glyph glyph-name="cid9199" unicode="&#x21e8;" 
 />
    <glyph glyph-name="cid9201" unicode="&#x21e9;" 
 />
    <glyph glyph-name="cid197" unicode="&#x2200;" 
 />
    <glyph glyph-name="cid151" unicode="&#x2202;" 
 />
    <glyph glyph-name="cid198" unicode="&#x2203;" 
 />
    <glyph glyph-name="cid8715" unicode="&#x2206;" 
 />
    <glyph glyph-name="cid152" unicode="&#x2207;" 
 />
    <glyph glyph-name="cid184" unicode="&#x2208;" 
 />
    <glyph glyph-name="cid8749" unicode="&#x2209;" 
 />
    <glyph glyph-name="cid185" unicode="&#x220b;" 
 />
    <glyph glyph-name="cid8750" unicode="&#x220c;" 
 />
    <glyph glyph-name="cid213" unicode="&#x220f;" 
 />
    <glyph glyph-name="cid212" unicode="&#x2211;" 
 />
    <glyph glyph-name="cid8726" unicode="&#x2213;" 
 />
    <glyph glyph-name="cid178" unicode="&#x221a;" 
 />
    <glyph glyph-name="cid180" unicode="&#x221d;" 
 />
    <glyph glyph-name="cid136" unicode="&#x221e;" 
 />
    <glyph glyph-name="cid8717" unicode="&#x221f;" 
 />
    <glyph glyph-name="cid148" unicode="&#x2220;" 
 />
    <glyph glyph-name="cid8738" unicode="&#x2222;" 
 />
    <glyph glyph-name="cid8719" unicode="&#x2225;" 
 />
    <glyph glyph-name="cid8720" unicode="&#x2226;" 
 />
    <glyph glyph-name="cid192" unicode="&#x2227;" 
 />
    <glyph glyph-name="cid193" unicode="&#x2228;" 
 />
    <glyph glyph-name="cid191" unicode="&#x2229;" 
 />
    <glyph glyph-name="cid190" unicode="&#x222a;" 
 />
    <glyph glyph-name="cid182" unicode="&#x222b;" 
 />
    <glyph glyph-name="cid183" unicode="&#x222c;" 
 />
    <glyph glyph-name="cid211" unicode="&#x222e;" 
 />
    <glyph glyph-name="cid137" unicode="&#x2234;" 
 />
    <glyph glyph-name="cid181" unicode="&#x2235;" 
 />
    <glyph glyph-name="cid8321" unicode="&#x2237;" 
 />
    <glyph glyph-name="cid113" unicode="&#x223c;" 
 />
    <glyph glyph-name="cid113" unicode="&#xff5e;" 
 />
    <glyph glyph-name="cid113" unicode="&#x301c;" 
 />
    <glyph glyph-name="cid179" unicode="&#x223d;" 
 />
    <glyph glyph-name="cid8500" unicode="&#x2243;" 
 />
    <glyph glyph-name="cid8499" unicode="&#x2245;" 
 />
    <glyph glyph-name="cid8501" unicode="&#x2248;" 
 />
    <glyph glyph-name="cid8739" unicode="&#x2250;" 
 />
    <glyph glyph-name="cid8723" unicode="&#x2251;" 
 />
    <glyph glyph-name="cid154" unicode="&#x2252;" 
 />
    <glyph glyph-name="cid8722" unicode="&#x2253;" 
 />
    <glyph glyph-name="cid8753" unicode="&#x225a;" 
 />
    <glyph glyph-name="cid133" unicode="&#x2260;" 
 />
    <glyph glyph-name="cid153" unicode="&#x2261;" 
 />
    <glyph glyph-name="cid8734" unicode="&#x2262;" 
 />
    <glyph glyph-name="cid134" unicode="&#x2264;" 
 />
    <glyph glyph-name="cid135" unicode="&#x2265;" 
 />
    <glyph glyph-name="cid8724" unicode="&#x2266;" 
 />
    <glyph glyph-name="cid8725" unicode="&#x2267;" 
 />
    <glyph glyph-name="cid8745" unicode="&#x226e;" 
 />
    <glyph glyph-name="cid8746" unicode="&#x226f;" 
 />
    <glyph glyph-name="cid8481" unicode="&#x2270;" 
 />
    <glyph glyph-name="cid8482" unicode="&#x2271;" 
 />
    <glyph glyph-name="cid8483" unicode="&#x2272;" 
 />
    <glyph glyph-name="cid8484" unicode="&#x2273;" 
 />
    <glyph glyph-name="cid8489" unicode="&#x2276;" 
 />
    <glyph glyph-name="cid8490" unicode="&#x2277;" 
 />
    <glyph glyph-name="cid8491" unicode="&#x2279;" 
 />
    <glyph glyph-name="cid8475" unicode="&#x227a;" 
 />
    <glyph glyph-name="cid8476" unicode="&#x227b;" 
 />
    <glyph glyph-name="cid8479" unicode="&#x2280;" 
 />
    <glyph glyph-name="cid8480" unicode="&#x2281;" 
 />
    <glyph glyph-name="cid188" unicode="&#x2282;" 
 />
    <glyph glyph-name="cid189" unicode="&#x2283;" 
 />
    <glyph glyph-name="cid8748" unicode="&#x2284;" 
 />
    <glyph glyph-name="cid8747" unicode="&#x2285;" 
 />
    <glyph glyph-name="cid186" unicode="&#x2286;" 
 />
    <glyph glyph-name="cid187" unicode="&#x2287;" 
 />
    <glyph glyph-name="cid8486" unicode="&#x228a;" 
 />
    <glyph glyph-name="cid8486" unicode="&#x2acb;" 
 />
    <glyph glyph-name="cid8488" unicode="&#x228b;" 
 />
    <glyph glyph-name="cid8488" unicode="&#x2acc;" 
 />
    <glyph glyph-name="cid8727" unicode="&#x2295;" 
 />
    <glyph glyph-name="cid8728" unicode="&#x2296;" 
 />
    <glyph glyph-name="cid8729" unicode="&#x2297;" 
 />
    <glyph glyph-name="cid227" unicode="&#x2299;" 
 />
    <glyph glyph-name="cid227" unicode="&#x25c9;" 
 />
    <glyph glyph-name="cid8742" unicode="&#x22a3;" 
 />
    <glyph glyph-name="cid8503" unicode="&#x22a4;" 
 />
    <glyph glyph-name="cid149" unicode="&#x22a5;" 
 />
    <glyph glyph-name="cid8751" unicode="&#x22bb;" 
 />
    <glyph glyph-name="cid8752" unicode="&#x22bc;" 
 />
    <glyph glyph-name="cid8477" unicode="&#x22ce;" 
 />
    <glyph glyph-name="cid8478" unicode="&#x22cf;" 
 />
    <glyph glyph-name="cid8492" unicode="&#x22da;" 
 />
    <glyph glyph-name="cid8493" unicode="&#x22db;" 
 />
    <glyph glyph-name="cid8320" unicode="&#x22ee;" 
 />
    <glyph glyph-name="cid8754" unicode="&#x2306;" 
 />
    <glyph glyph-name="cid150" unicode="&#x2312;" 
 />
    <glyph glyph-name="cid8731" unicode="&#x2314;" 
 />
    <glyph glyph-name="cid733" unicode="&#x2460;" 
 />
    <glyph glyph-name="cid734" unicode="&#x2461;" 
 />
    <glyph glyph-name="cid735" unicode="&#x2462;" 
 />
    <glyph glyph-name="cid736" unicode="&#x2463;" 
 />
    <glyph glyph-name="cid737" unicode="&#x2464;" 
 />
    <glyph glyph-name="cid738" unicode="&#x2465;" 
 />
    <glyph glyph-name="cid739" unicode="&#x2466;" 
 />
    <glyph glyph-name="cid740" unicode="&#x2467;" 
 />
    <glyph glyph-name="cid741" unicode="&#x2468;" 
 />
    <glyph glyph-name="cid742" unicode="&#x2469;" 
 />
    <glyph glyph-name="cid743" unicode="&#x246a;" 
 />
    <glyph glyph-name="cid744" unicode="&#x246b;" 
 />
    <glyph glyph-name="cid745" unicode="&#x246c;" 
 />
    <glyph glyph-name="cid746" unicode="&#x246d;" 
 />
    <glyph glyph-name="cid747" unicode="&#x246e;" 
 />
    <glyph glyph-name="cid8791" unicode="&#x246f;" 
 />
    <glyph glyph-name="cid8792" unicode="&#x2470;" 
 />
    <glyph glyph-name="cid8793" unicode="&#x2471;" 
 />
    <glyph glyph-name="cid8794" unicode="&#x2472;" 
 />
    <glyph glyph-name="cid8795" unicode="&#x2473;" 
 />
    <glyph glyph-name="cid827" unicode="&#x2474;" 
 />
    <glyph glyph-name="cid828" unicode="&#x2475;" 
 />
    <glyph glyph-name="cid829" unicode="&#x2476;" 
 />
    <glyph glyph-name="cid830" unicode="&#x2477;" 
 />
    <glyph glyph-name="cid831" unicode="&#x2478;" 
 />
    <glyph glyph-name="cid832" unicode="&#x2479;" 
 />
    <glyph glyph-name="cid833" unicode="&#x247a;" 
 />
    <glyph glyph-name="cid834" unicode="&#x247b;" 
 />
    <glyph glyph-name="cid835" unicode="&#x247c;" 
 />
    <glyph glyph-name="cid836" unicode="&#x247d;" 
 />
    <glyph glyph-name="cid837" unicode="&#x247e;" 
 />
    <glyph glyph-name="cid838" unicode="&#x247f;" 
 />
    <glyph glyph-name="cid839" unicode="&#x2480;" 
 />
    <glyph glyph-name="cid840" unicode="&#x2481;" 
 />
    <glyph glyph-name="cid841" unicode="&#x2482;" 
 />
    <glyph glyph-name="cid9042" unicode="&#x2483;" 
 />
    <glyph glyph-name="cid9043" unicode="&#x2484;" 
 />
    <glyph glyph-name="cid9044" unicode="&#x2485;" 
 />
    <glyph glyph-name="cid9045" unicode="&#x2486;" 
 />
    <glyph glyph-name="cid9046" unicode="&#x2487;" 
 />
    <glyph glyph-name="cid801" unicode="&#x249c;" 
 />
    <glyph glyph-name="cid802" unicode="&#x249d;" 
 />
    <glyph glyph-name="cid803" unicode="&#x249e;" 
 />
    <glyph glyph-name="cid804" unicode="&#x249f;" 
 />
    <glyph glyph-name="cid805" unicode="&#x24a0;" 
 />
    <glyph glyph-name="cid806" unicode="&#x24a1;" 
 />
    <glyph glyph-name="cid807" unicode="&#x24a2;" 
 />
    <glyph glyph-name="cid808" unicode="&#x24a3;" 
 />
    <glyph glyph-name="cid809" unicode="&#x24a4;" 
 />
    <glyph glyph-name="cid810" unicode="&#x24a5;" 
 />
    <glyph glyph-name="cid811" unicode="&#x24a6;" 
 />
    <glyph glyph-name="cid812" unicode="&#x24a7;" 
 />
    <glyph glyph-name="cid813" unicode="&#x24a8;" 
 />
    <glyph glyph-name="cid814" unicode="&#x24a9;" 
 />
    <glyph glyph-name="cid815" unicode="&#x24aa;" 
 />
    <glyph glyph-name="cid816" unicode="&#x24ab;" 
 />
    <glyph glyph-name="cid817" unicode="&#x24ac;" 
 />
    <glyph glyph-name="cid818" unicode="&#x24ad;" 
 />
    <glyph glyph-name="cid819" unicode="&#x24ae;" 
 />
    <glyph glyph-name="cid820" unicode="&#x24af;" 
 />
    <glyph glyph-name="cid821" unicode="&#x24b0;" 
 />
    <glyph glyph-name="cid822" unicode="&#x24b1;" 
 />
    <glyph glyph-name="cid823" unicode="&#x24b2;" 
 />
    <glyph glyph-name="cid824" unicode="&#x24b3;" 
 />
    <glyph glyph-name="cid825" unicode="&#x24b4;" 
 />
    <glyph glyph-name="cid826" unicode="&#x24b5;" 
 />
    <glyph glyph-name="cid8388" unicode="&#x24b6;" 
 />
    <glyph glyph-name="cid8389" unicode="&#x24b7;" 
 />
    <glyph glyph-name="cid8390" unicode="&#x24b8;" 
 />
    <glyph glyph-name="cid8391" unicode="&#x24b9;" 
 />
    <glyph glyph-name="cid8392" unicode="&#x24ba;" 
 />
    <glyph glyph-name="cid8393" unicode="&#x24bb;" 
 />
    <glyph glyph-name="cid8394" unicode="&#x24bc;" 
 />
    <glyph glyph-name="cid8395" unicode="&#x24bd;" 
 />
    <glyph glyph-name="cid8396" unicode="&#x24be;" 
 />
    <glyph glyph-name="cid8397" unicode="&#x24bf;" 
 />
    <glyph glyph-name="cid8398" unicode="&#x24c0;" 
 />
    <glyph glyph-name="cid8399" unicode="&#x24c1;" 
 />
    <glyph glyph-name="cid8400" unicode="&#x24c2;" 
 />
    <glyph glyph-name="cid8401" unicode="&#x24c3;" 
 />
    <glyph glyph-name="cid8402" unicode="&#x24c4;" 
 />
    <glyph glyph-name="cid8403" unicode="&#x24c5;" 
 />
    <glyph glyph-name="cid8404" unicode="&#x24c6;" 
 />
    <glyph glyph-name="cid8405" unicode="&#x24c7;" 
 />
    <glyph glyph-name="cid8406" unicode="&#x24c8;" 
 />
    <glyph glyph-name="cid8407" unicode="&#x24c9;" 
 />
    <glyph glyph-name="cid8408" unicode="&#x24ca;" 
 />
    <glyph glyph-name="cid8409" unicode="&#x24cb;" 
 />
    <glyph glyph-name="cid8410" unicode="&#x24cc;" 
 />
    <glyph glyph-name="cid8411" unicode="&#x24cd;" 
 />
    <glyph glyph-name="cid8412" unicode="&#x24ce;" 
 />
    <glyph glyph-name="cid8413" unicode="&#x24cf;" 
 />
    <glyph glyph-name="cid707" unicode="&#x24d0;" 
 />
    <glyph glyph-name="cid708" unicode="&#x24d1;" 
 />
    <glyph glyph-name="cid709" unicode="&#x24d2;" 
 />
    <glyph glyph-name="cid710" unicode="&#x24d3;" 
 />
    <glyph glyph-name="cid711" unicode="&#x24d4;" 
 />
    <glyph glyph-name="cid712" unicode="&#x24d5;" 
 />
    <glyph glyph-name="cid713" unicode="&#x24d6;" 
 />
    <glyph glyph-name="cid714" unicode="&#x24d7;" 
 />
    <glyph glyph-name="cid715" unicode="&#x24d8;" 
 />
    <glyph glyph-name="cid716" unicode="&#x24d9;" 
 />
    <glyph glyph-name="cid717" unicode="&#x24da;" 
 />
    <glyph glyph-name="cid718" unicode="&#x24db;" 
 />
    <glyph glyph-name="cid719" unicode="&#x24dc;" 
 />
    <glyph glyph-name="cid720" unicode="&#x24dd;" 
 />
    <glyph glyph-name="cid721" unicode="&#x24de;" 
 />
    <glyph glyph-name="cid722" unicode="&#x24df;" 
 />
    <glyph glyph-name="cid723" unicode="&#x24e0;" 
 />
    <glyph glyph-name="cid724" unicode="&#x24e1;" 
 />
    <glyph glyph-name="cid725" unicode="&#x24e2;" 
 />
    <glyph glyph-name="cid726" unicode="&#x24e3;" 
 />
    <glyph glyph-name="cid727" unicode="&#x24e4;" 
 />
    <glyph glyph-name="cid728" unicode="&#x24e5;" 
 />
    <glyph glyph-name="cid729" unicode="&#x24e6;" 
 />
    <glyph glyph-name="cid730" unicode="&#x24e7;" 
 />
    <glyph glyph-name="cid731" unicode="&#x24e8;" 
 />
    <glyph glyph-name="cid732" unicode="&#x24e9;" 
 />
    <glyph glyph-name="cid8683" unicode="&#x24eb;" 
 />
    <glyph glyph-name="cid8684" unicode="&#x24ec;" 
 />
    <glyph glyph-name="cid8685" unicode="&#x24ed;" 
 />
    <glyph glyph-name="cid8686" unicode="&#x24ee;" 
 />
    <glyph glyph-name="cid8687" unicode="&#x24ef;" 
 />
    <glyph glyph-name="cid8688" unicode="&#x24f0;" 
 />
    <glyph glyph-name="cid8689" unicode="&#x24f1;" 
 />
    <glyph glyph-name="cid8690" unicode="&#x24f2;" 
 />
    <glyph glyph-name="cid8691" unicode="&#x24f3;" 
 />
    <glyph glyph-name="cid8692" unicode="&#x24f4;" 
 />
    <glyph glyph-name="cid519" unicode="&#x2500;" 
 />
    <glyph glyph-name="cid530" unicode="&#x2501;" 
 />
    <glyph glyph-name="cid520" unicode="&#x2502;" 
 />
    <glyph glyph-name="cid531" unicode="&#x2503;" 
 />
    <glyph glyph-name="cid521" unicode="&#x250c;" 
 />
    <glyph glyph-name="cid558" unicode="&#x250d;" 
 />
    <glyph glyph-name="cid557" unicode="&#x250e;" 
 />
    <glyph glyph-name="cid532" unicode="&#x250f;" 
 />
    <glyph glyph-name="cid522" unicode="&#x2510;" 
 />
    <glyph glyph-name="cid552" unicode="&#x2511;" 
 />
    <glyph glyph-name="cid551" unicode="&#x2512;" 
 />
    <glyph glyph-name="cid533" unicode="&#x2513;" 
 />
    <glyph glyph-name="cid524" unicode="&#x2514;" 
 />
    <glyph glyph-name="cid556" unicode="&#x2515;" 
 />
    <glyph glyph-name="cid555" unicode="&#x2516;" 
 />
    <glyph glyph-name="cid535" unicode="&#x2517;" 
 />
    <glyph glyph-name="cid523" unicode="&#x2518;" 
 />
    <glyph glyph-name="cid554" unicode="&#x2519;" 
 />
    <glyph glyph-name="cid553" unicode="&#x251a;" 
 />
    <glyph glyph-name="cid534" unicode="&#x251b;" 
 />
    <glyph glyph-name="cid525" unicode="&#x251c;" 
 />
    <glyph glyph-name="cid546" unicode="&#x251d;" 
 />
    <glyph glyph-name="cid559" unicode="&#x251e;" 
 />
    <glyph glyph-name="cid560" unicode="&#x251f;" 
 />
    <glyph glyph-name="cid541" unicode="&#x2520;" 
 />
    <glyph glyph-name="cid561" unicode="&#x2521;" 
 />
    <glyph glyph-name="cid562" unicode="&#x2522;" 
 />
    <glyph glyph-name="cid536" unicode="&#x2523;" 
 />
    <glyph glyph-name="cid527" unicode="&#x2524;" 
 />
    <glyph glyph-name="cid548" unicode="&#x2525;" 
 />
    <glyph glyph-name="cid563" unicode="&#x2526;" 
 />
    <glyph glyph-name="cid564" unicode="&#x2527;" 
 />
    <glyph glyph-name="cid543" unicode="&#x2528;" 
 />
    <glyph glyph-name="cid565" unicode="&#x2529;" 
 />
    <glyph glyph-name="cid566" unicode="&#x252a;" 
 />
    <glyph glyph-name="cid538" unicode="&#x252b;" 
 />
    <glyph glyph-name="cid526" unicode="&#x252c;" 
 />
    <glyph glyph-name="cid567" unicode="&#x252d;" 
 />
    <glyph glyph-name="cid568" unicode="&#x252e;" 
 />
    <glyph glyph-name="cid542" unicode="&#x252f;" 
 />
    <glyph glyph-name="cid547" unicode="&#x2530;" 
 />
    <glyph glyph-name="cid569" unicode="&#x2531;" 
 />
    <glyph glyph-name="cid570" unicode="&#x2532;" 
 />
    <glyph glyph-name="cid537" unicode="&#x2533;" 
 />
    <glyph glyph-name="cid528" unicode="&#x2534;" 
 />
    <glyph glyph-name="cid571" unicode="&#x2535;" 
 />
    <glyph glyph-name="cid572" unicode="&#x2536;" 
 />
    <glyph glyph-name="cid544" unicode="&#x2537;" 
 />
    <glyph glyph-name="cid549" unicode="&#x2538;" 
 />
    <glyph glyph-name="cid573" unicode="&#x2539;" 
 />
    <glyph glyph-name="cid574" unicode="&#x253a;" 
 />
    <glyph glyph-name="cid539" unicode="&#x253b;" 
 />
    <glyph glyph-name="cid529" unicode="&#x253c;" 
 />
    <glyph glyph-name="cid575" unicode="&#x253d;" 
 />
    <glyph glyph-name="cid576" unicode="&#x253e;" 
 />
    <glyph glyph-name="cid545" unicode="&#x253f;" 
 />
    <glyph glyph-name="cid577" unicode="&#x2540;" 
 />
    <glyph glyph-name="cid578" unicode="&#x2541;" 
 />
    <glyph glyph-name="cid550" unicode="&#x2542;" 
 />
    <glyph glyph-name="cid579" unicode="&#x2543;" 
 />
    <glyph glyph-name="cid580" unicode="&#x2544;" 
 />
    <glyph glyph-name="cid581" unicode="&#x2545;" 
 />
    <glyph glyph-name="cid582" unicode="&#x2546;" 
 />
    <glyph glyph-name="cid583" unicode="&#x2547;" 
 />
    <glyph glyph-name="cid584" unicode="&#x2548;" 
 />
    <glyph glyph-name="cid585" unicode="&#x2549;" 
 />
    <glyph glyph-name="cid586" unicode="&#x254a;" 
 />
    <glyph glyph-name="cid540" unicode="&#x254b;" 
 />
    <glyph glyph-name="cid232" unicode="&#x2592;" 
 />
    <glyph glyph-name="cid165" unicode="&#x25a0;" 
 />
    <glyph glyph-name="cid164" unicode="&#x25a1;" 
 />
    <glyph glyph-name="cid229" unicode="&#x25a3;" 
 />
    <glyph glyph-name="cid233" unicode="&#x25a4;" 
 />
    <glyph glyph-name="cid234" unicode="&#x25a5;" 
 />
    <glyph glyph-name="cid237" unicode="&#x25a6;" 
 />
    <glyph glyph-name="cid236" unicode="&#x25a7;" 
 />
    <glyph glyph-name="cid235" unicode="&#x25a8;" 
 />
    <glyph glyph-name="cid238" unicode="&#x25a9;" 
 />
    <glyph glyph-name="cid8736" unicode="&#x25b1;" 
 />
    <glyph glyph-name="cid167" unicode="&#x25b2;" 
 />
    <glyph glyph-name="cid166" unicode="&#x25b3;" 
 />
    <glyph glyph-name="cid8780" unicode="&#x25b5;" 
 />
    <glyph glyph-name="cid220" unicode="&#x25b6;" 
 />
    <glyph glyph-name="cid219" unicode="&#x25b7;" 
 />
    <glyph glyph-name="cid8781" unicode="&#x25b9;" 
 />
    <glyph glyph-name="cid169" unicode="&#x25bc;" 
 />
    <glyph glyph-name="cid168" unicode="&#x25bd;" 
 />
    <glyph glyph-name="cid8779" unicode="&#x25bf;" 
 />
    <glyph glyph-name="cid218" unicode="&#x25c0;" 
 />
    <glyph glyph-name="cid217" unicode="&#x25c1;" 
 />
    <glyph glyph-name="cid8782" unicode="&#x25c3;" 
 />
    <glyph glyph-name="cid163" unicode="&#x25c6;" 
 />
    <glyph glyph-name="cid162" unicode="&#x25c7;" 
 />
    <glyph glyph-name="cid228" unicode="&#x25c8;" 
 />
    <glyph glyph-name="cid8787" unicode="&#x25ca;" 
 />
    <glyph glyph-name="cid159" unicode="&#x25cb;" 
 />
    <glyph glyph-name="cid8639" unicode="&#x25cc;" 
 />
    <glyph glyph-name="cid161" unicode="&#x25ce;" 
 />
    <glyph glyph-name="cid160" unicode="&#x25cf;" 
 />
    <glyph glyph-name="cid230" unicode="&#x25d0;" 
 />
    <glyph glyph-name="cid231" unicode="&#x25d1;" 
 />
    <glyph glyph-name="cid8775" unicode="&#x25e6;" 
 />
    <glyph glyph-name="cid8633" unicode="&#x25ef;" 
 />
    <glyph glyph-name="uni2605" unicode="&#x2605;" horiz-adv-x="902" 
d="M295 205q-18 12 -42.5 27.5t-49 31.5t-46 31.5t-34.5 27.5q-7 3 -9.5 9.5t-1 13.5t7 12.5t15.5 6.5q15 0 38 0.5t50 0.5h56h57q14 62 28 120t34 113q3 7 11 12t17.5 5.5t19 -4.5t14.5 -18q23 -59 37.5 -115t31.5 -113h207q15 0 27.5 -0.5t20.5 -14.5q7 -14 -1 -22
q-50 -40 -102.5 -74.5t-103.5 -74.5l53 -198q2 -23 -13 -30t-29 -2q-29 14 -67.5 48.5t-82.5 73.5q-14 -11 -29.5 -25.5t-31.5 -29.5t-30.5 -29t-27.5 -24q-6 -5 -18 -11t-24 -5t-20 12.5t-4 40.5q3 22 8 48t11 52.5l12 53t11 50.5z" />
    <glyph glyph-name="uni2606" unicode="&#x2606;" horiz-adv-x="902" 
d="M259 16q5 44 12 92t15 93q-32 33 -71.5 60.5t-76.5 59.5q-6 5 -9 12.5t-1.5 14.5t8 12.5t17.5 5.5q31 2 71.5 2h96.5q14 59 31.5 118t36.5 111q4 9 13.5 14t21.5 5q10 0 20.5 -6t15.5 -17q23 -58 40.5 -114t33.5 -111h61.5t73.5 0.5t62 0.5h28q9 0 16.5 -4t11 -10.5
t2.5 -14t-8 -12.5l-198 -151l46 -193q1 -25 -14 -32.5t-30 -1.5q-29 14 -66.5 43t-82.5 69l-106 -85q-7 -5 -19 -10t-23 -5q-13 0 -22.5 12t-6.5 42zM522 197l-34 123q-32 0 -61 -0.5t-58 -0.5q-7 -26 -13 -53t-11 -54q20 -20 43.5 -42.5t44.5 -42.5zM476 368
q-12 41 -25.5 80t-28.5 79l-43 -159h97zM547 321q6 -22 12 -43.5t11 -44.5q34 26 63 47t63 44zM473 91q49 -45 94 -75q-9 31 -16.5 61l-15.5 62q-16 -12 -31 -23.5t-31 -24.5zM315 34q22 16 41.5 31t39.5 32q-16 15 -30.5 30t-31.5 30zM297 258l13 60q-20 0 -41 -0.5
t-53 -0.5z" />
    <glyph glyph-name="cid241" unicode="&#x260e;" 
 />
    <glyph glyph-name="cid240" unicode="&#x260f;" 
 />
    <glyph glyph-name="cid242" unicode="&#x261c;" 
 />
    <glyph glyph-name="cid9222" unicode="&#x261d;" 
 />
    <glyph glyph-name="cid243" unicode="&#x261e;" 
 />
    <glyph glyph-name="cid9223" unicode="&#x261f;" 
 />
    <glyph glyph-name="cid8664" unicode="&#x262f;" 
 />
    <glyph glyph-name="cid147" unicode="&#x2640;" 
 />
    <glyph glyph-name="cid146" unicode="&#x2642;" 
 />
    <glyph glyph-name="cid222" unicode="&#x2660;" 
 />
    <glyph glyph-name="uni2661" unicode="&#x2661;" horiz-adv-x="902" 
d="M255 573q35 0 63.5 -9.5t52 -26t42 -38.5t33.5 -47q9 21 26.5 42.5t41 39.5t51 29.5t56.5 11.5q53 0 89 -19t58 -47.5t32 -62t11 -61.5q1 -32 -7.5 -61.5t-23 -56.5t-33.5 -51t-40 -44q-35 -34 -69 -62.5t-67 -54t-66.5 -51t-67.5 -53.5q-6 -4 -13 -7t-13.5 -3t-12 3.5
t-7.5 13.5q-2 13 -6 26t-11 24q-22 47 -64.5 83t-87.5 72q-26 20 -50.5 41.5t-44 46.5t-32.5 53t-16 62q-4 35 6.5 71.5t33.5 66.5t57.5 49.5t78.5 19.5zM471 370q-8 -17 -22.5 -8.5t-23.5 26.5q-11 23 -28 47t-39 43t-48 30.5t-56 9.5q-29 -2 -51 -15t-37 -33.5t-22.5 -46
t-6.5 -53.5q0 -28 12 -52.5t30 -45.5t40 -40t42 -37q21 -18 44 -36.5t45 -38t41.5 -41t32.5 -46.5q2 -5 3 -9t3 -8q31 26 61 47.5l60 43t59.5 46.5t59.5 58q16 17 32 38t28.5 44t20 47t6.5 47q-2 21 -8.5 44t-22 42.5t-41.5 32t-65 12.5q-20 0 -40 -9.5t-38 -24.5
t-31.5 -33.5t-20.5 -35.5q-4 -9 -7.5 -18.5t-11.5 -26.5z" />
    <glyph glyph-name="cid226" unicode="&#x2663;" 
 />
    <glyph glyph-name="cid221" unicode="&#x2664;" 
 />
    <glyph glyph-name="heart" unicode="&#x2665;" horiz-adv-x="902" 
d="M255 573q35 0 63.5 -10t52 -28t42 -42.5t33.5 -52.5q9 24 26.5 48.5t41 43.5t51 31t56.5 12q53 0 89 -19t58 -47.5t32 -62t11 -61.5q1 -32 -7.5 -60.5t-23 -54.5t-33.5 -49t-40 -44q-35 -34 -69.5 -63t-68.5 -56t-68 -53t-68 -54q-6 -4 -12 -7t-12 -3t-11 3.5t-7 13.5
q-2 13 -6 26t-11 24q-22 47 -64.5 83t-87.5 72q-26 20 -50.5 41.5t-44 46.5t-32.5 53t-16 62q-4 35 5 71.5t31.5 66.5t57.5 49.5t82 19.5z" />
    <glyph glyph-name="cid225" unicode="&#x2667;" 
 />
    <glyph glyph-name="cid239" unicode="&#x2668;" 
 />
    <glyph glyph-name="cid253" unicode="&#x2669;" 
 />
    <glyph glyph-name="cid254" unicode="&#x266a;" 
 />
    <glyph glyph-name="cid255" unicode="&#x266c;" 
 />
    <glyph glyph-name="cid252" unicode="&#x266d;" 
 />
    <glyph glyph-name="cid8594" unicode="&#x266f;" 
 />
    <glyph glyph-name="cid8631" unicode="&#x2716;" 
 />
    <glyph glyph-name="cid8630" unicode="&#x271a;" 
 />
    <glyph glyph-name="cid8604" unicode="&#x273d;" 
 />
    <glyph glyph-name="cid8637" unicode="&#x2756;" 
 />
    <glyph glyph-name="cid8673" unicode="&#x2776;" 
 />
    <glyph glyph-name="cid8674" unicode="&#x2777;" 
 />
    <glyph glyph-name="cid8675" unicode="&#x2778;" 
 />
    <glyph glyph-name="cid8676" unicode="&#x2779;" 
 />
    <glyph glyph-name="cid8677" unicode="&#x277a;" 
 />
    <glyph glyph-name="cid8678" unicode="&#x277b;" 
 />
    <glyph glyph-name="cid8679" unicode="&#x277c;" 
 />
    <glyph glyph-name="cid8680" unicode="&#x277d;" 
 />
    <glyph glyph-name="cid8681" unicode="&#x277e;" 
 />
    <glyph glyph-name="cid8682" unicode="&#x277f;" 
 />
    <glyph glyph-name="cid8342" unicode="&#x278a;" 
 />
    <glyph glyph-name="cid8343" unicode="&#x278b;" 
 />
    <glyph glyph-name="cid8344" unicode="&#x278c;" 
 />
    <glyph glyph-name="cid8345" unicode="&#x278d;" 
 />
    <glyph glyph-name="cid8346" unicode="&#x278e;" 
 />
    <glyph glyph-name="cid8347" unicode="&#x278f;" 
 />
    <glyph glyph-name="cid8348" unicode="&#x2790;" 
 />
    <glyph glyph-name="cid8349" unicode="&#x2791;" 
 />
    <glyph glyph-name="cid8350" unicode="&#x2792;" 
 />
    <glyph glyph-name="cid8351" unicode="&#x2793;" 
 />
    <glyph glyph-name="cid8485" unicode="&#x2ac5;" 
 />
    <glyph glyph-name="cid8487" unicode="&#x2ac6;" 
 />
    <glyph glyph-name="cid6460" unicode="&#x2f00;" 
 />
    <glyph glyph-name="cid6460" unicode="&#x4e00;" 
 />
    <glyph glyph-name="cid6380" unicode="&#x2f04;" 
 />
    <glyph glyph-name="cid6380" unicode="&#x4e59;" 
 />
    <glyph glyph-name="cid6413" unicode="&#x2f06;" 
 />
    <glyph glyph-name="cid6413" unicode="&#x4e8c;" 
 />
    <glyph glyph-name="cid6443" unicode="&#x2f08;" 
 />
    <glyph glyph-name="cid6443" unicode="&#x4eba;" 
 />
    <glyph glyph-name="cid6477" unicode="&#x2f0a;" 
 />
    <glyph glyph-name="cid6477" unicode="&#x5165;" 
 />
    <glyph glyph-name="cid7499" unicode="&#x2f0b;" 
 />
    <glyph glyph-name="cid7499" unicode="&#x516b;" 
 />
    <glyph glyph-name="cid4270" unicode="&#x2f11;" 
 />
    <glyph glyph-name="cid4270" unicode="&#x5200;" 
 />
    <glyph glyph-name="cid4458" unicode="&#x2f12;" 
 />
    <glyph glyph-name="cid4458" unicode="&#xf98a;" 
 />
    <glyph glyph-name="cid4458" unicode="&#x529b;" 
 />
    <glyph glyph-name="cid5183" unicode="&#x2f14;" 
 />
    <glyph glyph-name="cid5183" unicode="&#x5315;" 
 />
    <glyph glyph-name="cid5772" unicode="&#x2f17;" 
 />
    <glyph glyph-name="cid5772" unicode="&#x5341;" 
 />
    <glyph glyph-name="cid5077" unicode="&#x2f18;" 
 />
    <glyph glyph-name="cid5077" unicode="&#x535c;" 
 />
    <glyph glyph-name="cid6201" unicode="&#x2f1c;" 
 />
    <glyph glyph-name="cid6201" unicode="&#x53c8;" 
 />
    <glyph glyph-name="cid3901" unicode="&#x2f1d;" 
 />
    <glyph glyph-name="cid3901" unicode="&#x53e3;" 
 />
    <glyph glyph-name="cid7451" unicode="&#x2f1f;" 
 />
    <glyph glyph-name="cid7451" unicode="&#x571f;" 
 />
    <glyph glyph-name="cid5255" unicode="&#x2f20;" 
 />
    <glyph glyph-name="cid5255" unicode="&#x58eb;" 
 />
    <glyph glyph-name="cid5403" unicode="&#x2f23;" 
 />
    <glyph glyph-name="cid5403" unicode="&#x5915;" 
 />
    <glyph glyph-name="cid4253" unicode="&#x2f24;" 
 />
    <glyph glyph-name="cid4253" unicode="&#x5927;" 
 />
    <glyph glyph-name="cid4159" unicode="&#x2f25;" 
 />
    <glyph glyph-name="cid4159" unicode="&#xf981;" 
 />
    <glyph glyph-name="cid4159" unicode="&#x5973;" 
 />
    <glyph glyph-name="cid6488" unicode="&#x2f26;" 
 />
    <glyph glyph-name="cid6488" unicode="&#x5b50;" 
 />
    <glyph glyph-name="cid7247" unicode="&#x2f28;" 
 />
    <glyph glyph-name="cid7247" unicode="&#x5bf8;" 
 />
    <glyph glyph-name="cid5504" unicode="&#x2f29;" 
 />
    <glyph glyph-name="cid5504" unicode="&#x5c0f;" 
 />
    <glyph glyph-name="cid5697" unicode="&#x2f2b;" 
 />
    <glyph glyph-name="cid5697" unicode="&#x5c38;" 
 />
    <glyph glyph-name="cid5305" unicode="&#x2f2d;" 
 />
    <glyph glyph-name="cid5305" unicode="&#x5c71;" 
 />
    <glyph glyph-name="cid3791" unicode="&#x2f2f;" 
 />
    <glyph glyph-name="cid3791" unicode="&#x5de5;" 
 />
    <glyph glyph-name="cid4077" unicode="&#x2f30;" 
 />
    <glyph glyph-name="cid4077" unicode="&#x5df1;" 
 />
    <glyph glyph-name="cid3604" unicode="&#x2f31;" 
 />
    <glyph glyph-name="cid3604" unicode="&#x5dfe;" 
 />
    <glyph glyph-name="cid3481" unicode="&#x2f32;" 
 />
    <glyph glyph-name="cid3481" unicode="&#x5e72;" 
 />
    <glyph glyph-name="cid3964" unicode="&#x2f38;" 
 />
    <glyph glyph-name="cid3964" unicode="&#x5f13;" 
 />
    <glyph glyph-name="cid5764" unicode="&#x2f3c;" 
 />
    <glyph glyph-name="cid5764" unicode="&#x5fc3;" 
 />
    <glyph glyph-name="cid3804" unicode="&#x2f3d;" 
 />
    <glyph glyph-name="cid3804" unicode="&#x6208;" 
 />
    <glyph glyph-name="cid7808" unicode="&#x2f3e;" 
 />
    <glyph glyph-name="cid7808" unicode="&#x6236;" 
 />
    <glyph glyph-name="cid5580" unicode="&#x2f3f;" 
 />
    <glyph glyph-name="cid5580" unicode="&#x624b;" 
 />
    <glyph glyph-name="cid6951" unicode="&#x2f40;" 
 />
    <glyph glyph-name="cid6951" unicode="&#x652f;" 
 />
    <glyph glyph-name="cid4840" unicode="&#x2f42;" 
 />
    <glyph glyph-name="cid4840" unicode="&#x6587;" 
 />
    <glyph glyph-name="cid4349" unicode="&#x2f43;" 
 />
    <glyph glyph-name="cid4349" unicode="&#x6597;" 
 />
    <glyph glyph-name="cid4027" unicode="&#x2f44;" 
 />
    <glyph glyph-name="cid4027" unicode="&#x65a4;" 
 />
    <glyph glyph-name="cid4950" unicode="&#x2f45;" 
 />
    <glyph glyph-name="cid4950" unicode="&#x65b9;" 
 />
    <glyph glyph-name="cid4819" unicode="&#x2f46;" 
 />
    <glyph glyph-name="cid4819" unicode="&#x65e0;" 
 />
    <glyph glyph-name="cid6464" unicode="&#x2f47;" 
 />
    <glyph glyph-name="cid6464" unicode="&#x65e5;" 
 />
    <glyph glyph-name="cid6125" unicode="&#x2f48;" 
 />
    <glyph glyph-name="cid6125" unicode="&#x66f0;" 
 />
    <glyph glyph-name="cid6281" unicode="&#x2f49;" 
 />
    <glyph glyph-name="cid6281" unicode="&#x6708;" 
 />
    <glyph glyph-name="cid4788" unicode="&#x2f4a;" 
 />
    <glyph glyph-name="cid4788" unicode="&#x6728;" 
 />
    <glyph glyph-name="cid8027" unicode="&#x2f4b;" 
 />
    <glyph glyph-name="cid8027" unicode="&#x6b20;" 
 />
    <glyph glyph-name="cid6956" unicode="&#x2f4c;" 
 />
    <glyph glyph-name="cid6956" unicode="&#x6b62;" 
 />
    <glyph glyph-name="cid4822" unicode="&#x2f4f;" 
 />
    <glyph glyph-name="cid4822" unicode="&#x6bcb;" 
 />
    <glyph glyph-name="cid5196" unicode="&#x2f50;" 
 />
    <glyph glyph-name="cid5196" unicode="&#x6bd4;" 
 />
    <glyph glyph-name="cid4776" unicode="&#x2f51;" 
 />
    <glyph glyph-name="cid4776" unicode="&#x6bdb;" 
 />
    <glyph glyph-name="cid5774" unicode="&#x2f52;" 
 />
    <glyph glyph-name="cid5774" unicode="&#x6c0f;" 
 />
    <glyph glyph-name="cid5587" unicode="&#x2f54;" 
 />
    <glyph glyph-name="cid5587" unicode="&#x6c34;" 
 />
    <glyph glyph-name="cid7867" unicode="&#x2f55;" 
 />
    <glyph glyph-name="cid7867" unicode="&#x706b;" 
 />
    <glyph glyph-name="cid6803" unicode="&#x2f56;" 
 />
    <glyph glyph-name="cid6803" unicode="&#x722a;" 
 />
    <glyph glyph-name="cid5129" unicode="&#x2f57;" 
 />
    <glyph glyph-name="cid5129" unicode="&#x7236;" 
 />
    <glyph glyph-name="cid7962" unicode="&#x2f58;" 
 />
    <glyph glyph-name="cid7962" unicode="&#x723b;" 
 />
    <glyph glyph-name="cid7521" unicode="&#x2f5a;" 
 />
    <glyph glyph-name="cid7521" unicode="&#x7247;" 
 />
    <glyph glyph-name="cid5782" unicode="&#x2f5b;" 
 />
    <glyph glyph-name="cid5782" unicode="&#x7259;" 
 />
    <glyph glyph-name="cid6210" unicode="&#x2f5c;" 
 />
    <glyph glyph-name="cid6210" unicode="&#x725b;" 
 />
    <glyph glyph-name="cid3639" unicode="&#x2f5d;" 
 />
    <glyph glyph-name="cid3639" unicode="&#x72ac;" 
 />
    <glyph glyph-name="cid7741" unicode="&#x2f5e;" 
 />
    <glyph glyph-name="cid7741" unicode="&#x7384;" 
 />
    <glyph glyph-name="cid6081" unicode="&#x2f5f;" 
 />
    <glyph glyph-name="cid6081" unicode="&#x7389;" 
 />
    <glyph glyph-name="cid3806" unicode="&#x2f60;" 
 />
    <glyph glyph-name="cid3806" unicode="&#x74dc;" 
 />
    <glyph glyph-name="cid6100" unicode="&#x2f61;" 
 />
    <glyph glyph-name="cid6100" unicode="&#x74e6;" 
 />
    <glyph glyph-name="cid3521" unicode="&#x2f62;" 
 />
    <glyph glyph-name="cid3521" unicode="&#x7518;" 
 />
    <glyph glyph-name="cid5370" unicode="&#x2f63;" 
 />
    <glyph glyph-name="cid5370" unicode="&#x751f;" 
 />
    <glyph glyph-name="cid6189" unicode="&#x2f64;" 
 />
    <glyph glyph-name="cid6189" unicode="&#x7528;" 
 />
    <glyph glyph-name="cid6664" unicode="&#x2f65;" 
 />
    <glyph glyph-name="cid6664" unicode="&#x7530;" 
 />
    <glyph glyph-name="cid7610" unicode="&#x2f66;" 
 />
    <glyph glyph-name="cid7610" unicode="&#x758b;" 
 />
    <glyph glyph-name="cid4993" unicode="&#x2f69;" 
 />
    <glyph glyph-name="cid4993" unicode="&#x767d;" 
 />
    <glyph glyph-name="cid7600" unicode="&#x2f6a;" 
 />
    <glyph glyph-name="cid7600" unicode="&#x76ae;" 
 />
    <glyph glyph-name="cid4755" unicode="&#x2f6b;" 
 />
    <glyph glyph-name="cid4755" unicode="&#x76bf;" 
 />
    <glyph glyph-name="cid4791" unicode="&#x2f6c;" 
 />
    <glyph glyph-name="cid4791" unicode="&#x76ee;" 
 />
    <glyph glyph-name="cid4781" unicode="&#x2f6d;" 
 />
    <glyph glyph-name="cid4781" unicode="&#x77db;" 
 />
    <glyph glyph-name="cid5709" unicode="&#x2f6e;" 
 />
    <glyph glyph-name="cid5709" unicode="&#x77e2;" 
 />
    <glyph glyph-name="cid5413" unicode="&#x2f6f;" 
 />
    <glyph glyph-name="cid5413" unicode="&#x77f3;" 
 />
    <glyph glyph-name="cid5710" unicode="&#x2f70;" 
 />
    <glyph glyph-name="cid5710" unicode="&#x793a;" 
 />
    <glyph glyph-name="cid7870" unicode="&#x2f72;" 
 />
    <glyph glyph-name="cid7870" unicode="&#x79be;" 
 />
    <glyph glyph-name="cid7755" unicode="&#x2f73;" 
 />
    <glyph glyph-name="cid7755" unicode="&#x7a74;" 
 />
    <glyph glyph-name="cid4653" unicode="&#x2f74;" 
 />
    <glyph glyph-name="cid4653" unicode="&#xf9f7;" 
 />
    <glyph glyph-name="cid4653" unicode="&#x7acb;" 
 />
    <glyph glyph-name="cid6900" unicode="&#x2f75;" 
 />
    <glyph glyph-name="cid6900" unicode="&#x7af9;" 
 />
    <glyph glyph-name="cid4863" unicode="&#x2f76;" 
 />
    <glyph glyph-name="cid4863" unicode="&#x7c73;" 
 />
    <glyph glyph-name="cid5132" unicode="&#x2f78;" 
 />
    <glyph glyph-name="cid5132" unicode="&#x7f36;" 
 />
    <glyph glyph-name="cid5896" unicode="&#x2f7a;" 
 />
    <glyph glyph-name="cid5896" unicode="&#x7f8a;" 
 />
    <glyph glyph-name="cid6218" unicode="&#x2f7b;" 
 />
    <glyph glyph-name="cid6218" unicode="&#x7fbd;" 
 />
    <glyph glyph-name="cid4519" unicode="&#x2f7c;" 
 />
    <glyph glyph-name="cid4519" unicode="&#xf934;" 
 />
    <glyph glyph-name="cid4519" unicode="&#x8001;" 
 />
    <glyph glyph-name="cid6427" unicode="&#x2f7d;" 
 />
    <glyph glyph-name="cid6427" unicode="&#x800c;" 
 />
    <glyph glyph-name="cid6428" unicode="&#x2f7f;" 
 />
    <glyph glyph-name="cid6428" unicode="&#x8033;" 
 />
    <glyph glyph-name="cid6368" unicode="&#x2f80;" 
 />
    <glyph glyph-name="cid6368" unicode="&#x807f;" 
 />
    <glyph glyph-name="cid6357" unicode="&#x2f81;" 
 />
    <glyph glyph-name="cid6357" unicode="&#x8089;" 
 />
    <glyph glyph-name="cid5749" unicode="&#x2f82;" 
 />
    <glyph glyph-name="cid5749" unicode="&#x81e3;" 
 />
    <glyph glyph-name="cid6502" unicode="&#x2f83;" 
 />
    <glyph glyph-name="cid6502" unicode="&#x81ea;" 
 />
    <glyph glyph-name="cid6967" unicode="&#x2f84;" 
 />
    <glyph glyph-name="cid6967" unicode="&#x81f3;" 
 />
    <glyph glyph-name="cid3930" unicode="&#x2f85;" 
 />
    <glyph glyph-name="cid3930" unicode="&#x81fc;" 
 />
    <glyph glyph-name="cid5456" unicode="&#x2f86;" 
 />
    <glyph glyph-name="cid5456" unicode="&#x820c;" 
 />
    <glyph glyph-name="cid7158" unicode="&#x2f87;" 
 />
    <glyph glyph-name="cid7158" unicode="&#x821b;" 
 />
    <glyph glyph-name="cid6888" unicode="&#x2f88;" 
 />
    <glyph glyph-name="cid6888" unicode="&#x821f;" 
 />
    <glyph glyph-name="cid3496" unicode="&#x2f89;" 
 />
    <glyph glyph-name="cid3496" unicode="&#x826e;" 
 />
    <glyph glyph-name="cid5368" unicode="&#x2f8a;" 
 />
    <glyph glyph-name="cid5368" unicode="&#x8272;" 
 />
    <glyph glyph-name="cid7232" unicode="&#x2f8b;" 
 />
    <glyph glyph-name="cid7232" unicode="&#x8278;" 
 />
    <glyph glyph-name="cid7756" unicode="&#x2f8e;" 
 />
    <glyph glyph-name="cid7756" unicode="&#x8840;" 
 />
    <glyph glyph-name="cid7709" unicode="&#x2f8f;" 
 />
    <glyph glyph-name="cid7709" unicode="&#xfa08;" 
 />
    <glyph glyph-name="cid7709" unicode="&#x884c;" 
 />
    <glyph glyph-name="cid6409" unicode="&#x2f90;" 
 />
    <glyph glyph-name="cid6409" unicode="&#x8863;" 
 />
    <glyph glyph-name="cid3644" unicode="&#x2f92;" 
 />
    <glyph glyph-name="cid3644" unicode="&#xfa0a;" 
 />
    <glyph glyph-name="cid3644" unicode="&#x898b;" 
 />
    <glyph glyph-name="cid3474" unicode="&#x2f93;" 
 />
    <glyph glyph-name="cid3474" unicode="&#x89d2;" 
 />
    <glyph glyph-name="cid5921" unicode="&#x2f94;" 
 />
    <glyph glyph-name="cid5921" unicode="&#x8a00;" 
 />
    <glyph glyph-name="cid3772" unicode="&#x2f95;" 
 />
    <glyph glyph-name="cid3772" unicode="&#x8c37;" 
 />
    <glyph glyph-name="cid4355" unicode="&#x2f96;" 
 />
    <glyph glyph-name="cid4355" unicode="&#x8c46;" 
 />
    <glyph glyph-name="cid5718" unicode="&#x2f97;" 
 />
    <glyph glyph-name="cid5718" unicode="&#x8c55;" 
 />
    <glyph glyph-name="cid7512" unicode="&#x2f99;" 
 />
    <glyph glyph-name="cid7512" unicode="&#x8c9d;" 
 />
    <glyph glyph-name="cid6636" unicode="&#x2f9a;" 
 />
    <glyph glyph-name="cid6636" unicode="&#x8d64;" 
 />
    <glyph glyph-name="cid6892" unicode="&#x2f9b;" 
 />
    <glyph glyph-name="cid6892" unicode="&#x8d70;" 
 />
    <glyph glyph-name="cid6830" unicode="&#x2f9c;" 
 />
    <glyph glyph-name="cid6830" unicode="&#x8db3;" 
 />
    <glyph glyph-name="cid5755" unicode="&#x2f9d;" 
 />
    <glyph glyph-name="cid5755" unicode="&#x8eab;" 
 />
    <glyph glyph-name="cid7053" unicode="&#x2f9e;" 
 />
    <glyph glyph-name="cid7053" unicode="&#xf902;" 
 />
    <glyph glyph-name="cid7053" unicode="&#x8eca;" 
 />
    <glyph glyph-name="cid5756" unicode="&#x2f9f;" 
 />
    <glyph glyph-name="cid5756" unicode="&#x8f9b;" 
 />
    <glyph glyph-name="cid7009" unicode="&#x2fa0;" 
 />
    <glyph glyph-name="cid7009" unicode="&#xf971;" 
 />
    <glyph glyph-name="cid7009" unicode="&#x8fb0;" 
 />
    <glyph glyph-name="cid6389" unicode="&#x2fa2;" 
 />
    <glyph glyph-name="cid6389" unicode="&#x9091;" 
 />
    <glyph glyph-name="cid6352" unicode="&#x2fa3;" 
 />
    <glyph glyph-name="cid6352" unicode="&#x9149;" 
 />
    <glyph glyph-name="cid4634" unicode="&#x2fa5;" 
 />
    <glyph glyph-name="cid4634" unicode="&#xf9e9;" 
 />
    <glyph glyph-name="cid4634" unicode="&#x91cc;" 
 />
    <glyph glyph-name="cid4131" unicode="&#x2fa6;" 
 />
    <glyph glyph-name="cid4131" unicode="&#xf90a;" 
 />
    <glyph glyph-name="cid4131" unicode="&#x91d1;" 
 />
    <glyph glyph-name="cid6568" unicode="&#x2fa7;" 
 />
    <glyph glyph-name="cid6568" unicode="&#x9577;" 
 />
    <glyph glyph-name="cid4846" unicode="&#x2fa8;" 
 />
    <glyph glyph-name="cid4846" unicode="&#x9580;" 
 />
    <glyph glyph-name="cid5147" unicode="&#x2fa9;" 
 />
    <glyph glyph-name="cid5147" unicode="&#x961c;" 
 />
    <glyph glyph-name="cid6227" unicode="&#x2fac;" 
 />
    <glyph glyph-name="cid6227" unicode="&#x96e8;" 
 />
    <glyph glyph-name="cid7203" unicode="&#x2fad;" 
 />
    <glyph glyph-name="cid7203" unicode="&#x9751;" 
 />
    <glyph glyph-name="cid5220" unicode="&#x2fae;" 
 />
    <glyph glyph-name="cid5220" unicode="&#x975e;" 
 />
    <glyph glyph-name="cid4744" unicode="&#x2faf;" 
 />
    <glyph glyph-name="cid4744" unicode="&#x9762;" 
 />
    <glyph glyph-name="cid7733" unicode="&#x2fb0;" 
 />
    <glyph glyph-name="cid7733" unicode="&#x9769;" 
 />
    <glyph glyph-name="cid6307" unicode="&#x2fb1;" 
 />
    <glyph glyph-name="cid6307" unicode="&#x97cb;" 
 />
    <glyph glyph-name="cid6385" unicode="&#x2fb3;" 
 />
    <glyph glyph-name="cid6385" unicode="&#x97f3;" 
 />
    <glyph glyph-name="cid7757" unicode="&#x2fb4;" 
 />
    <glyph glyph-name="cid7757" unicode="&#x9801;" 
 />
    <glyph glyph-name="cid7595" unicode="&#x2fb5;" 
 />
    <glyph glyph-name="cid7595" unicode="&#x98a8;" 
 />
    <glyph glyph-name="cid5221" unicode="&#x2fb6;" 
 />
    <glyph glyph-name="cid5221" unicode="&#x98db;" 
 />
    <glyph glyph-name="cid5733" unicode="&#x2fb7;" 
 />
    <glyph glyph-name="cid5733" unicode="&#x98df;" 
 />
    <glyph glyph-name="cid5625" unicode="&#x2fb8;" 
 />
    <glyph glyph-name="cid5625" unicode="&#x9996;" 
 />
    <glyph glyph-name="cid7718" unicode="&#x2fb9;" 
 />
    <glyph glyph-name="cid7718" unicode="&#x9999;" 
 />
    <glyph glyph-name="cid4661" unicode="&#x2fba;" 
 />
    <glyph glyph-name="cid4661" unicode="&#x99ac;" 
 />
    <glyph glyph-name="cid3785" unicode="&#x2fbb;" 
 />
    <glyph glyph-name="cid3785" unicode="&#x9aa8;" 
 />
    <glyph glyph-name="cid3765" unicode="&#x2fbc;" 
 />
    <glyph glyph-name="cid3765" unicode="&#x9ad8;" 
 />
    <glyph glyph-name="cid3993" unicode="&#x2fc1;" 
 />
    <glyph glyph-name="cid3993" unicode="&#x9b3c;" 
 />
    <glyph glyph-name="cid5910" unicode="&#x2fc2;" 
 />
    <glyph glyph-name="cid5910" unicode="&#x9b5a;" 
 />
    <glyph glyph-name="cid6827" unicode="&#x2fc3;" 
 />
    <glyph glyph-name="cid6827" unicode="&#x9ce5;" 
 />
    <glyph glyph-name="cid4527" unicode="&#x2fc4;" 
 />
    <glyph glyph-name="cid4527" unicode="&#x9e75;" 
 />
    <glyph glyph-name="cid4533" unicode="&#x2fc5;" 
 />
    <glyph glyph-name="cid4533" unicode="&#xf940;" 
 />
    <glyph glyph-name="cid4533" unicode="&#x9e7f;" 
 />
    <glyph glyph-name="cid4726" unicode="&#x2fc6;" 
 />
    <glyph glyph-name="cid4726" unicode="&#x9ea5;" 
 />
    <glyph glyph-name="cid4663" unicode="&#x2fc7;" 
 />
    <glyph glyph-name="cid4663" unicode="&#x9ebb;" 
 />
    <glyph glyph-name="cid7927" unicode="&#x2fc8;" 
 />
    <glyph glyph-name="cid7927" unicode="&#x9ec3;" 
 />
    <glyph glyph-name="cid5401" unicode="&#x2fc9;" 
 />
    <glyph glyph-name="cid5401" unicode="&#x9ecd;" 
 />
    <glyph glyph-name="cid8018" unicode="&#x2fca;" 
 />
    <glyph glyph-name="cid8018" unicode="&#x9ed1;" 
 />
    <glyph glyph-name="cid6758" unicode="&#x2fcd;" 
 />
    <glyph glyph-name="cid6758" unicode="&#x9f0e;" 
 />
    <glyph glyph-name="cid3766" unicode="&#x2fce;" 
 />
    <glyph glyph-name="cid3766" unicode="&#x9f13;" 
 />
    <glyph glyph-name="cid5402" unicode="&#x2fcf;" 
 />
    <glyph glyph-name="cid5402" unicode="&#x9f20;" 
 />
    <glyph glyph-name="cid5222" unicode="&#x2fd0;" 
 />
    <glyph glyph-name="cid5222" unicode="&#x9f3b;" 
 />
    <glyph glyph-name="cid6781" unicode="&#x2fd1;" 
 />
    <glyph glyph-name="cid6781" unicode="&#x9f4a;" 
 />
    <glyph glyph-name="cid7359" unicode="&#x2fd2;" 
 />
    <glyph glyph-name="cid7359" unicode="&#x9f52;" 
 />
    <glyph glyph-name="cid4563" unicode="&#x2fd3;" 
 />
    <glyph glyph-name="cid4563" unicode="&#xf9c4;" 
 />
    <glyph glyph-name="cid4563" unicode="&#x9f8d;" 
 />
    <glyph glyph-name="cid3946" unicode="&#x2fd4;" 
 />
    <glyph glyph-name="cid3946" unicode="&#xf908;" 
 />
    <glyph glyph-name="cid3946" unicode="&#xf907;" 
 />
    <glyph glyph-name="cid3946" unicode="&#x9f9c;" 
 />
    <glyph glyph-name="cid101" unicode="&#x3000;" 
 />
    <glyph glyph-name="cid101" unicode="&#x3164;" 
 />
    <glyph glyph-name="cid102" unicode="&#x3001;" 
 />
    <glyph glyph-name="cid103" unicode="&#x3002;" 
 />
    <glyph glyph-name="cid108" unicode="&#x3003;" 
 />
    <glyph glyph-name="cid120" unicode="&#x3008;" 
 />
    <glyph glyph-name="cid121" unicode="&#x3009;" 
 />
    <glyph glyph-name="cid122" unicode="&#x300a;" 
 />
    <glyph glyph-name="cid123" unicode="&#x300b;" 
 />
    <glyph glyph-name="cid124" unicode="&#x300c;" 
 />
    <glyph glyph-name="cid125" unicode="&#x300d;" 
 />
    <glyph glyph-name="cid126" unicode="&#x300e;" 
 />
    <glyph glyph-name="cid127" unicode="&#x300f;" 
 />
    <glyph glyph-name="cid128" unicode="&#x3010;" 
 />
    <glyph glyph-name="cid129" unicode="&#x3011;" 
 />
    <glyph glyph-name="cid8700" unicode="&#x3012;" 
 />
    <glyph glyph-name="cid175" unicode="&#x3013;" 
 />
    <glyph glyph-name="cid119" unicode="&#x3015;" 
 />
    <glyph glyph-name="cid8219" unicode="&#x3016;" 
 />
    <glyph glyph-name="cid8220" unicode="&#x3017;" 
 />
    <glyph glyph-name="cid8221" unicode="&#x3018;" 
 />
    <glyph glyph-name="cid8222" unicode="&#x3019;" 
 />
    <glyph glyph-name="cid9322" unicode="&#x301e;" 
 />
    <glyph glyph-name="cid9323" unicode="&#x301f;" 
 />
    <glyph glyph-name="cid8671" unicode="&#x3020;" 
 />
    <glyph glyph-name="cid8701" unicode="&#x3036;" 
 />
    <glyph glyph-name="cid851" unicode="&#x3041;" 
 />
    <glyph glyph-name="cid852" unicode="&#x3042;" 
 />
    <glyph glyph-name="cid853" unicode="&#x3043;" 
 />
    <glyph glyph-name="cid854" unicode="&#x3044;" 
 />
    <glyph glyph-name="cid855" unicode="&#x3045;" 
 />
    <glyph glyph-name="cid856" unicode="&#x3046;" 
 />
    <glyph glyph-name="cid857" unicode="&#x3047;" 
 />
    <glyph glyph-name="cid858" unicode="&#x3048;" 
 />
    <glyph glyph-name="cid859" unicode="&#x3049;" 
 />
    <glyph glyph-name="cid860" unicode="&#x304a;" 
 />
    <glyph glyph-name="cid861" unicode="&#x304b;" 
 />
    <glyph glyph-name="cid862" unicode="&#x304c;" 
 />
    <glyph glyph-name="cid863" unicode="&#x304d;" 
 />
    <glyph glyph-name="cid864" unicode="&#x304e;" 
 />
    <glyph glyph-name="cid865" unicode="&#x304f;" 
 />
    <glyph glyph-name="cid866" unicode="&#x3050;" 
 />
    <glyph glyph-name="cid867" unicode="&#x3051;" 
 />
    <glyph glyph-name="cid868" unicode="&#x3052;" 
 />
    <glyph glyph-name="cid869" unicode="&#x3053;" 
 />
    <glyph glyph-name="cid870" unicode="&#x3054;" 
 />
    <glyph glyph-name="cid871" unicode="&#x3055;" 
 />
    <glyph glyph-name="cid872" unicode="&#x3056;" 
 />
    <glyph glyph-name="cid873" unicode="&#x3057;" 
 />
    <glyph glyph-name="cid874" unicode="&#x3058;" 
 />
    <glyph glyph-name="cid875" unicode="&#x3059;" 
 />
    <glyph glyph-name="cid876" unicode="&#x305a;" 
 />
    <glyph glyph-name="cid877" unicode="&#x305b;" 
 />
    <glyph glyph-name="cid878" unicode="&#x305c;" 
 />
    <glyph glyph-name="cid879" unicode="&#x305d;" 
 />
    <glyph glyph-name="cid880" unicode="&#x305e;" 
 />
    <glyph glyph-name="cid881" unicode="&#x305f;" 
 />
    <glyph glyph-name="cid882" unicode="&#x3060;" 
 />
    <glyph glyph-name="cid883" unicode="&#x3061;" 
 />
    <glyph glyph-name="cid884" unicode="&#x3062;" 
 />
    <glyph glyph-name="cid885" unicode="&#x3063;" 
 />
    <glyph glyph-name="cid886" unicode="&#x3064;" 
 />
    <glyph glyph-name="cid887" unicode="&#x3065;" 
 />
    <glyph glyph-name="cid888" unicode="&#x3066;" 
 />
    <glyph glyph-name="cid889" unicode="&#x3067;" 
 />
    <glyph glyph-name="cid890" unicode="&#x3068;" 
 />
    <glyph glyph-name="cid891" unicode="&#x3069;" 
 />
    <glyph glyph-name="cid892" unicode="&#x306a;" 
 />
    <glyph glyph-name="cid893" unicode="&#x306b;" 
 />
    <glyph glyph-name="cid894" unicode="&#x306c;" 
 />
    <glyph glyph-name="cid895" unicode="&#x306d;" 
 />
    <glyph glyph-name="cid896" unicode="&#x306e;" 
 />
    <glyph glyph-name="cid897" unicode="&#x306f;" 
 />
    <glyph glyph-name="cid898" unicode="&#x3070;" 
 />
    <glyph glyph-name="cid899" unicode="&#x3071;" 
 />
    <glyph glyph-name="cid900" unicode="&#x3072;" 
 />
    <glyph glyph-name="cid901" unicode="&#x3073;" 
 />
    <glyph glyph-name="cid902" unicode="&#x3074;" 
 />
    <glyph glyph-name="cid903" unicode="&#x3075;" 
 />
    <glyph glyph-name="cid904" unicode="&#x3076;" 
 />
    <glyph glyph-name="cid905" unicode="&#x3077;" 
 />
    <glyph glyph-name="cid906" unicode="&#x3078;" 
 />
    <glyph glyph-name="cid907" unicode="&#x3079;" 
 />
    <glyph glyph-name="cid908" unicode="&#x307a;" 
 />
    <glyph glyph-name="cid909" unicode="&#x307b;" 
 />
    <glyph glyph-name="cid910" unicode="&#x307c;" 
 />
    <glyph glyph-name="cid911" unicode="&#x307d;" 
 />
    <glyph glyph-name="cid912" unicode="&#x307e;" 
 />
    <glyph glyph-name="cid913" unicode="&#x307f;" 
 />
    <glyph glyph-name="cid914" unicode="&#x3080;" 
 />
    <glyph glyph-name="cid915" unicode="&#x3081;" 
 />
    <glyph glyph-name="cid916" unicode="&#x3082;" 
 />
    <glyph glyph-name="cid917" unicode="&#x3083;" 
 />
    <glyph glyph-name="cid918" unicode="&#x3084;" 
 />
    <glyph glyph-name="cid919" unicode="&#x3085;" 
 />
    <glyph glyph-name="cid920" unicode="&#x3086;" 
 />
    <glyph glyph-name="cid921" unicode="&#x3087;" 
 />
    <glyph glyph-name="cid922" unicode="&#x3088;" 
 />
    <glyph glyph-name="cid923" unicode="&#x3089;" 
 />
    <glyph glyph-name="cid924" unicode="&#x308a;" 
 />
    <glyph glyph-name="cid925" unicode="&#x308b;" 
 />
    <glyph glyph-name="cid926" unicode="&#x308c;" 
 />
    <glyph glyph-name="cid927" unicode="&#x308d;" 
 />
    <glyph glyph-name="cid928" unicode="&#x308e;" 
 />
    <glyph glyph-name="cid929" unicode="&#x308f;" 
 />
    <glyph glyph-name="cid930" unicode="&#x3090;" 
 />
    <glyph glyph-name="cid931" unicode="&#x3091;" 
 />
    <glyph glyph-name="cid932" unicode="&#x3092;" 
 />
    <glyph glyph-name="cid933" unicode="&#x3093;" 
 />
    <glyph glyph-name="cid934" unicode="&#x30a1;" 
 />
    <glyph glyph-name="cid935" unicode="&#x30a2;" 
 />
    <glyph glyph-name="cid936" unicode="&#x30a3;" 
 />
    <glyph glyph-name="cid937" unicode="&#x30a4;" 
 />
    <glyph glyph-name="cid938" unicode="&#x30a5;" 
 />
    <glyph glyph-name="cid939" unicode="&#x30a6;" 
 />
    <glyph glyph-name="cid940" unicode="&#x30a7;" 
 />
    <glyph glyph-name="cid941" unicode="&#x30a8;" 
 />
    <glyph glyph-name="cid942" unicode="&#x30a9;" 
 />
    <glyph glyph-name="cid943" unicode="&#x30aa;" 
 />
    <glyph glyph-name="cid944" unicode="&#x30ab;" 
 />
    <glyph glyph-name="cid945" unicode="&#x30ac;" 
 />
    <glyph glyph-name="cid946" unicode="&#x30ad;" 
 />
    <glyph glyph-name="cid947" unicode="&#x30ae;" 
 />
    <glyph glyph-name="cid948" unicode="&#x30af;" 
 />
    <glyph glyph-name="cid949" unicode="&#x30b0;" 
 />
    <glyph glyph-name="cid950" unicode="&#x30b1;" 
 />
    <glyph glyph-name="cid951" unicode="&#x30b2;" 
 />
    <glyph glyph-name="cid952" unicode="&#x30b3;" 
 />
    <glyph glyph-name="cid953" unicode="&#x30b4;" 
 />
    <glyph glyph-name="cid954" unicode="&#x30b5;" 
 />
    <glyph glyph-name="cid955" unicode="&#x30b6;" 
 />
    <glyph glyph-name="cid956" unicode="&#x30b7;" 
 />
    <glyph glyph-name="cid957" unicode="&#x30b8;" 
 />
    <glyph glyph-name="cid958" unicode="&#x30b9;" 
 />
    <glyph glyph-name="cid959" unicode="&#x30ba;" 
 />
    <glyph glyph-name="cid960" unicode="&#x30bb;" 
 />
    <glyph glyph-name="cid961" unicode="&#x30bc;" 
 />
    <glyph glyph-name="cid962" unicode="&#x30bd;" 
 />
    <glyph glyph-name="cid963" unicode="&#x30be;" 
 />
    <glyph glyph-name="cid964" unicode="&#x30bf;" 
 />
    <glyph glyph-name="cid965" unicode="&#x30c0;" 
 />
    <glyph glyph-name="cid966" unicode="&#x30c1;" 
 />
    <glyph glyph-name="cid967" unicode="&#x30c2;" 
 />
    <glyph glyph-name="cid968" unicode="&#x30c3;" 
 />
    <glyph glyph-name="cid969" unicode="&#x30c4;" 
 />
    <glyph glyph-name="cid970" unicode="&#x30c5;" 
 />
    <glyph glyph-name="cid971" unicode="&#x30c6;" 
 />
    <glyph glyph-name="cid972" unicode="&#x30c7;" 
 />
    <glyph glyph-name="cid973" unicode="&#x30c8;" 
 />
    <glyph glyph-name="cid974" unicode="&#x30c9;" 
 />
    <glyph glyph-name="cid975" unicode="&#x30ca;" 
 />
    <glyph glyph-name="cid976" unicode="&#x30cb;" 
 />
    <glyph glyph-name="cid977" unicode="&#x30cc;" 
 />
    <glyph glyph-name="cid978" unicode="&#x30cd;" 
 />
    <glyph glyph-name="cid979" unicode="&#x30ce;" 
 />
    <glyph glyph-name="cid980" unicode="&#x30cf;" 
 />
    <glyph glyph-name="cid981" unicode="&#x30d0;" 
 />
    <glyph glyph-name="cid982" unicode="&#x30d1;" 
 />
    <glyph glyph-name="cid983" unicode="&#x30d2;" 
 />
    <glyph glyph-name="cid984" unicode="&#x30d3;" 
 />
    <glyph glyph-name="cid985" unicode="&#x30d4;" 
 />
    <glyph glyph-name="cid986" unicode="&#x30d5;" 
 />
    <glyph glyph-name="cid987" unicode="&#x30d6;" 
 />
    <glyph glyph-name="cid988" unicode="&#x30d7;" 
 />
    <glyph glyph-name="cid989" unicode="&#x30d8;" 
 />
    <glyph glyph-name="cid990" unicode="&#x30d9;" 
 />
    <glyph glyph-name="cid991" unicode="&#x30da;" 
 />
    <glyph glyph-name="cid992" unicode="&#x30db;" 
 />
    <glyph glyph-name="cid993" unicode="&#x30dc;" 
 />
    <glyph glyph-name="cid994" unicode="&#x30dd;" 
 />
    <glyph glyph-name="cid995" unicode="&#x30de;" 
 />
    <glyph glyph-name="cid996" unicode="&#x30df;" 
 />
    <glyph glyph-name="cid997" unicode="&#x30e0;" 
 />
    <glyph glyph-name="cid998" unicode="&#x30e1;" 
 />
    <glyph glyph-name="cid999" unicode="&#x30e2;" 
 />
    <glyph glyph-name="cid1000" unicode="&#x30e3;" 
 />
    <glyph glyph-name="cid1001" unicode="&#x30e4;" 
 />
    <glyph glyph-name="cid1002" unicode="&#x30e5;" 
 />
    <glyph glyph-name="cid1003" unicode="&#x30e6;" 
 />
    <glyph glyph-name="cid1004" unicode="&#x30e7;" 
 />
    <glyph glyph-name="cid1005" unicode="&#x30e8;" 
 />
    <glyph glyph-name="cid1006" unicode="&#x30e9;" 
 />
    <glyph glyph-name="cid1007" unicode="&#x30ea;" 
 />
    <glyph glyph-name="cid1008" unicode="&#x30eb;" 
 />
    <glyph glyph-name="cid1009" unicode="&#x30ec;" 
 />
    <glyph glyph-name="cid1010" unicode="&#x30ed;" 
 />
    <glyph glyph-name="cid1011" unicode="&#x30ee;" 
 />
    <glyph glyph-name="cid1012" unicode="&#x30ef;" 
 />
    <glyph glyph-name="cid1013" unicode="&#x30f0;" 
 />
    <glyph glyph-name="cid1014" unicode="&#x30f1;" 
 />
    <glyph glyph-name="cid1015" unicode="&#x30f2;" 
 />
    <glyph glyph-name="cid1016" unicode="&#x30f3;" 
 />
    <glyph glyph-name="cid1017" unicode="&#x30f4;" 
 />
    <glyph glyph-name="cid1018" unicode="&#x30f5;" 
 />
    <glyph glyph-name="cid1019" unicode="&#x30f6;" 
 />
    <glyph glyph-name="cid9330" unicode="&#x30fc;" 
 />
    <glyph glyph-name="uni3131" unicode="&#x3131;" 
d="M676 110q-4 -15 -18 -23.5t-29 -9t-26.5 8t-10.5 28.5q2 32 3.5 63t2 64t0 69.5t-1.5 79.5q-42 0 -86 -1.5t-86 -3t-81 -3t-70 -0.5q-19 -2 -28 10t-9 26.5t9 27t26 13.5q33 3 83 5t103 3t101.5 1t78.5 -1q20 2 34 -13.5t12 -35.5q0 -9 0.5 -44.5t0 -82t-2 -96
t-5.5 -85.5z" />
    <glyph glyph-name="uni3132" unicode="&#x3132;" 
d="M185 376q-19 2 -28.5 12.5t-11.5 22.5q-2 15 4.5 27t29.5 14q30 1 54 2t47 2t48.5 1.5t60.5 1.5q24 1 36 -13t11 -31q-2 -36 -5.5 -82.5t-8 -93.5t-10 -89t-11.5 -69q-8 -18 -22.5 -25t-28.5 -5t-24 14t-6 33q4 22 9 61.5t8.5 82t6.5 81.5t5 59q-31 -1 -73.5 -3t-90.5 -3
zM506 344q-21 2 -30.5 14.5t-9 26.5t11.5 25.5t32 12.5q34 1 60 2t51 2t51 2t61 2q34 -3 34 -35q0 -35 -2 -78.5t-4.5 -87t-4.5 -83t-3 -67.5q-1 -16 -15 -25t-31 -9q-14 0 -25.5 9t-11.5 29q3 20 5 56.5t3.5 76t3 76t3.5 56.5q-36 0 -59.5 -1t-42.5 -1.5t-36 -1.5t-41 -1z
" />
    <glyph glyph-name="uni3133" unicode="&#x3133;" 
d="M572 453q8 13 22 17t28 1t23.5 -12.5t8.5 -24.5q-4 -18 -10.5 -44t-16.5 -58q42 -58 73 -105.5t63 -87.5q11 -14 8 -29.5t-13 -26.5t-24.5 -14t-26.5 9q-22 31 -47.5 70t-62.5 89q-14 -40 -30.5 -83t-36.5 -87q-5 -8 -11 -10t-11 -3q-10 -1 -20 3t-17.5 11t-11 16t0.5 18
q15 43 26 74t20 56t16 46.5t14 46t15.5 55t20.5 73.5zM185 376q-19 2 -28.5 12.5t-11.5 22.5q-2 15 4.5 27t29.5 14q30 1 54 2t47 2t48.5 1.5t60.5 1.5q24 1 36 -13t11 -31q-2 -36 -5.5 -82.5t-8 -93.5t-10 -89t-11.5 -69q-8 -18 -22.5 -25t-28.5 -5t-24 14t-6 33
q4 22 9 61.5t8.5 82t6.5 81.5t5 59q-31 -1 -73.5 -3t-90.5 -3z" />
    <glyph glyph-name="uni3134" unicode="&#x3134;" 
d="M280 406q3 15 16.5 22t28.5 6.5t27 -8.5t12 -23q-2 -26 -4 -60t-4 -66.5t-3.5 -59.5t-2.5 -40q85 2 154 5.5t134 9.5q18 2 28 -8t12 -24t-5 -27t-24 -16q-33 -4 -78.5 -7.5t-93.5 -6t-92.5 -4t-74.5 -1.5q-20 -2 -34.5 12.5t-12.5 35.5q-2 6 -0.5 35t4 68t6.5 81.5
t7 75.5z" />
    <glyph glyph-name="uni3135" unicode="&#x3135;" 
d="M475 337q-21 4 -30 16.5t-7.5 26t13.5 23.5t33 10q25 0 46 1t41.5 1.5t42.5 1t51 -0.5q23 -5 29 -23.5t-5 -33.5q-10 -25 -22.5 -48t-26.5 -45q29 -26 51 -50t45 -47q10 -10 12 -20t-1 -18t-9.5 -14.5t-12.5 -8.5q-11 -3 -23 0t-23 15q-15 16 -35 39.5t-44 45.5
q-16 -21 -31.5 -42t-32.5 -41q-14 -16 -29 -17t-26 7.5t-14 24t8 33.5q35 44 67 82t55 85q-35 -2 -66 -3.5t-56 0.5zM209 406q-1 17 12.5 27t30 11.5t29.5 -7t12 -27.5q0 -17 -0.5 -49t-1.5 -67.5t-2 -68t-1 -49.5q8 0 26 1t39 2t40 2t28 2q16 0 24.5 -10.5t8.5 -23.5
t-8.5 -25t-26.5 -15q-17 -1 -41 -2.5t-50 -2.5t-51.5 -0.5t-45.5 3.5q-13 8 -19.5 16t-8.5 23q0 20 1 55.5t2 74t2 74t1 56.5z" />
    <glyph glyph-name="uni3136" unicode="&#x3136;" 
d="M203 396q-1 17 12.5 27t30 11.5t29.5 -7t12 -27.5q0 -17 -0.5 -49t-1.5 -67.5t-2 -68t-1 -49.5h27.5h42t43.5 0.5t30 1.5q16 0 24.5 -10.5t8.5 -23.5t-8.5 -25t-26.5 -15q-17 -1 -42.5 -1.5t-53.5 -0.5t-55 1t-47 4q-13 8 -19.5 16t-8.5 23q0 20 1 55.5t2 74t2 74t1 56.5
zM570 323q2 1 8.5 2.5t14.5 2t16.5 0t14.5 -3.5q27 -11 47 -40.5t22 -77.5q1 -18 -3.5 -39.5t-15.5 -40.5t-28.5 -32.5t-41.5 -15.5q-20 -2 -38.5 3.5t-34 16.5t-26 26.5t-12.5 35.5q-5 52 15 97.5t62 65.5zM491 346q-16 1 -23.5 10.5t-6.5 20t9 19.5t24 10h74
q1 18 1.5 34.5t0.5 25.5q0 17 11.5 25t24.5 6q10 -2 17.5 -8.5t7.5 -19.5q0 -11 -0.5 -28t-0.5 -35h75q13 -4 19.5 -13t6 -18.5t-7.5 -18t-21 -10.5h-211zM627 190q1 32 -8.5 51t-22.5 28q-11 -4 -17.5 -14.5t-10.5 -23t-5 -26t0 -24.5q2 -20 13 -31t29 -8q14 3 18 19.5
t4 28.5z" />
    <glyph glyph-name="uni3137" unicode="&#x3137;" 
d="M228 366q-17 3 -22 15t-1 25.5t16 24.5t29 12q45 0 95 -0.5t101 -1.5t101 -1.5t95 -1.5q16 0 22 -10t4.5 -22.5t-10.5 -24.5t-24 -15q-55 1 -119.5 0.5t-129.5 -0.5q-1 -24 -3.5 -48t-4.5 -50t-4.5 -56t-3.5 -66q85 2 156.5 15.5t134.5 21.5q18 4 28.5 -6t12 -24
t-5.5 -28t-24 -17q-33 -8 -79 -15t-94.5 -13t-93.5 -9.5t-75 -3.5q-20 -2 -34.5 12.5t-12.5 35.5q-2 5 -0.5 32t4 64t6 78.5t6.5 76.5h-70v0z" />
    <glyph glyph-name="uni3138" unicode="&#x3138;" 
d="M199 379q-17 3 -22 15t-1 25.5t16 24.5t29 12q45 0 66.5 -0.5t38.5 -1.5t38.5 -1.5t66.5 -1.5q16 0 22 -10t4.5 -22.5t-10.5 -24.5t-24 -15q-40 1 -60 1t-38 -1q-1 -20 -3 -40.5t-4.5 -43t-4.5 -48.5t-3 -58q10 0 31.5 1t46 3.5t47.5 4.5t37 4q2 30 5 68t5 75h-7
q-17 2 -22 14t-1.5 26t15 25t28.5 12h66.5h38.5t38.5 -0.5t66.5 -0.5q14 1 20 -7t7 -19q2 -15 -7 -30t-26 -16q-23 -2 -53 -2.5t-76 -1.5q-1 -18 -2.5 -35.5t-3 -37t-3 -43.5t-2.5 -57q11 0 35.5 1.5t51.5 4t51 5t34 3.5q18 4 28.5 -6t12 -24t-5.5 -28t-24 -17
q-12 -3 -42 -6.5t-64.5 -5.5t-67 -4t-49.5 -2q-33 2 -43 31q-19 -3 -47.5 -5t-58.5 -4t-57.5 -3.5t-42.5 -1.5q-41 2 -47 48q-2 5 -1 27.5t3.5 54t6 68.5t6.5 71h-39v0z" />
    <glyph glyph-name="uni3139" unicode="&#x3139;" 
d="M285 222q-20 2 -29.5 14t-8.5 26t11.5 25t30.5 12q55 0 126 1t138 2q2 25 3.5 50.5t3.5 60.5q-26 1 -60.5 1t-71.5 -1t-72.5 -1.5t-62.5 -1.5q-19 2 -28.5 13.5t-9.5 24.5q0 14 10.5 26t31.5 13q25 1 65 2t84 1.5t86 0t71 -3.5q14 -4 23.5 -11.5t13.5 -21.5
q2 -38 -0.5 -74.5t-6.5 -76.5h10q18 -1 25 -13.5t8 -23.5q1 -14 -8 -27.5t-29 -12.5q-54 0 -120 -1.5t-130 -2.5l-1 -84q63 0 131.5 3.5t134.5 4.5q21 -2 28.5 -10t9.5 -19q2 -14 -5.5 -29t-30.5 -16q-38 -1 -82.5 -2.5t-87.5 -3t-82 -1.5t-67 3q-13 8 -19.5 16t-8.5 23
v11.5t0.5 27t1 36.5t1.5 40h-27v0z" />
    <glyph glyph-name="uni313A" unicode="&#x313a;" 
d="M215 394q-18 2 -27.5 12t-10.5 23q-2 15 9 25.5t33 11.5q48 2 94.5 3.5t94.5 1.5q23 1 34 -7t11 -45q0 -15 -1 -45.5t-3 -60.5q11 -8 15.5 -18.5t2 -21.5t-11.5 -19.5t-24 -11.5q-27 -1 -46 -1.5t-35 -1.5t-30 -1.5t-30 -0.5q1 -26 1 -51.5v-48.5q58 0 105.5 2t96.5 3
q16 0 24 -10t7.5 -23t-9 -24.5t-26.5 -14.5q-34 0 -64 -1t-60 -1.5t-60 0.5t-64 4q-14 3 -20.5 13.5t-7.5 25.5q0 29 0.5 60.5t1.5 63.5q-19 3 -28 15t-8.5 25.5t11.5 24.5t31 12q2 0 17.5 1t38.5 1.5t50 1.5t53 2q2 23 2.5 45t-0.5 36q-16 0 -40 -0.5t-48.5 -1.5t-46 -1.5
t-32.5 -1.5zM644 124q-2 30 -2.5 65t-1 71t-0.5 72v67q-12 -1 -28 -1.5t-32.5 -0.5h-32.5h-27q-18 2 -27.5 12t-10.5 23q-2 15 9 25.5t33 11.5q48 2 85 1t63 1q23 1 34 -9.5t11 -47.5q0 -63 1 -140.5t3 -146.5q0 -10 -6 -17t-14.5 -11t-18 -5.5t-16.5 -0.5q-22 3 -22 31z
" />
    <glyph glyph-name="uni313B" unicode="&#x313b;" 
d="M499 387q2 16 15.5 29.5t28.5 12.5q1 0 2 -0.5t2 -0.5q2 0 2.5 0.5t2.5 0.5q48 2 84 2.5t62 2.5q23 1 34 -9.5t11 -47.5q0 -63 -3 -126t-1 -132q0 -9 -6.5 -16t-15 -11.5t-18.5 -6.5t-17 -1l-131 -3q-18 0 -29 7.5t-17 19.5t-7.5 27.5t-1.5 32.5q1 23 1 52t-0.5 58.5
t0 57.5t2.5 51zM214 379q-18 2 -27.5 12t-10.5 23q-2 15 9 28t33 14q48 2 92 3.5t92 1.5q23 1 34 -9.5t11 -47.5q0 -21 -0.5 -54.5t-3.5 -62.5q5 -15 -3.5 -30.5t-30.5 -19.5l-137 -5l-2 -85q8 0 28.5 0.5t43.5 1t44.5 1t30.5 1.5q16 0 24 -11t7.5 -24.5t-9 -26t-26.5 -15.5
q-17 -1 -42 -1.5t-51.5 -0.5t-53 1t-46.5 4q-13 8 -19.5 16t-8.5 23q0 30 2 59.5t3 59.5q-12 7 -16.5 18.5t-1.5 23.5t13 20.5t28 9.5q2 0 17 1t37.5 2t49 2t51.5 1q1 20 1.5 38.5t-0.5 32.5q-16 0 -39 -0.5t-47 -1.5t-44.5 -1.5t-31.5 -1.5zM676 357q-20 -2 -50 -2.5
t-56 -1.5v-58v-55.5t-0.5 -48.5t-0.5 -35l103 3q1 46 2.5 96.5t1.5 101.5z" />
    <glyph glyph-name="uni313C" unicode="&#x313c;" 
d="M658 412q0 17 5.5 22.5t19.5 5.5q6 0 15.5 -1t18 -3.5t14.5 -7.5t6 -13q1 -57 0 -100.5t-3 -78.5t-5 -66.5t-6 -64.5q0 -10 -6.5 -17t-15.5 -11t-19.5 -5.5t-17.5 -0.5q-4 0 -5 1l-114 -4q-18 0 -29.5 7t-17.5 18.5t-7.5 27.5t-0.5 34q1 23 1.5 54t0.5 63t1 62t3 53
q2 16 15.5 29.5t28.5 12.5q14 -1 20.5 -7t6.5 -20v-86l91 4q1 22 0.5 44t-0.5 48zM250 374q-37 5 -38 30q-2 15 9 28t33 14q24 1 39 1.5t28 1.5t28 1.5t39 0.5q23 1 37 -9.5t14 -47.5q0 -20 -0.5 -49t-2.5 -57q6 -8 7 -17.5t-2.5 -18.5t-12 -16t-21.5 -9q-31 -1 -48 -2
t-28 -1.5t-21.5 -1t-27.5 -1.5q-1 -22 -1.5 -43.5t-0.5 -41.5q8 0 27.5 0.5t42 1t43.5 1t30 1.5q16 0 24 -11t7.5 -24.5t-9 -26t-26.5 -15.5q-17 -1 -40.5 -1.5t-48 -0.5t-49.5 1t-45 4q-13 8 -19.5 16t-8.5 23q0 29 1.5 59.5t3.5 61.5q-12 6 -16.5 18t-1.5 23.5t13 20
t28 9.5q2 0 15 1t31.5 2t41.5 2t46 1q2 43 0 76q-32 -1 -65 -2t-55 -3zM565 244q-1 -32 -1.5 -59.5t-0.5 -41.5l84 3q6 44 9 102z" />
    <glyph glyph-name="uni313D" unicode="&#x313d;" 
d="M232 386q-37 5 -38 30q-2 15 9 28t33 14q24 1 39 1.5t28 1.5t28 1.5t39 0.5q23 1 37 -9.5t14 -47.5q0 -20 -0.5 -54.5t-3.5 -63.5q14 -16 6 -36t-34 -25q-30 -1 -47 -2t-28.5 -1.5t-21.5 -1t-28 -1.5q-1 -22 -1.5 -43.5t-0.5 -41.5q8 0 27.5 0.5t42 1t43.5 1t30 1.5
q16 0 24 -11t7.5 -24.5t-9 -26t-26.5 -15.5q-17 -1 -40.5 -1.5t-48 -0.5t-49.5 1t-45 4q-13 8 -19.5 16t-8.5 23q0 29 1.5 59.5t3.5 61.5q-12 6 -16.5 18t-1.5 23.5t13 20t28 9.5q2 0 15 1t31.5 2t41.5 2t46 1q1 24 1 47.5t-1 40.5q-32 -1 -65 -2t-55 -3zM572 453
q8 13 22 17t28 1t23.5 -12.5t8.5 -24.5q-4 -18 -10.5 -44t-16.5 -58q42 -58 73 -105.5t63 -87.5q11 -14 8 -29.5t-13 -26.5t-24.5 -14t-26.5 9q-22 31 -47.5 70t-62.5 89q-14 -40 -30.5 -83t-36.5 -87q-5 -8 -11 -10t-11 -3q-10 -1 -20 3t-17.5 11t-11 16t0.5 18
q15 43 26 74t20 56t16 46.5t14 46t15.5 55t20.5 73.5z" />
    <glyph glyph-name="uni313E" unicode="&#x313e;" 
d="M680 378q-23 -2 -61 -2.5t-72 -1.5l-3 -77q31 2 65 2t53 -1q18 -2 26.5 -12.5t7.5 -24.5q-2 -29 -38 -29h-61.5t-54.5 -2v-78h36.5t45.5 1t42.5 1.5t27.5 1.5q18 2 27 -10.5t8 -25.5q-1 -14 -11 -27.5t-28 -13.5q-28 -1 -52 -1.5t-46.5 0t-46 1.5t-50.5 3q-12 2 -18 8.5
t-9 18.5q-3 26 -3.5 60t0 71.5t2 74.5t3.5 69q-8 7 -10 17.5t1.5 20t13.5 16t26 7.5q10 0 34.5 1t52.5 2.5t54.5 2t41.5 0.5q20 -1 26 -11.5t7 -21.5q1 -14 -8 -27.5t-29 -12.5zM231 379q-18 2 -27.5 12t-10.5 23q-2 15 9 28t33 14q24 1 39.5 1.5t29.5 1.5t29.5 1.5
t39.5 0.5q23 1 34 -9.5t11 -47.5q0 -20 -0.5 -54t-3.5 -64q6 -8 7.5 -17t-2 -18t-12 -16t-21.5 -9q-30 -1 -47 -2t-28.5 -1.5t-21.5 -1t-28 -1.5q-1 -19 -1.5 -37.5t-0.5 -37.5q8 0 25.5 0.5t37.5 1t38.5 1t27.5 1.5q16 0 24 -11t7.5 -24.5t-9 -26t-26.5 -15.5
q-35 -2 -81.5 -2t-87.5 5q-13 8 -19.5 16t-8.5 23q0 28 1 55.5t3 55.5q-12 6 -16 18t-1 23.5t13.5 20t27.5 9.5q2 0 14.5 1t30.5 2t40 2t45 1q1 22 1 43.5t-1 38.5q-32 -1 -62 -2t-52 -3z" />
    <glyph glyph-name="uni313F" unicode="&#x313f;" 
d="M740 441q16 1 25.5 -8.5t8.5 -26.5q-1 -18 -10.5 -25t-24.5 -8l-21 -2l-4 -222l26 2q16 1 25.5 -10t8.5 -28q-1 -18 -10.5 -25t-24.5 -8q-16 -1 -45 -2t-64.5 -1.5t-73 -0.5t-69.5 2q-12 1 -22 8.5t-11 28.5q-1 17 10 26t25 11l28 -2v219l-30 2q-12 1 -22 8.5t-11 28.5
q-1 17 10 23t25 8zM231 379q-18 2 -27.5 12t-10.5 23q-2 15 9 28t33 14q24 1 39.5 1.5t29.5 1.5t29.5 1.5t39.5 0.5q23 1 34 -9.5t11 -47.5q0 -20 -0.5 -54t-3.5 -64q6 -8 7.5 -17t-2 -18t-12 -16t-21.5 -9q-30 -1 -47 -2t-28.5 -1.5t-21.5 -1t-28 -1.5q-1 -19 -1.5 -37.5
t-0.5 -37.5q8 0 25.5 0.5t37.5 1t38.5 1t27.5 1.5q16 0 24 -11t7.5 -24.5t-9 -26t-26.5 -15.5q-35 -2 -81.5 -2t-87.5 5q-13 8 -19.5 16t-8.5 23q0 28 1 55.5t3 55.5q-12 6 -16 18t-1 23.5t13.5 20t27.5 9.5q2 0 14.5 1t30.5 2t40 2t45 1q1 22 1 43.5t-1 38.5q-32 -1 -62 -2
t-52 -3zM642 369h-54v-54v-66v-61v-38l3 -2q18 -1 25 -1h25z" />
    <glyph glyph-name="uni3140" unicode="&#x3140;" 
d="M230 374q-37 5 -38 30q-2 15 9 28t33 14q24 1 44 1.5t39 0.5h39h44q23 1 34 -9.5t11 -47.5v-22.5v-29.5t-0.5 -31.5t-1.5 -27.5q-2 -10 -4 -16q0 -10 -5 -18.5t-17 -11.5q-30 -1 -48.5 -1.5t-32.5 -1.5t-27 -1.5t-31 -1.5q-1 -21 -1.5 -41.5t-0.5 -42.5h29.5h46h47
t31.5 1q16 0 24.5 -10.5t8.5 -23.5t-8.5 -25t-26.5 -15q-17 -1 -43.5 -1.5t-55 -0.5t-56 1t-47.5 4q-13 8 -19.5 16t-8.5 23q0 31 2 59.5t3 59.5q-12 6 -16.5 16t-1.5 20t13 17.5t28 8.5q2 0 16 1t35 2t46.5 2t49.5 1q1 20 1 41.5v34.5q-16 0 -36.5 -0.5t-40.5 -0.5h-38
t-29 -1zM581 301q5 2 24 2.5t30 -5.5q16 -10 32 -38t15 -76q0 -18 -5 -39t-16 -39t-28 -30t-41 -12q-15 0 -31.5 7t-30 19.5t-22 29t-8.5 36.5q-2 54 18 91.5t63 53.5zM501 326q-16 1 -23.5 10.5t-6.5 20t9 19.5t24 10h62q0 18 1 37t1 30q0 17 11.5 25t24.5 6
q10 -2 18.5 -8.5t8.5 -19.5t-0.5 -32.5t-0.5 -37.5h65q13 -4 19.5 -13t6 -18.5t-7.5 -18t-21 -10.5h-191zM617 172q2 30 -4 48t-12 26q-15 -9 -22 -30.5t-8 -43.5q-1 -20 4.5 -33.5t18.5 -11.5q14 2 18 17.5t5 27.5z" />
    <glyph glyph-name="uni3141" unicode="&#x3141;" 
d="M251 356q-17 3 -22 15t-1 25.5t16 24.5t29 12q45 0 86 -0.5t81.5 -1.5t82 -1.5t86.5 -1.5q18 0 25 -15q4 -6 4 -11q-2 -45 -3 -82t-2.5 -70.5t-3.5 -64.5t-5 -63q2 -14 -5 -28t-24 -17q-24 -5 -56.5 -8t-68.5 -5t-72 -3.5t-66 -1.5q-20 -2 -34.5 12.5t-12.5 35.5
q-2 5 -0.5 31.5t4 63t6 78t6.5 76.5h-50zM557 357h-85.5t-83.5 -1q-1 -24 -3.5 -47.5t-4.5 -49.5t-4.5 -55.5t-3.5 -65.5q35 1 59.5 1.5t43 1t35.5 2t37 4.5q5 42 6.5 95t3.5 115z" />
    <glyph glyph-name="uni3142" unicode="&#x3142;" 
d="M581 415q0 17 5.5 22.5t19.5 5.5q6 0 15.5 -1t18 -3.5t14.5 -7.5t6 -13q2 -110 -4 -186.5t-12 -140.5q2 -15 -5 -29.5t-25 -18.5q-24 -5 -57 -8t-69.5 -5t-73.5 -3.5t-67 -1.5q-20 -2 -34.5 12.5t-12.5 35.5q-1 4 -1 25t1 52t2.5 68.5t3 74.5t4 70.5t4.5 55.5q3 14 11 21
t25 9q19 2 35.5 -4.5t15.5 -22.5q0 -25 -1 -54t-3 -61q48 2 89 3t95 1v104zM387 104q35 1 60 1.5t44.5 1.5t36.5 2.5t38 3.5q7 52 12 126q-55 0 -97.5 -1.5t-87.5 -4.5q-2 -32 -3.5 -64.5t-2.5 -64.5z" />
    <glyph glyph-name="uni3143" unicode="&#x3143;" 
d="M627 437q-1 16 9.5 22.5t24.5 8.5q15 2 30 -3.5t15 -24.5v-333q-2 -27 -21 -36t-37 -1q-36 -6 -86 -10.5t-101 -6.5t-97 -3.5t-74 -1.5q-20 -2 -34.5 12.5t-12.5 35.5q-1 4 -0.5 26t2 55t3.5 72.5t4.5 78.5t5.5 73.5t5 56.5q4 20 20 24.5t34 5.5q12 1 21.5 -5.5
t8.5 -21.5q0 -29 -2 -67.5t-5 -80.5l107 -2v114q-1 16 9.5 22.5t24.5 8.5q15 2 28 -3.5t13 -24.5v-118q26 0 52 -0.5t53 -1.5v129zM330 124q28 1 57.5 1.5t59.5 2.5v108h-112q-2 -29 -3 -57.5t-2 -54.5zM522 133q29 2 55.5 4.5t49.5 5.5v93q-26 1 -52.5 0.5t-52.5 -0.5v-103
z" />
    <glyph glyph-name="uni3144" unicode="&#x3144;" 
d="M352 435q0 17 5.5 22.5t19.5 5.5q6 0 15.5 -1t18 -3.5t14.5 -7.5t6 -13q2 -112 -4.5 -193.5t-12.5 -146.5q2 -15 -5 -28.5t-24 -16.5q-48 -9 -97 -13t-110 -5q-20 -2 -34.5 12.5t-12.5 35.5q-1 4 -1 25.5t1 54t2.5 71l3 77t4 72.5t4.5 56q3 14 11 21t25 9q19 2 35.5 -4.5
t15.5 -22.5q0 -24 -1 -53.5t-2 -61.5q18 1 31.5 1.5l27 1t28.5 1t36 0.5q2 50 0 104zM562 443q8 13 22 17t28 1t23.5 -12.5t8.5 -24.5q-4 -18 -10.5 -44t-16.5 -58q42 -57 73 -104.5t63 -88.5q11 -14 8 -29.5t-13 -26.5t-24.5 -14t-26.5 9q-22 31 -47 70t-63 90
q-14 -42 -31 -85t-36 -86q-5 -8 -11 -10t-11 -3q-10 -1 -20 3t-17.5 11t-11 16t0.5 18q15 43 26 74t20 56t16 46.5t14 46t15.5 55t20.5 73.5zM218 114q34 1 52 1.5t28.5 1.5t18 2.5t21.5 3.5q3 27 6 61.5t5 74.5q-22 0 -38 -0.5t-29.5 -1t-27 -1.5t-29.5 -2q-2 -35 -4 -70.5
t-3 -69.5z" />
    <glyph glyph-name="uni3145" unicode="&#x3145;" 
d="M417 442q11 11 25 11t27 -7q13 -6 19.5 -18t2.5 -26q-6 -10 -13 -25t-16 -32q12 -10 35 -23t51 -26.5t58 -27t56 -25.5l45.5 -21t27.5 -13q14 -10 16 -25.5t-4.5 -29t-19.5 -21t-28 -0.5q-18 10 -52 25.5t-73 34t-79 39.5t-70 42q-24 -48 -54 -99.5t-62 -98.5
q-14 -12 -29 -11.5t-25.5 9t-15 22t3.5 26.5q24 41 47.5 85t46 86.5t43 80.5t37.5 68z" />
    <glyph glyph-name="uni3146" unicode="&#x3146;" 
d="M554 445q8 13 22 17t28 1t23.5 -12.5t8.5 -24.5q-4 -19 -11.5 -49t-18.5 -67q12 -14 28 -30t33 -30.5t33 -26.5t27 -18q14 -10 16 -25.5t-4.5 -29t-19.5 -21t-28 -0.5q-32 17 -57 39t-54 53l-28 -86t-30 -82q-7 -6 -20 -8q-10 -1 -20 3t-17.5 11t-11 16t0.5 18l22 68
q-29 17 -51.5 36.5t-48.5 45.5q-14 -45 -28.5 -90.5t-29.5 -83.5q-7 -6 -20 -8q-10 -1 -20 3t-17.5 11t-11 16t0.5 18q17 54 30 99t25 89t23.5 92t25.5 107q8 13 22 17t28 1t23.5 -12.5t8.5 -24.5q-5 -21 -14 -59t-22 -86q22 -23 50.5 -48t50.5 -40q13 43 24.5 88.5
t28.5 112.5z" />
    <glyph glyph-name="uni3147" unicode="&#x3147;" 
d="M431 460q6 3 17.5 3.5t23.5 -1t23.5 -4t17.5 -6.5q12 -11 25.5 -36.5t25 -57t18 -66.5t5.5 -65q-2 -72 -37.5 -117t-96.5 -45q-34 1 -60 12t-43.5 28t-27 39.5t-9.5 46.5q-2 82 25.5 152.5t92.5 116.5zM503 213q1 47 -5.5 94t-30.5 77q-12 -13 -25 -29t-24 -36.5
t-17.5 -47t-5.5 -59.5q0 -12 3 -25t10.5 -23.5t20.5 -17t33 -4.5q6 1 13 4.5t13 11.5t10.5 21.5t4.5 33.5z" />
    <glyph glyph-name="uni3148" unicode="&#x3148;" 
d="M488 378q-25 -1 -46.5 -1h-41.5t-41.5 -0.5t-46.5 -0.5q-17 1 -26.5 12.5t-11.5 25t3.5 25.5t18.5 14q20 2 57.5 2.5t77 0t73.5 -1.5t48 -1q17 0 29 -13.5t6 -34.5q-14 -31 -28.5 -61.5t-31.5 -60.5q37 -23 73 -47.5t72 -47.5q14 -15 13.5 -31.5t-10 -28t-25.5 -13.5
t-32 11q-31 24 -64 45t-68 41q-27 -46 -57 -89.5t-62 -85.5q-12 -12 -27 -12t-27 7t-17.5 19.5t0.5 25.5q30 44 56 82t49 73.5t44.5 71t42.5 74.5z" />
    <glyph glyph-name="uni3149" unicode="&#x3149;" 
d="M391 394q-25 -1 -42 -1h-32.5t-32.5 -0.5t-42 -0.5q-19 2 -28.5 15.5t-10.5 28.5q-1 12 5 21.5t18 11.5q20 2 53 3t66.5 0.5t63 -1.5t43.5 -3q34 -10 34 -45q21 0 43 -0.5t41 -1t34.5 -1.5t24.5 -2q19 -5 29 -13t5 -29q-15 -44 -31 -79.5t-33 -69.5q29 -24 56 -48.5
t56 -47.5q18 -20 10.5 -39t-26.5 -25q-11 -3 -22.5 -0.5t-22.5 13.5q-42 41 -88 76l-65 -112q-10 -14 -24.5 -16t-27.5 3.5t-20.5 17t-2.5 25.5l33 55q-20 20 -41 37t-42 33q-17 -29 -35.5 -58.5t-36.5 -61.5q-10 -14 -24.5 -16t-27.5 3.5t-20.5 17t-2.5 25.5q26 43 47.5 76
t41 64.5t38 65.5t39.5 79zM454 347q-11 -21 -21 -40.5t-21 -39.5q20 -17 41 -34.5t41 -35.5q18 32 34.5 67t39.5 85q-20 -1 -35 -1h-27.5t-24.5 -0.5t-27 -0.5z" />
    <glyph glyph-name="uni314A" unicode="&#x314a;" 
d="M507 331q-51 -2 -97 -1.5t-97 -0.5q-17 1 -26.5 12.5t-11.5 25t3.5 25.5t18.5 14q14 2 41 2.5t59 0.5q1 21 1.5 41t0.5 37q3 18 14 27.5t24 10t24.5 -7.5t16.5 -26q0 -17 -0.5 -38t-1.5 -44q32 0 58 -1t37 -3q35 -10 34 -47q-1 -19 -22.5 -57.5t-52.5 -84.5
q29 -22 58.5 -44.5t59.5 -44.5q13 -16 11.5 -32t-11.5 -26t-25.5 -11t-31.5 13q-24 21 -51.5 41t-55.5 38q-32 -43 -62 -81t-50 -60q-10 -14 -26 -12.5t-29 11t-18 24t6 26.5q55 64 107 133.5t95 139.5z" />
    <glyph glyph-name="uni314B" unicode="&#x314b;" 
d="M310 230q-17 3 -25.5 17.5t-7.5 27.5q1 24 34 25h264q1 18 1.5 36.5t0.5 37.5q-27 1 -60.5 0.5t-69 -1.5t-70.5 -2t-64 -2q-18 2 -27.5 12t-10.5 23q-2 15 9 28t33 14q24 1 64 1.5t83.5 1.5t84 1.5t64.5 0.5q23 1 34 -9.5t11 -47.5q0 -63 -3 -127t-1 -133q0 -10 -6.5 -17
t-15.5 -11t-19.5 -5.5t-17.5 -0.5q-22 3 -22 31q-2 24 -2 48t1 50l-262 1v0z" />
    <glyph glyph-name="uni314C" unicode="&#x314c;" 
d="M294 401q-17 3 -22 15t-1 25.5t16 24.5t29 12q45 0 79.5 -0.5t66.5 -1.5t66.5 -1.5t79.5 -1.5q16 0 22 -10t4.5 -22.5t-10.5 -24.5t-24 -15q-57 1 -101.5 0.5t-89.5 -0.5q-1 -23 -2.5 -50t-3.5 -55l183 -3q16 0 22 -10t4.5 -22.5t-10.5 -24.5t-24 -15q-40 1 -86 0.5
t-94 -0.5q-2 -27 -3 -54l-2 -54q42 1 75.5 4.5t62.5 7.5t56.5 9t58.5 9q18 4 28.5 -6t12 -24t-5.5 -28t-24 -17q-33 -8 -72.5 -14t-80.5 -10.5t-80 -7t-69 -2.5q-20 -2 -34.5 12.5t-12.5 35.5q-2 5 -0.5 41t4 84.5t6.5 101.5t7 92h-31v0z" />
    <glyph glyph-name="uni314D" unicode="&#x314d;" 
d="M287 384q-17 3 -22 15t-1 25.5t16 24.5t29 12q91 -1 184 -1.5t184 -2.5q15 0 21.5 -9.5t5.5 -21.5q-2 -14 -10.5 -26t-24.5 -15h-52q-2 -31 -4 -58t-4 -52.5t-4.5 -50.5t-4.5 -52h35t37 1q16 1 23 -9t6 -24q-2 -14 -10 -25.5t-25 -13.5q-91 -2 -181 -6t-181 -6
q-17 2 -22 14t-1.5 25.5t15 25t28.5 12.5h20t19 1q0 28 -0.5 53.5t-1.5 51t-2 53t-2 59.5h-70zM537 385h-49.5t-50.5 -1q4 -62 4 -111.5t1 -103.5q21 0 40.5 0.5t39.5 0.5q3 29 5 54.5t3.5 50.5t3 51.5t3.5 58.5z" />
    <glyph glyph-name="uni314E" unicode="&#x314e;" 
d="M444 301q6 3 16.5 4t21.5 0.5t21.5 -2.5t16.5 -6q21 -14 38 -48.5t21 -77.5q6 -72 -27 -111t-94 -39q-26 -1 -47 7.5t-35.5 24t-22.5 37t-8 45.5q1 25 9 49.5t21 46.5t30.5 40t38.5 30zM622 405q16 -2 28 -16t14 -29q2 -13 -7.5 -22t-34.5 -11q-21 0 -64.5 -0.5t-91 -0.5
t-90.5 -0.5t-65 -0.5q-20 2 -30 16t-9 30q0 11 6 20t17 11q13 2 48.5 2.5t80.5 0.5q1 28 1 60.5v49.5q3 18 14 27.5t24 10t24.5 -7.5t16.5 -26v-22v-28.5t-0.5 -32t-0.5 -30.5q35 0 67.5 -0.5t51.5 -0.5zM497 157q-1 15 -6 38.5t-15 36.5q-24 -19 -33 -42.5t-11 -33.5
q-2 -8 -1.5 -18.5t5 -19.5t13 -14t22.5 -3q13 2 20.5 15.5t5.5 40.5z" />
    <glyph glyph-name="uni314F" unicode="&#x314f;" 
d="M356 452q2 14 12.5 25.5t26.5 11.5q12 0 27 -9t15 -26v-52t-1 -75h113q18 0 26 -14.5t8 -28.5q0 -15 -10.5 -27t-26.5 -12h-112l-5 -155q-1 -23 -13 -32.5t-25 -9.5q-14 0 -29 9.5t-14 29.5z" />
    <glyph glyph-name="uni3150" unicode="&#x3150;" 
d="M540 449q2 14 12.5 25.5t26.5 11.5q12 0 27 -9t15 -26q0 -43 -1.5 -135t-6.5 -229q-1 -23 -13 -32.5t-25 -9.5q-14 0 -29 9.5t-14 29.5l3 158h-139l-5 -155q-1 -23 -13 -32.5t-25 -9.5q-14 0 -29 9.5t-14 29.5l8 365q2 14 12.5 25.5t26.5 11.5q12 0 27 -9t15 -26v-52
t-1 -75h139z" />
    <glyph glyph-name="uni3151" unicode="&#x3151;" 
d="M345 465q2 14 12.5 25.5t26.5 11.5q12 0 27 -9t15 -26v-34.5t-1 -46.5l127 7q21 1 31 -11t10 -27q0 -30 -34 -36l-135 -7q0 -21 -0.5 -44t-1.5 -48h136q18 0 26 -14.5t8 -28.5q0 -15 -10.5 -27t-26.5 -12h-135q-1 -14 -1.5 -27.5t-0.5 -27.5q-1 -23 -13 -32.5t-25 -9.5
q-14 0 -29 9.5t-14 29.5z" />
    <glyph glyph-name="uni3152" unicode="&#x3152;" 
d="M550 460q2 14 12.5 25.5t26.5 11.5q12 0 27 -9t15 -26q0 -21 -0.5 -58.5t-1 -87t-2 -110t-4.5 -128.5q-1 -23 -13 -32.5t-25 -9.5q-14 0 -29 9.5t-14 29.5l1 61l-160 -9q-1 -12 -1.5 -24t-0.5 -25q-1 -23 -13 -32.5t-25 -9.5q-14 0 -29 9.5t-14 29.5l8 385
q2 14 12.5 25.5t26.5 11.5q12 0 27 -9t15 -26v-33t-1 -43h160zM545 216l2 88h-160q0 -22 -0.5 -45.5t-1.5 -49.5z" />
    <glyph glyph-name="uni3153" unicode="&#x3153;" 
d="M362 237q-21 3 -30.5 15.5t-9.5 26.5q0 13 9.5 26.5t33.5 13.5h159v155q0 15 10 25.5t29 11.5q17 1 29.5 -8.5t12.5 -26.5q0 -21 0.5 -64.5t0.5 -98v-114t-1 -113.5q-1 -23 -13 -32.5t-25 -9.5q-14 0 -29 9.5t-14 29.5v154h-162z" />
    <glyph glyph-name="uni3154" unicode="&#x3154;" 
d="M266 237q-21 3 -30.5 15.5t-9.5 26.5q0 13 9.5 26.5t33.5 13.5h153l3 141q2 14 12.5 25.5t26.5 11.5q12 0 27 -9t15 -26q0 -43 -1.5 -135t-6.5 -229q-1 -23 -13 -32.5t-25 -9.5q-14 0 -29 9.5t-14 29.5l3 142h-154zM622 460q2 14 12.5 25.5t26.5 11.5q12 0 27 -9t15 -26
q0 -43 -1.5 -135t-6.5 -229q-1 -23 -13 -32.5t-25 -9.5q-14 0 -29 9.5t-14 29.5z" />
    <glyph glyph-name="uni3155" unicode="&#x3155;" 
d="M530 122l-170 -8q-22 2 -31.5 14t-10.5 26q-1 13 8.5 26.5t33.5 15.5l170 8v98h-172q-21 3 -30.5 15.5t-9.5 26.5q0 13 9.5 26.5t33.5 13.5h169v72q0 15 10 25.5t29 11.5q17 1 29.5 -8.5t12.5 -26.5q0 -21 0.5 -64.5t0.5 -98v-114t-1 -113.5q-1 -23 -13 -32.5t-25 -9.5
q-14 0 -29 9.5t-14 29.5v57z" />
    <glyph glyph-name="uni3156" unicode="&#x3156;" 
d="M262 135q-21 3 -30.5 15.5t-9.5 26.5q0 13 9.5 26.5t33.5 13.5h171l1 78h-175q-21 3 -30.5 15.5t-9.5 26.5q0 13 9.5 26.5t33.5 13.5h174l2 73q2 14 12.5 25.5t26.5 11.5q12 0 27 -9t15 -26q0 -43 -1.5 -135t-6.5 -229q-1 -23 -13 -32.5t-25 -9.5q-14 0 -29 9.5t-14 29.5
l1 50h-172zM627 450q2 14 12.5 25.5t26.5 11.5q12 0 27 -9t15 -26q0 -43 -1.5 -135t-6.5 -229q-1 -23 -13 -32.5t-25 -9.5q-14 0 -29 9.5t-14 29.5z" />
    <glyph glyph-name="uni3157" unicode="&#x3157;" 
d="M212 96q-21 2 -30.5 14.5t-9.5 26.5q0 12 10 25t33 15q58 -2 106 -2.5t93 -0.5l1 159q0 17 15 27t30 10q13 0 27 -7t14 -27l-2 -162q51 1 104.5 2t118.5 3q19 1 27.5 -12.5t6.5 -32.5q-2 -20 -11.5 -26t-25.5 -8q-18 -1 -52.5 -2t-78 -1.5t-93.5 -1.5t-100.5 -1
t-97.5 0.5t-85 1.5z" />
    <glyph glyph-name="uni3158" unicode="&#x3158;" 
d="M108 17q-21 2 -30.5 14.5t-9.5 26.5q0 12 10 25t33 15q38 -2 76 -2t82 1l1 156q0 17 15 27t30 10q13 0 27 -7t14 -27l-2 -157l174 4q19 1 27.5 -12.5t6.5 -32.5q-2 -20 -11.5 -26t-25.5 -8q-27 -1 -74.5 -3t-104.5 -3.5t-119 -2t-119 1.5zM713 226l-5 -155
q-1 -23 -13 -32.5t-25 -9.5q-14 0 -29 9.5t-14 29.5l8 365q2 14 12.5 25.5t26.5 11.5q12 0 27 -9t15 -26v-52t-1 -75h113q18 0 26 -14.5t8 -28.5q0 -15 -10.5 -27t-26.5 -12h-112z" />
    <glyph glyph-name="uni3159" unicode="&#x3159;" 
d="M744 395q0 17 10.5 27t26.5 10q12 0 27 -9t15 -26q0 -21 0.5 -62t0.5 -87.5v-90.5t-1 -71q-1 -23 -12.5 -34t-24.5 -11q-14 0 -29 9.5t-14 29.5v136h-93v-71.5t-1 -55.5q-1 -23 -12.5 -34t-24.5 -11q-14 0 -29 9.5t-14 29.5l3 325q0 16 10.5 26.5t26.5 10.5q17 0 29.5 -9
t12.5 -26v-112h92zM146 17q-21 2 -30.5 14.5t-9.5 26.5q0 12 10 25t33 15q18 -1 32.5 -1.5t27.5 -0.5t27 0.5t32 0.5l1 146q0 17 15 27t30 10q13 0 27 -7t14 -27l-2 -147l134 4q19 1 27.5 -12.5t6.5 -32.5q-2 -20 -11.5 -26t-25.5 -8q-55 -2 -139.5 -6.5t-198.5 -0.5z" />
    <glyph glyph-name="uni315A" unicode="&#x315a;" 
d="M181 17q-21 2 -30.5 14.5t-9.5 26.5q0 12 10 25t33 15q38 -2 76 -2t82 1l1 156q0 17 15 27t30 10q13 0 27 -7t14 -27l-2 -157l174 4q19 1 27.5 -12.5t6.5 -32.5q-2 -20 -11.5 -26t-25.5 -8q-27 -1 -74.5 -3t-104.5 -3.5t-119 -2t-119 1.5zM781 71q-1 -23 -13 -32.5
t-25 -9.5q-14 0 -29 9.5t-14 29.5l8 365q2 14 12.5 25.5t26.5 11.5q12 0 27 -9t15 -26z" />
    <glyph glyph-name="uni315B" unicode="&#x315b;" 
d="M212 116q-21 2 -30.5 14.5t-9.5 26.5q0 12 10 25t33 15l90 -3l1 122q0 17 15 27t30 10q13 0 27 -7t14 -27l-2 -125h73.5t70.5 1l1 121q0 17 15 27t30 10q13 0 27 -7t14 -27l-2 -123l103 3q19 1 27.5 -12.5t6.5 -32.5q-2 -20 -11.5 -26t-25.5 -8q-18 -1 -52.5 -2t-78 -1.5
t-93.5 -1.5t-100.5 -1t-97.5 0.5t-85 1.5z" />
    <glyph glyph-name="uni315C" unicode="&#x315c;" 
d="M212 225q-21 2 -30.5 14.5t-9.5 26.5q0 12 10 25t33 15q78 -2 140 -2.5t119.5 0t116.5 1.5t131 3q19 1 27.5 -12.5t6.5 -32.5q-2 -20 -11.5 -26t-25.5 -8q-26 -2 -82.5 -3t-125.5 -2l-2 -178q0 -23 -13.5 -33t-24.5 -10q-14 0 -28 9.5t-14 30.5l1 180q-60 -1 -116.5 -0.5
t-101.5 2.5z" />
    <glyph glyph-name="uni315D" unicode="&#x315d;" 
d="M184 239q-21 2 -30.5 14.5t-9.5 26.5q0 12 10 25t33 15q42 -2 86 -1.5t93.5 1t107.5 2t130 3.5q19 1 27.5 -12.5t6.5 -32.5q-2 -20 -11.5 -26t-25.5 -8q-31 -2 -85 -4t-120 -4l-2 -202q0 -23 -13.5 -33t-24.5 -10q-14 0 -28.5 9t-13.5 31l1 204h-67t-64 2zM538 92
q-17 3 -26 17.5t-9 30.5q0 29 38 35h32.5t41 0.5t43.5 0.5h40l5 251q2 17 13 27t27 10q19 0 30.5 -9t11.5 -26q0 -21 -0.5 -58.5t-1 -87t-2 -110.5t-4.5 -129q-1 -23 -13 -32.5t-25 -9.5q-14 0 -29 9.5t-14 29.5v53z" />
    <glyph glyph-name="uni315E" unicode="&#x315e;" 
d="M130 207q-21 2 -30.5 14.5t-9.5 26.5q0 12 10 25t33 15q42 -2 76.5 -1.5t73 1t87 2t120.5 3.5q19 1 27.5 -12.5t6.5 -32.5q-2 -20 -11.5 -26t-25.5 -8q-15 -1 -28.5 -2t-29.5 -1.5t-37 -1.5t-50 -2l-2 -173q0 -23 -13.5 -33t-24.5 -10q-14 0 -28.5 9t-13.5 31l1 174h-66
t-65 2zM424 67q-17 3 -26 17.5t-9 30.5q0 29 38 35h32.5t41 0.5t43.5 0.5h40l5 284q2 17 13 27t27 10q19 0 30.5 -9t11.5 -26q0 -21 -0.5 -60t-1 -90.5t-2 -114t-4.5 -130.5q-1 -23 -13 -32.5t-25 -9.5q-14 0 -29 9.5t-14 29.5v30zM758 431q2 17 13 27t27 10q19 0 30.5 -9
t11.5 -26q0 -21 -0.5 -60t-1 -90.5t-2 -114t-4.5 -130.5q-1 -23 -13 -32.5t-25 -9.5q-14 0 -29 9.5t-14 29.5z" />
    <glyph glyph-name="uni315F" unicode="&#x315f;" 
d="M184 209q-21 2 -30.5 14.5t-9.5 26.5q0 12 10 25t33 15q42 -2 86 -1.5t93.5 1t107.5 2t130 3.5q19 1 27.5 -12.5t6.5 -32.5q-2 -20 -11.5 -26t-25.5 -8q-31 -2 -85 -4t-120 -4l-2 -172q0 -23 -13.5 -33t-24.5 -10q-14 0 -28.5 9t-13.5 31l1 174h-67t-64 2zM703 427
q2 17 13 27t27 10q19 0 30.5 -9t11.5 -26q0 -21 -0.5 -58.5t-1 -87t-2 -110.5t-4.5 -129q-1 -23 -13 -32.5t-25 -9.5q-14 0 -29 9.5t-14 29.5z" />
    <glyph glyph-name="uni3160" unicode="&#x3160;" 
d="M212 266q-21 2 -30.5 14.5t-9.5 26.5q0 12 10 25t33 15q78 -2 140 -2.5t119.5 0t116.5 1.5t131 3q19 1 27.5 -12.5t6.5 -32.5q-2 -20 -11.5 -26t-25.5 -8l-88 -3l-2 -180q0 -23 -13.5 -33t-24.5 -10q-14 0 -28 9.5t-14 30.5l1 181q-41 -1 -84 -1h-86l-1 -177
q0 -23 -13.5 -33t-24.5 -10q-14 0 -28 9.5t-14 30.5l1 180q-24 0 -46 0.5t-42 1.5z" />
    <glyph glyph-name="uni3161" unicode="&#x3161;" 
d="M212 216q-21 2 -30.5 14.5t-9.5 26.5q0 12 10 25t33 15q78 -2 140 -2.5t119.5 0t116.5 1.5t131 3q19 1 27.5 -12.5t6.5 -32.5q-2 -20 -11.5 -26t-25.5 -8q-18 -1 -52.5 -2t-78 -1.5t-93.5 -1.5t-100.5 -1t-97.5 0.5t-85 1.5z" />
    <glyph glyph-name="uni3162" unicode="&#x3162;" 
d="M191 50q-21 2 -30.5 14.5t-9.5 26.5q0 12 10 25t33 15q42 -2 79.5 -2h79.5t94 1t124 3q19 1 27.5 -12.5t6.5 -32.5q-2 -20 -11.5 -26t-25.5 -8q-27 -1 -68.5 -2.5t-91 -2.5t-105 -1t-112.5 2zM698 443q2 14 12.5 25.5t26.5 11.5q12 0 27 -9t15 -26q0 -43 -1.5 -135
t-6.5 -229q-1 -23 -13 -32.5t-25 -9.5q-14 0 -29 9.5t-14 29.5z" />
    <glyph glyph-name="uni3163" unicode="&#x3163;" 
d="M424 476q0 15 10 25.5t29 11.5q17 1 29.5 -8.5t12.5 -26.5q0 -21 0.5 -64.5t0.5 -98v-114t-1 -113.5q-1 -23 -13 -32.5t-25 -9.5q-14 0 -29 9.5t-14 29.5v391z" />
    <glyph glyph-name="cid409" unicode="&#x3165;" 
 />
    <glyph glyph-name="cid410" unicode="&#x3166;" 
 />
    <glyph glyph-name="cid411" unicode="&#x3167;" 
 />
    <glyph glyph-name="cid412" unicode="&#x3168;" 
 />
    <glyph glyph-name="cid413" unicode="&#x3169;" 
 />
    <glyph glyph-name="cid414" unicode="&#x316a;" 
 />
    <glyph glyph-name="cid415" unicode="&#x316b;" 
 />
    <glyph glyph-name="cid416" unicode="&#x316c;" 
 />
    <glyph glyph-name="cid417" unicode="&#x316d;" 
 />
    <glyph glyph-name="cid418" unicode="&#x316e;" 
 />
    <glyph glyph-name="cid419" unicode="&#x316f;" 
 />
    <glyph glyph-name="cid420" unicode="&#x3170;" 
 />
    <glyph glyph-name="cid421" unicode="&#x3171;" 
 />
    <glyph glyph-name="cid422" unicode="&#x3172;" 
 />
    <glyph glyph-name="cid423" unicode="&#x3173;" 
 />
    <glyph glyph-name="cid424" unicode="&#x3174;" 
 />
    <glyph glyph-name="cid425" unicode="&#x3175;" 
 />
    <glyph glyph-name="cid426" unicode="&#x3176;" 
 />
    <glyph glyph-name="cid427" unicode="&#x3177;" 
 />
    <glyph glyph-name="cid428" unicode="&#x3178;" 
 />
    <glyph glyph-name="cid429" unicode="&#x3179;" 
 />
    <glyph glyph-name="cid430" unicode="&#x317a;" 
 />
    <glyph glyph-name="cid431" unicode="&#x317b;" 
 />
    <glyph glyph-name="cid432" unicode="&#x317c;" 
 />
    <glyph glyph-name="cid433" unicode="&#x317d;" 
 />
    <glyph glyph-name="cid434" unicode="&#x317e;" 
 />
    <glyph glyph-name="cid435" unicode="&#x317f;" 
 />
    <glyph glyph-name="cid436" unicode="&#x3180;" 
 />
    <glyph glyph-name="cid437" unicode="&#x3181;" 
 />
    <glyph glyph-name="cid438" unicode="&#x3182;" 
 />
    <glyph glyph-name="cid439" unicode="&#x3183;" 
 />
    <glyph glyph-name="cid440" unicode="&#x3184;" 
 />
    <glyph glyph-name="cid441" unicode="&#x3185;" 
 />
    <glyph glyph-name="cid442" unicode="&#x3186;" 
 />
    <glyph glyph-name="cid443" unicode="&#x3187;" 
 />
    <glyph glyph-name="cid444" unicode="&#x3188;" 
 />
    <glyph glyph-name="cid445" unicode="&#x3189;" 
 />
    <glyph glyph-name="cid446" unicode="&#x318a;" 
 />
    <glyph glyph-name="cid447" unicode="&#x318b;" 
 />
    <glyph glyph-name="cid448" unicode="&#x318c;" 
 />
    <glyph glyph-name="cid449" unicode="&#x318d;" 
 />
    <glyph glyph-name="cid450" unicode="&#x318e;" 
 />
    <glyph glyph-name="cid773" unicode="&#x3200;" 
 />
    <glyph glyph-name="cid774" unicode="&#x3201;" 
 />
    <glyph glyph-name="cid775" unicode="&#x3202;" 
 />
    <glyph glyph-name="cid776" unicode="&#x3203;" 
 />
    <glyph glyph-name="cid777" unicode="&#x3204;" 
 />
    <glyph glyph-name="cid778" unicode="&#x3205;" 
 />
    <glyph glyph-name="cid779" unicode="&#x3206;" 
 />
    <glyph glyph-name="cid780" unicode="&#x3207;" 
 />
    <glyph glyph-name="cid781" unicode="&#x3208;" 
 />
    <glyph glyph-name="cid782" unicode="&#x3209;" 
 />
    <glyph glyph-name="cid783" unicode="&#x320a;" 
 />
    <glyph glyph-name="cid784" unicode="&#x320b;" 
 />
    <glyph glyph-name="cid785" unicode="&#x320c;" 
 />
    <glyph glyph-name="cid786" unicode="&#x320d;" 
 />
    <glyph glyph-name="cid787" unicode="&#x320e;" 
 />
    <glyph glyph-name="cid788" unicode="&#x320f;" 
 />
    <glyph glyph-name="cid789" unicode="&#x3210;" 
 />
    <glyph glyph-name="cid790" unicode="&#x3211;" 
 />
    <glyph glyph-name="cid791" unicode="&#x3212;" 
 />
    <glyph glyph-name="cid792" unicode="&#x3213;" 
 />
    <glyph glyph-name="cid793" unicode="&#x3214;" 
 />
    <glyph glyph-name="cid794" unicode="&#x3215;" 
 />
    <glyph glyph-name="cid795" unicode="&#x3216;" 
 />
    <glyph glyph-name="cid796" unicode="&#x3217;" 
 />
    <glyph glyph-name="cid797" unicode="&#x3218;" 
 />
    <glyph glyph-name="cid798" unicode="&#x3219;" 
 />
    <glyph glyph-name="cid799" unicode="&#x321a;" 
 />
    <glyph glyph-name="cid800" unicode="&#x321b;" 
 />
    <glyph glyph-name="cid257" unicode="&#x321c;" 
 />
    <glyph glyph-name="cid8788" unicode="&#x3231;" 
 />
    <glyph glyph-name="cid8789" unicode="&#x3239;" 
 />
    <glyph glyph-name="cid8796" unicode="&#x3251;" 
 />
    <glyph glyph-name="cid8797" unicode="&#x3252;" 
 />
    <glyph glyph-name="cid8798" unicode="&#x3253;" 
 />
    <glyph glyph-name="cid8799" unicode="&#x3254;" 
 />
    <glyph glyph-name="cid8800" unicode="&#x3255;" 
 />
    <glyph glyph-name="cid8801" unicode="&#x3256;" 
 />
    <glyph glyph-name="cid8802" unicode="&#x3257;" 
 />
    <glyph glyph-name="cid8803" unicode="&#x3258;" 
 />
    <glyph glyph-name="cid8804" unicode="&#x3259;" 
 />
    <glyph glyph-name="cid8805" unicode="&#x325a;" 
 />
    <glyph glyph-name="cid679" unicode="&#x3260;" 
 />
    <glyph glyph-name="cid680" unicode="&#x3261;" 
 />
    <glyph glyph-name="cid681" unicode="&#x3262;" 
 />
    <glyph glyph-name="cid682" unicode="&#x3263;" 
 />
    <glyph glyph-name="cid683" unicode="&#x3264;" 
 />
    <glyph glyph-name="cid684" unicode="&#x3265;" 
 />
    <glyph glyph-name="cid685" unicode="&#x3266;" 
 />
    <glyph glyph-name="cid686" unicode="&#x3267;" 
 />
    <glyph glyph-name="cid687" unicode="&#x3268;" 
 />
    <glyph glyph-name="cid688" unicode="&#x3269;" 
 />
    <glyph glyph-name="cid689" unicode="&#x326a;" 
 />
    <glyph glyph-name="cid690" unicode="&#x326b;" 
 />
    <glyph glyph-name="cid691" unicode="&#x326c;" 
 />
    <glyph glyph-name="cid692" unicode="&#x326d;" 
 />
    <glyph glyph-name="cid693" unicode="&#x326e;" 
 />
    <glyph glyph-name="cid694" unicode="&#x326f;" 
 />
    <glyph glyph-name="cid695" unicode="&#x3270;" 
 />
    <glyph glyph-name="cid696" unicode="&#x3271;" 
 />
    <glyph glyph-name="cid697" unicode="&#x3272;" 
 />
    <glyph glyph-name="cid698" unicode="&#x3273;" 
 />
    <glyph glyph-name="cid699" unicode="&#x3274;" 
 />
    <glyph glyph-name="cid700" unicode="&#x3275;" 
 />
    <glyph glyph-name="cid701" unicode="&#x3276;" 
 />
    <glyph glyph-name="cid702" unicode="&#x3277;" 
 />
    <glyph glyph-name="cid703" unicode="&#x3278;" 
 />
    <glyph glyph-name="cid704" unicode="&#x3279;" 
 />
    <glyph glyph-name="cid705" unicode="&#x327a;" 
 />
    <glyph glyph-name="cid706" unicode="&#x327b;" 
 />
    <glyph glyph-name="cid256" unicode="&#x327f;" 
 />
    <glyph glyph-name="cid9301" unicode="&#x328a;" 
 />
    <glyph glyph-name="cid9302" unicode="&#x328b;" 
 />
    <glyph glyph-name="cid9303" unicode="&#x328c;" 
 />
    <glyph glyph-name="cid9304" unicode="&#x328d;" 
 />
    <glyph glyph-name="cid9305" unicode="&#x328e;" 
 />
    <glyph glyph-name="cid9306" unicode="&#x328f;" 
 />
    <glyph glyph-name="cid9300" unicode="&#x3290;" 
 />
    <glyph glyph-name="cid9080" unicode="&#x3294;" 
 />
    <glyph glyph-name="cid8761" unicode="&#x329e;" 
 />
    <glyph glyph-name="cid9096" unicode="&#x32a5;" 
 />
    <glyph glyph-name="cid627" unicode="&#x3380;" 
 />
    <glyph glyph-name="cid628" unicode="&#x3381;" 
 />
    <glyph glyph-name="cid629" unicode="&#x3382;" 
 />
    <glyph glyph-name="cid630" unicode="&#x3383;" 
 />
    <glyph glyph-name="cid631" unicode="&#x3384;" 
 />
    <glyph glyph-name="cid612" unicode="&#x3388;" 
 />
    <glyph glyph-name="cid613" unicode="&#x3389;" 
 />
    <glyph glyph-name="cid646" unicode="&#x338a;" 
 />
    <glyph glyph-name="cid647" unicode="&#x338b;" 
 />
    <glyph glyph-name="cid648" unicode="&#x338c;" 
 />
    <glyph glyph-name="cid608" unicode="&#x338d;" 
 />
    <glyph glyph-name="cid609" unicode="&#x338e;" 
 />
    <glyph glyph-name="cid610" unicode="&#x338f;" 
 />
    <glyph glyph-name="cid638" unicode="&#x3390;" 
 />
    <glyph glyph-name="cid639" unicode="&#x3391;" 
 />
    <glyph glyph-name="cid640" unicode="&#x3392;" 
 />
    <glyph glyph-name="cid641" unicode="&#x3393;" 
 />
    <glyph glyph-name="cid642" unicode="&#x3394;" 
 />
    <glyph glyph-name="cid587" unicode="&#x3395;" 
 />
    <glyph glyph-name="cid588" unicode="&#x3396;" 
 />
    <glyph glyph-name="cid589" unicode="&#x3397;" 
 />
    <glyph glyph-name="cid591" unicode="&#x3398;" 
 />
    <glyph glyph-name="cid597" unicode="&#x3399;" 
 />
    <glyph glyph-name="cid598" unicode="&#x339a;" 
 />
    <glyph glyph-name="cid599" unicode="&#x339b;" 
 />
    <glyph glyph-name="cid600" unicode="&#x339c;" 
 />
    <glyph glyph-name="cid601" unicode="&#x339d;" 
 />
    <glyph glyph-name="cid602" unicode="&#x339e;" 
 />
    <glyph glyph-name="cid603" unicode="&#x339f;" 
 />
    <glyph glyph-name="cid604" unicode="&#x33a0;" 
 />
    <glyph glyph-name="cid605" unicode="&#x33a1;" 
 />
    <glyph glyph-name="cid606" unicode="&#x33a2;" 
 />
    <glyph glyph-name="cid593" unicode="&#x33a3;" 
 />
    <glyph glyph-name="cid594" unicode="&#x33a4;" 
 />
    <glyph glyph-name="cid595" unicode="&#x33a5;" 
 />
    <glyph glyph-name="cid596" unicode="&#x33a6;" 
 />
    <glyph glyph-name="cid615" unicode="&#x33a7;" 
 />
    <glyph glyph-name="cid616" unicode="&#x33a8;" 
 />
    <glyph glyph-name="cid655" unicode="&#x33a9;" 
 />
    <glyph glyph-name="cid656" unicode="&#x33aa;" 
 />
    <glyph glyph-name="cid657" unicode="&#x33ab;" 
 />
    <glyph glyph-name="cid658" unicode="&#x33ac;" 
 />
    <glyph glyph-name="cid651" unicode="&#x33ad;" 
 />
    <glyph glyph-name="cid652" unicode="&#x33ae;" 
 />
    <glyph glyph-name="cid653" unicode="&#x33af;" 
 />
    <glyph glyph-name="cid617" unicode="&#x33b0;" 
 />
    <glyph glyph-name="cid618" unicode="&#x33b1;" 
 />
    <glyph glyph-name="cid619" unicode="&#x33b2;" 
 />
    <glyph glyph-name="cid620" unicode="&#x33b3;" 
 />
    <glyph glyph-name="cid621" unicode="&#x33b4;" 
 />
    <glyph glyph-name="cid622" unicode="&#x33b5;" 
 />
    <glyph glyph-name="cid623" unicode="&#x33b6;" 
 />
    <glyph glyph-name="cid624" unicode="&#x33b7;" 
 />
    <glyph glyph-name="cid625" unicode="&#x33b8;" 
 />
    <glyph glyph-name="cid626" unicode="&#x33b9;" 
 />
    <glyph glyph-name="cid632" unicode="&#x33ba;" 
 />
    <glyph glyph-name="cid633" unicode="&#x33bb;" 
 />
    <glyph glyph-name="cid634" unicode="&#x33bc;" 
 />
    <glyph glyph-name="cid635" unicode="&#x33bd;" 
 />
    <glyph glyph-name="cid636" unicode="&#x33be;" 
 />
    <glyph glyph-name="cid637" unicode="&#x33bf;" 
 />
    <glyph glyph-name="cid644" unicode="&#x33c0;" 
 />
    <glyph glyph-name="cid645" unicode="&#x33c1;" 
 />
    <glyph glyph-name="cid261" unicode="&#x33c2;" 
 />
    <glyph glyph-name="cid662" unicode="&#x33c3;" 
 />
    <glyph glyph-name="cid592" unicode="&#x33c4;" 
 />
    <glyph glyph-name="cid650" unicode="&#x33c5;" 
 />
    <glyph glyph-name="cid665" unicode="&#x33c6;" 
 />
    <glyph glyph-name="cid259" unicode="&#x33c7;" 
 />
    <glyph glyph-name="cid614" unicode="&#x33c8;" 
 />
    <glyph glyph-name="cid663" unicode="&#x33c9;" 
 />
    <glyph glyph-name="cid607" unicode="&#x33ca;" 
 />
    <glyph glyph-name="cid8790" unicode="&#x33cb;" 
 />
    <glyph glyph-name="cid611" unicode="&#x33cf;" 
 />
    <glyph glyph-name="cid660" unicode="&#x33d0;" 
 />
    <glyph glyph-name="cid661" unicode="&#x33d3;" 
 />
    <glyph glyph-name="cid649" unicode="&#x33d6;" 
 />
    <glyph glyph-name="cid262" unicode="&#x33d8;" 
 />
    <glyph glyph-name="cid654" unicode="&#x33db;" 
 />
    <glyph glyph-name="cid664" unicode="&#x33dc;" 
 />
    <glyph glyph-name="cid659" unicode="&#x33dd;" 
 />
    <glyph glyph-name="cid6704" unicode="&#x4e01;" 
 />
    <glyph glyph-name="cid7364" unicode="&#x4e03;" 
 />
    <glyph glyph-name="cid4670" unicode="&#x4e07;" 
 />
    <glyph glyph-name="cid6534" unicode="&#x4e08;" 
 />
    <glyph glyph-name="cid5320" unicode="&#x4e09;" 
 />
    <glyph glyph-name="cid5331" unicode="&#x4e0a;" 
 />
    <glyph glyph-name="cid7616" unicode="&#x4e0b;" 
 />
    <glyph glyph-name="cid5109" unicode="&#x4e0d;" 
 />
    <glyph glyph-name="cid5109" unicode="&#xf967;" 
 />
    <glyph glyph-name="cid7288" unicode="&#x4e11;" 
 />
    <glyph glyph-name="cid7041" unicode="&#x4e14;" 
 />
    <glyph glyph-name="cid5181" unicode="&#x4e15;" 
 />
    <glyph glyph-name="cid5492" unicode="&#x4e16;" 
 />
    <glyph glyph-name="cid3893" unicode="&#x4e18;" 
 />
    <glyph glyph-name="cid5041" unicode="&#x4e19;" 
 />
    <glyph glyph-name="cid5682" unicode="&#x4e1e;" 
 />
    <glyph glyph-name="cid6922" unicode="&#x4e2d;" 
 />
    <glyph glyph-name="cid3802" unicode="&#x4e32;" 
 />
    <glyph glyph-name="cid3802" unicode="&#xf905;" 
 />
    <glyph glyph-name="cid7882" unicode="&#x4e38;" 
 />
    <glyph glyph-name="cid4192" unicode="&#x4e39;" 
 />
    <glyph glyph-name="cid4192" unicode="&#xf95e;" 
 />
    <glyph glyph-name="cid6860" unicode="&#x4e3b;" 
 />
    <glyph glyph-name="cid6029" unicode="&#x4e42;" 
 />
    <glyph glyph-name="cid4154" unicode="&#x4e43;" 
 />
    <glyph glyph-name="cid3894" unicode="&#x4e45;" 
 />
    <glyph glyph-name="cid6942" unicode="&#x4e4b;" 
 />
    <glyph glyph-name="cid5241" unicode="&#x4e4d;" 
 />
    <glyph glyph-name="cid7800" unicode="&#x4e4e;" 
 />
    <glyph glyph-name="cid7614" unicode="&#x4e4f;" 
 />
    <glyph glyph-name="cid3855" unicode="&#x4e56;" 
 />
    <glyph glyph-name="cid5683" unicode="&#x4e58;" 
 />
    <glyph glyph-name="cid3895" unicode="&#x4e5d;" 
 />
    <glyph glyph-name="cid3613" unicode="&#x4e5e;" 
 />
    <glyph glyph-name="cid5862" unicode="&#x4e5f;" 
 />
    <glyph glyph-name="cid3500" unicode="&#x4e6b;" 
 />
    <glyph glyph-name="cid4329" unicode="&#x4e6d;" 
 />
    <glyph glyph-name="cid6309" unicode="&#x4e73;" 
 />
    <glyph glyph-name="cid5092" unicode="&#x4e76;" 
 />
    <glyph glyph-name="cid5315" unicode="&#x4e77;" 
 />
    <glyph glyph-name="cid3601" unicode="&#x4e7e;" 
 />
    <glyph glyph-name="cid4389" unicode="&#x4e82;" 
 />
    <glyph glyph-name="cid4389" unicode="&#xf91b;" 
 />
    <glyph glyph-name="cid4551" unicode="&#x4e86;" 
 />
    <glyph glyph-name="cid4551" unicode="&#xf9ba;" 
 />
    <glyph glyph-name="cid5934" unicode="&#x4e88;" 
 />
    <glyph glyph-name="cid5242" unicode="&#x4e8b;" 
 />
    <glyph glyph-name="cid6197" unicode="&#x4e8e;" 
 />
    <glyph glyph-name="cid6252" unicode="&#x4e90;" 
 />
    <glyph glyph-name="cid6238" unicode="&#x4e91;" 
 />
    <glyph glyph-name="cid7801" unicode="&#x4e92;" 
 />
    <glyph glyph-name="cid6049" unicode="&#x4e94;" 
 />
    <glyph glyph-name="cid6705" unicode="&#x4e95;" 
 />
    <glyph glyph-name="cid4058" unicode="&#x4e98;" 
 />
    <glyph glyph-name="cid5243" unicode="&#x4e9b;" 
 />
    <glyph glyph-name="cid5775" unicode="&#x4e9e;" 
 />
    <glyph glyph-name="cid4696" unicode="&#x4ea1;" 
 />
    <glyph glyph-name="cid7670" unicode="&#x4ea2;" 
 />
    <glyph glyph-name="cid3868" unicode="&#x4ea4;" 
 />
    <glyph glyph-name="cid7685" unicode="&#x4ea5;" 
 />
    <glyph glyph-name="cid5947" unicode="&#x4ea6;" 
 />
    <glyph glyph-name="cid7771" unicode="&#x4ea8;" 
 />
    <glyph glyph-name="cid7710" unicode="&#x4eab;" 
 />
    <glyph glyph-name="cid3660" unicode="&#x4eac;" 
 />
    <glyph glyph-name="cid6706" unicode="&#x4ead;" 
 />
    <glyph glyph-name="cid4427" unicode="&#x4eae;" 
 />
    <glyph glyph-name="cid4427" unicode="&#xf977;" 
 />
    <glyph glyph-name="cid4193" unicode="&#x4eb6;" 
 />
    <glyph glyph-name="cid5771" unicode="&#x4ec0;" 
 />
    <glyph glyph-name="cid5771" unicode="&#xf9fd;" 
 />
    <glyph glyph-name="cid6444" unicode="&#x4ec1;" 
 />
    <glyph glyph-name="cid7331" unicode="&#x4ec4;" 
 />
    <glyph glyph-name="cid3896" unicode="&#x4ec7;" 
 />
    <glyph glyph-name="cid4038" unicode="&#x4eca;" 
 />
    <glyph glyph-name="cid3560" unicode="&#x4ecb;" 
 />
    <glyph glyph-name="cid6479" unicode="&#x4ecd;" 
 />
    <glyph glyph-name="cid6483" unicode="&#x4ed4;" 
 />
    <glyph glyph-name="cid5244" unicode="&#x4ed5;" 
 />
    <glyph glyph-name="cid7380" unicode="&#x4ed6;" 
 />
    <glyph glyph-name="cid6535" unicode="&#x4ed7;" 
 />
    <glyph glyph-name="cid5110" unicode="&#x4ed8;" 
 />
    <glyph glyph-name="cid5418" unicode="&#x4ed9;" 
 />
    <glyph glyph-name="cid4331" unicode="&#x4edd;" 
 />
    <glyph glyph-name="cid7148" unicode="&#x4edf;" 
 />
    <glyph glyph-name="cid4250" unicode="&#x4ee3;" 
 />
    <glyph glyph-name="cid4489" unicode="&#x4ee4;" 
 />
    <glyph glyph-name="cid4489" unicode="&#xf9a8;" 
 />
    <glyph glyph-name="cid6414" unicode="&#x4ee5;" 
 />
    <glyph glyph-name="cid5833" unicode="&#x4ef0;" 
 />
    <glyph glyph-name="cid6923" unicode="&#x4ef2;" 
 />
    <glyph glyph-name="cid3602" unicode="&#x4ef6;" 
 />
    <glyph glyph-name="cid3561" unicode="&#x4ef7;" 
 />
    <glyph glyph-name="cid6469" unicode="&#x4efb;" 
 />
    <glyph glyph-name="cid4062" unicode="&#x4f01;" 
 />
    <glyph glyph-name="cid7671" unicode="&#x4f09;" 
 />
    <glyph glyph-name="cid6415" unicode="&#x4f0a;" 
 />
    <glyph glyph-name="cid4051" unicode="&#x4f0b;" 
 />
    <glyph glyph-name="cid6050" unicode="&#x4f0d;" 
 />
    <glyph glyph-name="cid4063" unicode="&#x4f0e;" 
 />
    <glyph glyph-name="cid5074" unicode="&#x4f0f;" 
 />
    <glyph glyph-name="cid5005" unicode="&#x4f10;" 
 />
    <glyph glyph-name="cid8005" unicode="&#x4f11;" 
 />
    <glyph glyph-name="cid4988" unicode="&#x4f2f;" 
 />
    <glyph glyph-name="cid4905" unicode="&#x4f34;" 
 />
    <glyph glyph-name="cid4490" unicode="&#x4f36;" 
 />
    <glyph glyph-name="cid5735" unicode="&#x4f38;" 
 />
    <glyph glyph-name="cid5245" unicode="&#x4f3a;" 
 />
    <glyph glyph-name="cid5246" unicode="&#x4f3c;" 
 />
    <glyph glyph-name="cid3436" unicode="&#x4f3d;" 
 />
    <glyph glyph-name="cid6643" unicode="&#x4f43;" 
 />
    <glyph glyph-name="cid4194" unicode="&#x4f46;" 
 />
    <glyph glyph-name="cid6591" unicode="&#x4f47;" 
 />
    <glyph glyph-name="cid7544" unicode="&#x4f48;" 
 />
    <glyph glyph-name="cid6284" unicode="&#x4f4d;" 
 />
    <glyph glyph-name="cid6592" unicode="&#x4f4e;" 
 />
    <glyph glyph-name="cid6861" unicode="&#x4f4f;" 
 />
    <glyph glyph-name="cid6854" unicode="&#x4f50;" 
 />
    <glyph glyph-name="cid6198" unicode="&#x4f51;" 
 />
    <glyph glyph-name="cid7617" unicode="&#x4f55;" 
 />
    <glyph glyph-name="cid5935" unicode="&#x4f59;" 
 />
    <glyph glyph-name="cid6461" unicode="&#x4f5a;" 
 />
    <glyph glyph-name="cid5171" unicode="&#x4f5b;" 
 />
    <glyph glyph-name="cid6509" unicode="&#x4f5c;" 
 />
    <glyph glyph-name="cid7502" unicode="&#x4f69;" 
 />
    <glyph glyph-name="cid5879" unicode="&#x4f6f;" 
 />
    <glyph glyph-name="cid4989" unicode="&#x4f70;" 
 />
    <glyph glyph-name="cid3437" unicode="&#x4f73;" 
 />
    <glyph glyph-name="cid4127" unicode="&#x4f76;" 
 />
    <glyph glyph-name="cid6644" unicode="&#x4f7a;" 
 />
    <glyph glyph-name="cid6462" unicode="&#x4f7e;" 
 />
    <glyph glyph-name="cid5247" unicode="&#x4f7f;" 
 />
    <glyph glyph-name="cid5736" unicode="&#x4f81;" 
 />
    <glyph glyph-name="cid3476" unicode="&#x4f83;" 
 />
    <glyph glyph-name="cid7015" unicode="&#x4f84;" 
 />
    <glyph glyph-name="cid4420" unicode="&#x4f86;" 
 />
    <glyph glyph-name="cid4420" unicode="&#xf92d;" 
 />
    <glyph glyph-name="cid7336" unicode="&#x4f88;" 
 />
    <glyph glyph-name="cid3839" unicode="&#x4f8a;" 
 />
    <glyph glyph-name="cid4506" unicode="&#x4f8b;" 
 />
    <glyph glyph-name="cid4506" unicode="&#xf9b5;" 
 />
    <glyph glyph-name="cid5692" unicode="&#x4f8d;" 
 />
    <glyph glyph-name="cid6862" unicode="&#x4f8f;" 
 />
    <glyph glyph-name="cid6310" unicode="&#x4f91;" 
 />
    <glyph glyph-name="cid4594" unicode="&#x4f96;" 
 />
    <glyph glyph-name="cid7042" unicode="&#x4f98;" 
 />
    <glyph glyph-name="cid3786" unicode="&#x4f9b;" 
 />
    <glyph glyph-name="cid6394" unicode="&#x4f9d;" 
 />
    <glyph glyph-name="cid4764" unicode="&#x4fae;" 
 />
    <glyph glyph-name="cid7966" unicode="&#x4faf;" 
 />
    <glyph glyph-name="cid7367" unicode="&#x4fb5;" 
 />
    <glyph glyph-name="cid4440" unicode="&#x4fb6;" 
 />
    <glyph glyph-name="cid7518" unicode="&#x4fbf;" 
 />
    <glyph glyph-name="cid7518" unicode="&#xf965;" 
 />
    <glyph glyph-name="cid3705" unicode="&#x4fc2;" 
 />
    <glyph glyph-name="cid7241" unicode="&#x4fc3;" 
 />
    <glyph glyph-name="cid5776" unicode="&#x4fc4;" 
 />
    <glyph glyph-name="cid6051" unicode="&#x4fc9;" 
 />
    <glyph glyph-name="cid6902" unicode="&#x4fca;" 
 />
    <glyph glyph-name="cid6782" unicode="&#x4fce;" 
 />
    <glyph glyph-name="cid6174" unicode="&#x4fd1;" 
 />
    <glyph glyph-name="cid3661" unicode="&#x4fd3;" 
 />
    <glyph glyph-name="cid7734" unicode="&#x4fd4;" 
 />
    <glyph glyph-name="cid5537" unicode="&#x4fd7;" 
 />
    <glyph glyph-name="cid4613" unicode="&#x4fda;" 
 />
    <glyph glyph-name="cid5058" unicode="&#x4fdd;" 
 />
    <glyph glyph-name="cid5248" unicode="&#x4fdf;" 
 />
    <glyph glyph-name="cid7759" unicode="&#x4fe0;" 
 />
    <glyph glyph-name="cid5737" unicode="&#x4fe1;" 
 />
    <glyph glyph-name="cid5567" unicode="&#x4fee;" 
 />
    <glyph glyph-name="cid5111" unicode="&#x4fef;" 
 />
    <glyph glyph-name="cid3897" unicode="&#x4ff1;" 
 />
    <glyph glyph-name="cid4970" unicode="&#x4ff3;" 
 />
    <glyph glyph-name="cid7576" unicode="&#x4ff5;" 
 />
    <glyph glyph-name="cid5093" unicode="&#x4ff8;" 
 />
    <glyph glyph-name="cid5925" unicode="&#x4ffa;" 
 />
    <glyph glyph-name="cid5042" unicode="&#x5002;" 
 />
    <glyph glyph-name="cid4428" unicode="&#x5006;" 
 />
    <glyph glyph-name="cid7092" unicode="&#x5009;" 
 />
    <glyph glyph-name="cid3562" unicode="&#x500b;" 
 />
    <glyph glyph-name="cid4969" unicode="&#x500d;" 
 />
    <glyph glyph-name="cid4836" unicode="&#x5011;" 
 />
    <glyph glyph-name="cid4269" unicode="&#x5012;" 
 />
    <glyph glyph-name="cid7705" unicode="&#x5016;" 
 />
    <glyph glyph-name="cid7967" unicode="&#x5019;" 
 />
    <glyph glyph-name="cid6395" unicode="&#x501a;" 
 />
    <glyph glyph-name="cid7134" unicode="&#x501c;" 
 />
    <glyph glyph-name="cid3662" unicode="&#x501e;" 
 />
    <glyph glyph-name="cid7043" unicode="&#x501f;" 
 />
    <glyph glyph-name="cid7093" unicode="&#x5021;" 
 />
    <glyph glyph-name="cid4941" unicode="&#x5023;" 
 />
    <glyph glyph-name="cid7337" unicode="&#x5024;" 
 />
    <glyph glyph-name="cid3969" unicode="&#x5026;" 
 />
    <glyph glyph-name="cid6837" unicode="&#x5027;" 
 />
    <glyph glyph-name="cid3585" unicode="&#x5028;" 
 />
    <glyph glyph-name="cid6030" unicode="&#x502a;" 
 />
    <glyph glyph-name="cid4595" unicode="&#x502b;" 
 />
    <glyph glyph-name="cid4595" unicode="&#xf9d4;" 
 />
    <glyph glyph-name="cid7394" unicode="&#x502c;" 
 />
    <glyph glyph-name="cid6131" unicode="&#x502d;" 
 />
    <glyph glyph-name="cid5863" unicode="&#x503b;" 
 />
    <glyph glyph-name="cid5917" unicode="&#x5043;" 
 />
    <glyph glyph-name="cid3438" unicode="&#x5047;" 
 />
    <glyph glyph-name="cid3627" unicode="&#x5048;" 
 />
    <glyph glyph-name="cid6285" unicode="&#x5049;" 
 />
    <glyph glyph-name="cid7519" unicode="&#x504f;" 
 />
    <glyph glyph-name="cid7686" unicode="&#x5055;" 
 />
    <glyph glyph-name="cid6863" unicode="&#x505a;" 
 />
    <glyph glyph-name="cid6707" unicode="&#x505c;" 
 />
    <glyph glyph-name="cid3603" unicode="&#x5065;" 
 />
    <glyph glyph-name="cid7330" unicode="&#x5074;" 
 />
    <glyph glyph-name="cid6708" unicode="&#x5075;" 
 />
    <glyph glyph-name="cid6199" unicode="&#x5076;" 
 />
    <glyph glyph-name="cid7465" unicode="&#x5078;" 
 />
    <glyph glyph-name="cid3856" unicode="&#x5080;" 
 />
    <glyph glyph-name="cid5112" unicode="&#x5085;" 
 />
    <glyph glyph-name="cid4942" unicode="&#x508d;" 
 />
    <glyph glyph-name="cid3614" unicode="&#x5091;" 
 />
    <glyph glyph-name="cid5303" unicode="&#x5098;" 
 />
    <glyph glyph-name="cid5182" unicode="&#x5099;" 
 />
    <glyph glyph-name="cid7262" unicode="&#x50ac;" 
 />
    <glyph glyph-name="cid6175" unicode="&#x50ad;" 
 />
    <glyph glyph-name="cid6052" unicode="&#x50b2;" 
 />
    <glyph glyph-name="cid6645" unicode="&#x50b3;" 
 />
    <glyph glyph-name="cid7114" unicode="&#x50b5;" 
 />
    <glyph glyph-name="cid5332" unicode="&#x50b7;" 
 />
    <glyph glyph-name="cid3663" unicode="&#x50be;" 
 />
    <glyph glyph-name="cid4023" unicode="&#x50c5;" 
 />
    <glyph glyph-name="cid7177" unicode="&#x50c9;" 
 />
    <glyph glyph-name="cid5419" unicode="&#x50ca;" 
 />
    <glyph glyph-name="cid5333" unicode="&#x50cf;" 
 />
    <glyph glyph-name="cid3869" unicode="&#x50d1;" 
 />
    <glyph glyph-name="cid5075" unicode="&#x50d5;" 
 />
    <glyph glyph-name="cid8035" unicode="&#x50d6;" 
 />
    <glyph glyph-name="cid4552" unicode="&#x50da;" 
 />
    <glyph glyph-name="cid4552" unicode="&#xf9bb;" 
 />
    <glyph glyph-name="cid6286" unicode="&#x50de;" 
 />
    <glyph glyph-name="cid6140" unicode="&#x50e5;" 
 />
    <glyph glyph-name="cid5684" unicode="&#x50e7;" 
 />
    <glyph glyph-name="cid7082" unicode="&#x50ed;" 
 />
    <glyph glyph-name="cid3439" unicode="&#x50f9;" 
 />
    <glyph glyph-name="cid5020" unicode="&#x50fb;" 
 />
    <glyph glyph-name="cid5249" unicode="&#x50ff;" 
 />
    <glyph glyph-name="cid6396" unicode="&#x5100;" 
 />
    <glyph glyph-name="cid6903" unicode="&#x5101;" 
 />
    <glyph glyph-name="cid5912" unicode="&#x5104;" 
 />
    <glyph glyph-name="cid3664" unicode="&#x5106;" 
 />
    <glyph glyph-name="cid3617" unicode="&#x5109;" 
 />
    <glyph glyph-name="cid6311" unicode="&#x5112;" 
 />
    <glyph glyph-name="cid5334" unicode="&#x511f;" 
 />
    <glyph glyph-name="cid4543" unicode="&#x5121;" 
 />
    <glyph glyph-name="cid6200" unicode="&#x512a;" 
 />
    <glyph glyph-name="cid6593" unicode="&#x5132;" 
 />
    <glyph glyph-name="cid4441" unicode="&#x5137;" 
 />
    <glyph glyph-name="cid4133" unicode="&#x513a;" 
 />
    <glyph glyph-name="cid5926" unicode="&#x513c;" 
 />
    <glyph glyph-name="cid6089" unicode="&#x5140;" 
 />
    <glyph glyph-name="cid6359" unicode="&#x5141;" 
 />
    <glyph glyph-name="cid6255" unicode="&#x5143;" 
 />
    <glyph glyph-name="cid7772" unicode="&#x5144;" 
 />
    <glyph glyph-name="cid7306" unicode="&#x5145;" 
 />
    <glyph glyph-name="cid6783" unicode="&#x5146;" 
 />
    <glyph glyph-name="cid8013" unicode="&#x5147;" 
 />
    <glyph glyph-name="cid5420" unicode="&#x5148;" 
 />
    <glyph glyph-name="cid3840" unicode="&#x5149;" 
 />
    <glyph glyph-name="cid4016" unicode="&#x514b;" 
 />
    <glyph glyph-name="cid7431" unicode="&#x514c;" 
 />
    <glyph glyph-name="cid4735" unicode="&#x514d;" 
 />
    <glyph glyph-name="cid7449" unicode="&#x514e;" 
 />
    <glyph glyph-name="cid5777" unicode="&#x5152;" 
 />
    <glyph glyph-name="cid4348" unicode="&#x515c;" 
 />
    <glyph glyph-name="cid4059" unicode="&#x5162;" 
 />
    <glyph glyph-name="cid4155" unicode="&#x5167;" 
 />
    <glyph glyph-name="cid6646" unicode="&#x5168;" 
 />
    <glyph glyph-name="cid4429" unicode="&#x5169;" 
 />
    <glyph glyph-name="cid4429" unicode="&#xf978;" 
 />
    <glyph glyph-name="cid6312" unicode="&#x516a;" 
 />
    <glyph glyph-name="cid3787" unicode="&#x516c;" 
 />
    <glyph glyph-name="cid4591" unicode="&#x516d;" 
 />
    <glyph glyph-name="cid4591" unicode="&#xf9d1;" 
 />
    <glyph glyph-name="cid7791" unicode="&#x516e;" 
 />
    <glyph glyph-name="cid3788" unicode="&#x5171;" 
 />
    <glyph glyph-name="cid5043" unicode="&#x5175;" 
 />
    <glyph glyph-name="cid4064" unicode="&#x5176;" 
 />
    <glyph glyph-name="cid3898" unicode="&#x5177;" 
 />
    <glyph glyph-name="cid6647" unicode="&#x5178;" 
 />
    <glyph glyph-name="cid3654" unicode="&#x517c;" 
 />
    <glyph glyph-name="cid4065" unicode="&#x5180;" 
 />
    <glyph glyph-name="cid5933" unicode="&#x5186;" 
 />
    <glyph glyph-name="cid7126" unicode="&#x518a;" 
 />
    <glyph glyph-name="cid6570" unicode="&#x518d;" 
 />
    <glyph glyph-name="cid4765" unicode="&#x5192;" 
 />
    <glyph glyph-name="cid4736" unicode="&#x5195;" 
 />
    <glyph glyph-name="cid6176" unicode="&#x5197;" 
 />
    <glyph glyph-name="cid3819" unicode="&#x51a0;" 
 />
    <glyph glyph-name="cid4748" unicode="&#x51a5;" 
 />
    <glyph glyph-name="cid4733" unicode="&#x51aa;" 
 />
    <glyph glyph-name="cid4332" unicode="&#x51ac;" 
 />
    <glyph glyph-name="cid5864" unicode="&#x51b6;" 
 />
    <glyph glyph-name="cid4424" unicode="&#x51b7;" 
 />
    <glyph glyph-name="cid4424" unicode="&#xf92e;" 
 />
    <glyph glyph-name="cid4477" unicode="&#x51bd;" 
 />
    <glyph glyph-name="cid7130" unicode="&#x51c4;" 
 />
    <glyph glyph-name="cid6904" unicode="&#x51c6;" 
 />
    <glyph glyph-name="cid4430" unicode="&#x51c9;" 
 />
    <glyph glyph-name="cid4430" unicode="&#xf979;" 
 />
    <glyph glyph-name="cid6784" unicode="&#x51cb;" 
 />
    <glyph glyph-name="cid4607" unicode="&#x51cc;" 
 />
    <glyph glyph-name="cid4607" unicode="&#xf955;" 
 />
    <glyph glyph-name="cid4333" unicode="&#x51cd;" 
 />
    <glyph glyph-name="cid4606" unicode="&#x51dc;" 
 />
    <glyph glyph-name="cid4606" unicode="&#xf954;" 
 />
    <glyph glyph-name="cid6390" unicode="&#x51dd;" 
 />
    <glyph glyph-name="cid8036" unicode="&#x51de;" 
 />
    <glyph glyph-name="cid5009" unicode="&#x51e1;" 
 />
    <glyph glyph-name="cid7904" unicode="&#x51f0;" 
 />
    <glyph glyph-name="cid3563" unicode="&#x51f1;" 
 />
    <glyph glyph-name="cid8014" unicode="&#x51f6;" 
 />
    <glyph glyph-name="cid7167" unicode="&#x51f8;" 
 />
    <glyph glyph-name="cid6141" unicode="&#x51f9;" 
 />
    <glyph glyph-name="cid7303" unicode="&#x51fa;" 
 />
    <glyph glyph-name="cid7651" unicode="&#x51fd;" 
 />
    <glyph glyph-name="cid6445" unicode="&#x5203;" 
 />
    <glyph glyph-name="cid5152" unicode="&#x5206;" 
 />
    <glyph glyph-name="cid6684" unicode="&#x5207;" 
 />
    <glyph glyph-name="cid6684" unicode="&#xfa00;" 
 />
    <glyph glyph-name="cid6031" unicode="&#x5208;" 
 />
    <glyph glyph-name="cid3477" unicode="&#x520a;" 
 />
    <glyph glyph-name="cid4837" unicode="&#x520e;" 
 />
    <glyph glyph-name="cid7773" unicode="&#x5211;" 
 />
    <glyph glyph-name="cid4478" unicode="&#x5217;" 
 />
    <glyph glyph-name="cid4478" unicode="&#xf99c;" 
 />
    <glyph glyph-name="cid7214" unicode="&#x521d;" 
 />
    <glyph glyph-name="cid7490" unicode="&#x5224;" 
 />
    <glyph glyph-name="cid5037" unicode="&#x5225;" 
 />
    <glyph glyph-name="cid4614" unicode="&#x5229;" 
 />
    <glyph glyph-name="cid4614" unicode="&#xf9dd;" 
 />
    <glyph glyph-name="cid5304" unicode="&#x522a;" 
 />
    <glyph glyph-name="cid3835" unicode="&#x522e;" 
 />
    <glyph glyph-name="cid4271" unicode="&#x5230;" 
 />
    <glyph glyph-name="cid6759" unicode="&#x5236;" 
 />
    <glyph glyph-name="cid5561" unicode="&#x5237;" 
 />
    <glyph glyph-name="cid3970" unicode="&#x5238;" 
 />
    <glyph glyph-name="cid7077" unicode="&#x5239;" 
 />
    <glyph glyph-name="cid6484" unicode="&#x523a;" 
 />
    <glyph glyph-name="cid6484" unicode="&#xf9ff;" 
 />
    <glyph glyph-name="cid3465" unicode="&#x523b;" 
 />
    <glyph glyph-name="cid7205" unicode="&#x5243;" 
 />
    <glyph glyph-name="cid7360" unicode="&#x5247;" 
 />
    <glyph glyph-name="cid5301" unicode="&#x524a;" 
 />
    <glyph glyph-name="cid4017" unicode="&#x524b;" 
 />
    <glyph glyph-name="cid4397" unicode="&#x524c;" 
 />
    <glyph glyph-name="cid6648" unicode="&#x524d;" 
 />
    <glyph glyph-name="cid7135" unicode="&#x5254;" 
 />
    <glyph glyph-name="cid5113" unicode="&#x5256;" 
 />
    <glyph glyph-name="cid3536" unicode="&#x525b;" 
 />
    <glyph glyph-name="cid4886" unicode="&#x525d;" 
 />
    <glyph glyph-name="cid5463" unicode="&#x5261;" 
 />
    <glyph glyph-name="cid6480" unicode="&#x5269;" 
 />
    <glyph glyph-name="cid6649" unicode="&#x526a;" 
 />
    <glyph glyph-name="cid5114" unicode="&#x526f;" 
 />
    <glyph glyph-name="cid7649" unicode="&#x5272;" 
 />
    <glyph glyph-name="cid7094" unicode="&#x5275;" 
 />
    <glyph glyph-name="cid7577" unicode="&#x527d;" 
 />
    <glyph glyph-name="cid7215" unicode="&#x527f;" 
 />
    <glyph glyph-name="cid7948" unicode="&#x5283;" 
 />
    <glyph glyph-name="cid4018" unicode="&#x5287;" 
 />
    <glyph glyph-name="cid5021" unicode="&#x5288;" 
 />
    <glyph glyph-name="cid4577" unicode="&#x5289;" 
 />
    <glyph glyph-name="cid4577" unicode="&#xf9c7;" 
 />
    <glyph glyph-name="cid3618" unicode="&#x528d;" 
 />
    <glyph glyph-name="cid6760" unicode="&#x5291;" 
 />
    <glyph glyph-name="cid3619" unicode="&#x5292;" 
 />
    <glyph glyph-name="cid3789" unicode="&#x529f;" 
 />
    <glyph glyph-name="cid3440" unicode="&#x52a0;" 
 />
    <glyph glyph-name="cid4479" unicode="&#x52a3;" 
 />
    <glyph glyph-name="cid4479" unicode="&#xf99d;" 
 />
    <glyph glyph-name="cid4024" unicode="&#x52a4;" 
 />
    <glyph glyph-name="cid6785" unicode="&#x52a9;" 
 />
    <glyph glyph-name="cid4169" unicode="&#x52aa;" 
 />
    <glyph glyph-name="cid3624" unicode="&#x52ab;" 
 />
    <glyph glyph-name="cid7703" unicode="&#x52be;" 
 />
    <glyph glyph-name="cid3665" unicode="&#x52c1;" 
 />
    <glyph glyph-name="cid4930" unicode="&#x52c3;" 
 />
    <glyph glyph-name="cid7361" unicode="&#x52c5;" 
 />
    <glyph glyph-name="cid6177" unicode="&#x52c7;" 
 />
    <glyph glyph-name="cid4737" unicode="&#x52c9;" 
 />
    <glyph glyph-name="cid3666" unicode="&#x52cd;" 
 />
    <glyph glyph-name="cid4604" unicode="&#x52d2;" 
 />
    <glyph glyph-name="cid4604" unicode="&#xf952;" 
 />
    <glyph glyph-name="cid4334" unicode="&#x52d5;" 
 />
    <glyph glyph-name="cid6229" unicode="&#x52d6;" 
 />
    <glyph glyph-name="cid3510" unicode="&#x52d8;" 
 />
    <glyph glyph-name="cid4812" unicode="&#x52d9;" 
 />
    <glyph glyph-name="cid7979" unicode="&#x52db;" 
 />
    <glyph glyph-name="cid5685" unicode="&#x52dd;" 
 />
    <glyph glyph-name="cid4511" unicode="&#x52de;" 
 />
    <glyph glyph-name="cid4511" unicode="&#xf92f;" 
 />
    <glyph glyph-name="cid4766" unicode="&#x52df;" 
 />
    <glyph glyph-name="cid5493" unicode="&#x52e2;" 
 />
    <glyph glyph-name="cid6619" unicode="&#x52e3;" 
 />
    <glyph glyph-name="cid4025" unicode="&#x52e4;" 
 />
    <glyph glyph-name="cid7980" unicode="&#x52f3;" 
 />
    <glyph glyph-name="cid4442" unicode="&#x52f5;" 
 />
    <glyph glyph-name="cid4442" unicode="&#xf97f;" 
 />
    <glyph glyph-name="cid3971" unicode="&#x52f8;" 
 />
    <glyph glyph-name="cid6510" unicode="&#x52fa;" 
 />
    <glyph glyph-name="cid4009" unicode="&#x52fb;" 
 />
    <glyph glyph-name="cid3899" unicode="&#x52fe;" 
 />
    <glyph glyph-name="cid4848" unicode="&#x52ff;" 
 />
    <glyph glyph-name="cid7545" unicode="&#x5305;" 
 />
    <glyph glyph-name="cid8015" unicode="&#x5308;" 
 />
    <glyph glyph-name="cid7546" unicode="&#x530d;" 
 />
    <glyph glyph-name="cid7547" unicode="&#x530f;" 
 />
    <glyph glyph-name="cid5076" unicode="&#x5310;" 
 />
    <glyph glyph-name="cid7863" unicode="&#x5316;" 
 />
    <glyph glyph-name="cid5151" unicode="&#x5317;" 
 />
    <glyph glyph-name="cid5151" unicode="&#xf963;" 
 />
    <glyph glyph-name="cid5693" unicode="&#x5319;" 
 />
    <glyph glyph-name="cid6536" unicode="&#x5320;" 
 />
    <glyph glyph-name="cid3841" unicode="&#x5321;" 
 />
    <glyph glyph-name="cid3530" unicode="&#x5323;" 
 />
    <glyph glyph-name="cid5184" unicode="&#x532a;" 
 />
    <glyph glyph-name="cid7928" unicode="&#x532f;" 
 />
    <glyph glyph-name="cid7604" unicode="&#x5339;" 
 />
    <glyph glyph-name="cid4188" unicode="&#x533f;" 
 />
    <glyph glyph-name="cid4188" unicode="&#xf9eb;" 
 />
    <glyph glyph-name="cid3900" unicode="&#x5340;" 
 />
    <glyph glyph-name="cid7149" unicode="&#x5343;" 
 />
    <glyph glyph-name="cid6478" unicode="&#x5344;" 
 />
    <glyph glyph-name="cid5686" unicode="&#x5347;" 
 />
    <glyph glyph-name="cid6053" unicode="&#x5348;" 
 />
    <glyph glyph-name="cid7994" unicode="&#x5349;" 
 />
    <glyph glyph-name="cid4906" unicode="&#x534a;" 
 />
    <glyph glyph-name="cid4671" unicode="&#x534d;" 
 />
    <glyph glyph-name="cid5185" unicode="&#x5351;" 
 />
    <glyph glyph-name="cid6834" unicode="&#x5352;" 
 />
    <glyph glyph-name="cid7395" unicode="&#x5353;" 
 />
    <glyph glyph-name="cid7760" unicode="&#x5354;" 
 />
    <glyph glyph-name="cid4145" unicode="&#x5357;" 
 />
    <glyph glyph-name="cid4887" unicode="&#x535a;" 
 />
    <glyph glyph-name="cid5031" unicode="&#x535e;" 
 />
    <glyph glyph-name="cid6692" unicode="&#x5360;" 
 />
    <glyph glyph-name="cid3852" unicode="&#x5366;" 
 />
    <glyph glyph-name="cid5450" unicode="&#x5368;" 
 />
    <glyph glyph-name="cid4800" unicode="&#x536f;" 
 />
    <glyph glyph-name="cid6446" unicode="&#x5370;" 
 />
    <glyph glyph-name="cid6287" unicode="&#x5371;" 
 />
    <glyph glyph-name="cid3466" unicode="&#x5374;" 
 />
    <glyph glyph-name="cid4390" unicode="&#x5375;" 
 />
    <glyph glyph-name="cid4390" unicode="&#xf91c;" 
 />
    <glyph glyph-name="cid3972" unicode="&#x5377;" 
 />
    <glyph glyph-name="cid6926" unicode="&#x537d;" 
 />
    <glyph glyph-name="cid3667" unicode="&#x537f;" 
 />
    <glyph glyph-name="cid5851" unicode="&#x5384;" 
 />
    <glyph glyph-name="cid5840" unicode="&#x5393;" 
 />
    <glyph glyph-name="cid4615" unicode="&#x5398;" 
 />
    <glyph glyph-name="cid7968" unicode="&#x539a;" 
 />
    <glyph glyph-name="cid6256" unicode="&#x539f;" 
 />
    <glyph glyph-name="cid7332" unicode="&#x53a0;" 
 />
    <glyph glyph-name="cid3979" unicode="&#x53a5;" 
 />
    <glyph glyph-name="cid7618" unicode="&#x53a6;" 
 />
    <glyph glyph-name="cid5989" unicode="&#x53ad;" 
 />
    <glyph glyph-name="cid3586" unicode="&#x53bb;" 
 />
    <glyph glyph-name="cid7083" unicode="&#x53c3;" 
 />
    <glyph glyph-name="cid7083" unicode="&#xf96b;" 
 />
    <glyph glyph-name="cid7044" unicode="&#x53c9;" 
 />
    <glyph glyph-name="cid4052" unicode="&#x53ca;" 
 />
    <glyph glyph-name="cid6202" unicode="&#x53cb;" 
 />
    <glyph glyph-name="cid4907" unicode="&#x53cd;" 
 />
    <glyph glyph-name="cid5628" unicode="&#x53d4;" 
 />
    <glyph glyph-name="cid7316" unicode="&#x53d6;" 
 />
    <glyph glyph-name="cid5568" unicode="&#x53d7;" 
 />
    <glyph glyph-name="cid4908" unicode="&#x53db;" 
 />
    <glyph glyph-name="cid6032" unicode="&#x53e1;" 
 />
    <glyph glyph-name="cid7251" unicode="&#x53e2;" 
 />
    <glyph glyph-name="cid3729" unicode="&#x53e4;" 
 />
    <glyph glyph-name="cid3902" unicode="&#x53e5;" 
 />
    <glyph glyph-name="cid3902" unicode="&#xf906;" 
 />
    <glyph glyph-name="cid3730" unicode="&#x53e9;" 
 />
    <glyph glyph-name="cid6943" unicode="&#x53ea;" 
 />
    <glyph glyph-name="cid3994" unicode="&#x53eb;" 
 />
    <glyph glyph-name="cid5500" unicode="&#x53ec;" 
 />
    <glyph glyph-name="cid7500" unicode="&#x53ed;" 
 />
    <glyph glyph-name="cid3441" unicode="&#x53ef;" 
 />
    <glyph glyph-name="cid7432" unicode="&#x53f0;" 
 />
    <glyph glyph-name="cid7016" unicode="&#x53f1;" 
 />
    <glyph glyph-name="cid5250" unicode="&#x53f2;" 
 />
    <glyph glyph-name="cid6203" unicode="&#x53f3;" 
 />
    <glyph glyph-name="cid5251" unicode="&#x53f8;" 
 />
    <glyph glyph-name="cid8023" unicode="&#x5403;" 
 />
    <glyph glyph-name="cid3467" unicode="&#x5404;" 
 />
    <glyph glyph-name="cid7663" unicode="&#x5408;" 
 />
    <glyph glyph-name="cid4128" unicode="&#x5409;" 
 />
    <glyph glyph-name="cid6620" unicode="&#x540a;" 
 />
    <glyph glyph-name="cid4335" unicode="&#x540c;" 
 />
    <glyph glyph-name="cid4749" unicode="&#x540d;" 
 />
    <glyph glyph-name="cid7969" unicode="&#x540e;" 
 />
    <glyph glyph-name="cid4616" unicode="&#x540f;" 
 />
    <glyph glyph-name="cid4616" unicode="&#xf9de;" 
 />
    <glyph glyph-name="cid7450" unicode="&#x5410;" 
 />
    <glyph glyph-name="cid7711" unicode="&#x5411;" 
 />
    <glyph glyph-name="cid3953" unicode="&#x541b;" 
 />
    <glyph glyph-name="cid4638" unicode="&#x541d;" 
 />
    <glyph glyph-name="cid4638" unicode="&#xf9ed;" 
 />
    <glyph glyph-name="cid6381" unicode="&#x541f;" 
 />
    <glyph glyph-name="cid7534" unicode="&#x5420;" 
 />
    <glyph glyph-name="cid5115" unicode="&#x5426;" 
 />
    <glyph glyph-name="cid5153" unicode="&#x5429;" 
 />
    <glyph glyph-name="cid7652" unicode="&#x542b;" 
 />
    <glyph glyph-name="cid6055" unicode="&#x5433;" 
 />
    <glyph glyph-name="cid8030" unicode="&#x5438;" 
 />
    <glyph glyph-name="cid7317" unicode="&#x5439;" 
 />
    <glyph glyph-name="cid4838" unicode="&#x543b;" 
 />
    <glyph glyph-name="cid7970" unicode="&#x543c;" 
 />
    <glyph glyph-name="cid6054" unicode="&#x543e;" 
 />
    <glyph glyph-name="cid4443" unicode="&#x5442;" 
 />
    <glyph glyph-name="cid4443" unicode="&#xf980;" 
 />
    <glyph glyph-name="cid6709" unicode="&#x5448;" 
 />
    <glyph glyph-name="cid3731" unicode="&#x544a;" 
 />
    <glyph glyph-name="cid7408" unicode="&#x5451;" 
 />
    <glyph glyph-name="cid6867" unicode="&#x5468;" 
 />
    <glyph glyph-name="cid6866" unicode="&#x546a;" 
 />
    <glyph glyph-name="cid3732" unicode="&#x5471;" 
 />
    <glyph glyph-name="cid4851" unicode="&#x5473;" 
 />
    <glyph glyph-name="cid3442" unicode="&#x5475;" 
 />
    <glyph glyph-name="cid5738" unicode="&#x547b;" 
 />
    <glyph glyph-name="cid7802" unicode="&#x547c;" 
 />
    <glyph glyph-name="cid4750" unicode="&#x547d;" 
 />
    <glyph glyph-name="cid6594" unicode="&#x5480;" 
 />
    <glyph glyph-name="cid7548" unicode="&#x5486;" 
 />
    <glyph glyph-name="cid7864" unicode="&#x548c;" 
 />
    <glyph glyph-name="cid3903" unicode="&#x548e;" 
 />
    <glyph glyph-name="cid5116" unicode="&#x5490;" 
 />
    <glyph glyph-name="cid7381" unicode="&#x54a4;" 
 />
    <glyph glyph-name="cid6485" unicode="&#x54a8;" 
 />
    <glyph glyph-name="cid6944" unicode="&#x54ab;" 
 />
    <glyph glyph-name="cid3870" unicode="&#x54ac;" 
 />
    <glyph glyph-name="cid7687" unicode="&#x54b3;" 
 />
    <glyph glyph-name="cid7653" unicode="&#x54b8;" 
 />
    <glyph glyph-name="cid6447" unicode="&#x54bd;" 
 />
    <glyph glyph-name="cid6447" unicode="&#xf99e;" 
 />
    <glyph glyph-name="cid5841" unicode="&#x54c0;" 
 />
    <glyph glyph-name="cid7590" unicode="&#x54c1;" 
 />
    <glyph glyph-name="cid7853" unicode="&#x54c4;" 
 />
    <glyph glyph-name="cid7664" unicode="&#x54c8;" 
 />
    <glyph glyph-name="cid6571" unicode="&#x54c9;" 
 />
    <glyph glyph-name="cid6257" unicode="&#x54e1;" 
 />
    <glyph glyph-name="cid3443" unicode="&#x54e5;" 
 />
    <glyph glyph-name="cid7216" unicode="&#x54e8;" 
 />
    <glyph glyph-name="cid3767" unicode="&#x54ed;" 
 />
    <glyph glyph-name="cid7953" unicode="&#x54ee;" 
 />
    <glyph glyph-name="cid7168" unicode="&#x54f2;" 
 />
    <glyph glyph-name="cid7549" unicode="&#x54fa;" 
 />
    <glyph glyph-name="cid7503" unicode="&#x5504;" 
 />
    <glyph glyph-name="cid5252" unicode="&#x5506;" 
 />
    <glyph glyph-name="cid6980" unicode="&#x5507;" 
 />
    <glyph glyph-name="cid4617" unicode="&#x550e;" 
 />
    <glyph glyph-name="cid4239" unicode="&#x5510;" 
 />
    <glyph glyph-name="cid4689" unicode="&#x551c;" 
 />
    <glyph glyph-name="cid6313" unicode="&#x552f;" 
 />
    <glyph glyph-name="cid7095" unicode="&#x5531;" 
 />
    <glyph glyph-name="cid5821" unicode="&#x5535;" 
 />
    <glyph glyph-name="cid7382" unicode="&#x553e;" 
 />
    <glyph glyph-name="cid7396" unicode="&#x5544;" 
 />
    <glyph glyph-name="cid5335" unicode="&#x5546;" 
 />
    <glyph glyph-name="cid4839" unicode="&#x554f;" 
 />
    <glyph glyph-name="cid3706" unicode="&#x5553;" 
 />
    <glyph glyph-name="cid4217" unicode="&#x5556;" 
 />
    <glyph glyph-name="cid5778" unicode="&#x555e;" 
 />
    <glyph glyph-name="cid7654" unicode="&#x5563;" 
 />
    <glyph glyph-name="cid6761" unicode="&#x557c;" 
 />
    <glyph glyph-name="cid3579" unicode="&#x5580;" 
 />
    <glyph glyph-name="cid5421" unicode="&#x5584;" 
 />
    <glyph glyph-name="cid7169" unicode="&#x5586;" 
 />
    <glyph glyph-name="cid4374" unicode="&#x5587;" 
 />
    <glyph glyph-name="cid4374" unicode="&#xf90b;" 
 />
    <glyph glyph-name="cid7971" unicode="&#x5589;" 
 />
    <glyph glyph-name="cid7655" unicode="&#x558a;" 
 />
    <glyph glyph-name="cid7150" unicode="&#x5598;" 
 />
    <glyph glyph-name="cid7995" unicode="&#x5599;" 
 />
    <glyph glyph-name="cid7883" unicode="&#x559a;" 
 />
    <glyph glyph-name="cid8037" unicode="&#x559c;" 
 />
    <glyph glyph-name="cid3501" unicode="&#x559d;" 
 />
    <glyph glyph-name="cid7990" unicode="&#x55a7;" 
 />
    <glyph glyph-name="cid6314" unicode="&#x55a9;" 
 />
    <glyph glyph-name="cid5336" unicode="&#x55aa;" 
 />
    <glyph glyph-name="cid4132" unicode="&#x55ab;" 
 />
    <glyph glyph-name="cid3871" unicode="&#x55ac;" 
 />
    <glyph glyph-name="cid4195" unicode="&#x55ae;" 
 />
    <glyph glyph-name="cid7972" unicode="&#x55c5;" 
 />
    <glyph glyph-name="cid5365" unicode="&#x55c7;" 
 />
    <glyph glyph-name="cid6981" unicode="&#x55d4;" 
 />
    <glyph glyph-name="cid6056" unicode="&#x55da;" 
 />
    <glyph glyph-name="cid4066" unicode="&#x55dc;" 
 />
    <glyph glyph-name="cid7045" unicode="&#x55df;" 
 />
    <glyph glyph-name="cid5253" unicode="&#x55e3;" 
 />
    <glyph glyph-name="cid7338" unicode="&#x55e4;" 
 />
    <glyph glyph-name="cid5569" unicode="&#x55fd;" 
 />
    <glyph glyph-name="cid6868" unicode="&#x55fe;" 
 />
    <glyph glyph-name="cid7409" unicode="&#x5606;" 
 />
    <glyph glyph-name="cid3444" unicode="&#x5609;" 
 />
    <glyph glyph-name="cid3904" unicode="&#x5614;" 
 />
    <glyph glyph-name="cid5337" unicode="&#x5617;" 
 />
    <glyph glyph-name="cid5501" unicode="&#x562f;" 
 />
    <glyph glyph-name="cid6786" unicode="&#x5632;" 
 />
    <glyph glyph-name="cid7318" unicode="&#x5634;" 
 />
    <glyph glyph-name="cid5694" unicode="&#x5636;" 
 />
    <glyph glyph-name="cid7719" unicode="&#x5653;" 
 />
    <glyph glyph-name="cid4067" unicode="&#x5668;" 
 />
    <glyph glyph-name="cid8038" unicode="&#x566b;" 
 />
    <glyph glyph-name="cid5154" unicode="&#x5674;" 
 />
    <glyph glyph-name="cid7954" unicode="&#x5686;" 
 />
    <glyph glyph-name="cid5956" unicode="&#x56a5;" 
 />
    <glyph glyph-name="cid5223" unicode="&#x56ac;" 
 />
    <glyph glyph-name="cid7712" unicode="&#x56ae;" 
 />
    <glyph glyph-name="cid5927" unicode="&#x56b4;" 
 />
    <glyph glyph-name="cid6511" unicode="&#x56bc;" 
 />
    <glyph glyph-name="cid4152" unicode="&#x56ca;" 
 />
    <glyph glyph-name="cid8039" unicode="&#x56cd;" 
 />
    <glyph glyph-name="cid7242" unicode="&#x56d1;" 
 />
    <glyph glyph-name="cid5570" unicode="&#x56da;" 
 />
    <glyph glyph-name="cid5254" unicode="&#x56db;" 
 />
    <glyph glyph-name="cid7929" unicode="&#x56de;" 
 />
    <glyph glyph-name="cid6448" unicode="&#x56e0;" 
 />
    <glyph glyph-name="cid3774" unicode="&#x56f0;" 
 />
    <glyph glyph-name="cid4491" unicode="&#x56f9;" 
 />
    <glyph glyph-name="cid4491" unicode="&#xf9a9;" 
 />
    <glyph glyph-name="cid3733" unicode="&#x56fa;" 
 />
    <glyph glyph-name="cid7550" unicode="&#x5703;" 
 />
    <glyph glyph-name="cid5902" unicode="&#x5704;" 
 />
    <glyph glyph-name="cid3973" unicode="&#x5708;" 
 />
    <glyph glyph-name="cid3947" unicode="&#x570b;" 
 />
    <glyph glyph-name="cid6288" unicode="&#x570d;" 
 />
    <glyph glyph-name="cid6259" unicode="&#x5712;" 
 />
    <glyph glyph-name="cid6258" unicode="&#x5713;" 
 />
    <glyph glyph-name="cid4272" unicode="&#x5716;" 
 />
    <glyph glyph-name="cid4196" unicode="&#x5718;" 
 />
    <glyph glyph-name="cid6572" unicode="&#x5728;" 
 />
    <glyph glyph-name="cid3995" unicode="&#x572d;" 
 />
    <glyph glyph-name="cid6945" unicode="&#x5730;" 
 />
    <glyph glyph-name="cid4068" unicode="&#x573b;" 
 />
    <glyph glyph-name="cid6946" unicode="&#x5740;" 
 />
    <glyph glyph-name="cid7491" unicode="&#x5742;" 
 />
    <glyph glyph-name="cid4010" unicode="&#x5747;" 
 />
    <glyph glyph-name="cid4943" unicode="&#x574a;" 
 />
    <glyph glyph-name="cid4218" unicode="&#x574d;" 
 />
    <glyph glyph-name="cid3511" unicode="&#x574e;" 
 />
    <glyph glyph-name="cid6855" unicode="&#x5750;" 
 />
    <glyph glyph-name="cid3581" unicode="&#x5751;" 
 />
    <glyph glyph-name="cid7474" unicode="&#x5761;" 
 />
    <glyph glyph-name="cid3775" unicode="&#x5764;" 
 />
    <glyph glyph-name="cid7410" unicode="&#x5766;" 
 />
    <glyph glyph-name="cid7529" unicode="&#x576a;" 
 />
    <glyph glyph-name="cid4252" unicode="&#x576e;" 
 />
    <glyph glyph-name="cid3668" unicode="&#x5770;" 
 />
    <glyph glyph-name="cid3905" unicode="&#x5775;" 
 />
    <glyph glyph-name="cid7397" unicode="&#x577c;" 
 />
    <glyph glyph-name="cid5571" unicode="&#x5782;" 
 />
    <glyph glyph-name="cid4251" unicode="&#x5788;" 
 />
    <glyph glyph-name="cid7774" unicode="&#x578b;" 
 />
    <glyph glyph-name="cid7688" unicode="&#x5793;" 
 />
    <glyph glyph-name="cid6373" unicode="&#x57a0;" 
 />
    <glyph glyph-name="cid3906" unicode="&#x57a2;" 
 />
    <glyph glyph-name="cid6260" unicode="&#x57a3;" 
 />
    <glyph glyph-name="cid5842" unicode="&#x57c3;" 
 />
    <glyph glyph-name="cid6178" unicode="&#x57c7;" 
 />
    <glyph glyph-name="cid6905" unicode="&#x57c8;" 
 />
    <glyph glyph-name="cid4708" unicode="&#x57cb;" 
 />
    <glyph glyph-name="cid5474" unicode="&#x57ce;" 
 />
    <glyph glyph-name="cid5948" unicode="&#x57df;" 
 />
    <glyph glyph-name="cid5117" unicode="&#x57e0;" 
 />
    <glyph glyph-name="cid7115" unicode="&#x57f0;" 
 />
    <glyph glyph-name="cid5720" unicode="&#x57f4;" 
 />
    <glyph glyph-name="cid7032" unicode="&#x57f7;" 
 />
    <glyph glyph-name="cid4971" unicode="&#x57f9;" 
 />
    <glyph glyph-name="cid4069" unicode="&#x57fa;" 
 />
    <glyph glyph-name="cid4070" unicode="&#x57fc;" 
 />
    <glyph glyph-name="cid3959" unicode="&#x5800;" 
 />
    <glyph glyph-name="cid4240" unicode="&#x5802;" 
 />
    <glyph glyph-name="cid3637" unicode="&#x5805;" 
 />
    <glyph glyph-name="cid7459" unicode="&#x5806;" 
 />
    <glyph glyph-name="cid3537" unicode="&#x5808;" 
 />
    <glyph glyph-name="cid6355" unicode="&#x5809;" 
 />
    <glyph glyph-name="cid5793" unicode="&#x580a;" 
 />
    <glyph glyph-name="cid7187" unicode="&#x581e;" 
 />
    <glyph glyph-name="cid5059" unicode="&#x5821;" 
 />
    <glyph glyph-name="cid6762" unicode="&#x5824;" 
 />
    <glyph glyph-name="cid5957" unicode="&#x5827;" 
 />
    <glyph glyph-name="cid3512" unicode="&#x582a;" 
 />
    <glyph glyph-name="cid6142" unicode="&#x582f;" 
 />
    <glyph glyph-name="cid5918" unicode="&#x5830;" 
 />
    <glyph glyph-name="cid5060" unicode="&#x5831;" 
 />
    <glyph glyph-name="cid6537" unicode="&#x5834;" 
 />
    <glyph glyph-name="cid4273" unicode="&#x5835;" 
 />
    <glyph glyph-name="cid3707" unicode="&#x583a;" 
 />
    <glyph glyph-name="cid3857" unicode="&#x584a;" 
 />
    <glyph glyph-name="cid6002" unicode="&#x584b;" 
 />
    <glyph glyph-name="cid3564" unicode="&#x584f;" 
 />
    <glyph glyph-name="cid5502" unicode="&#x5851;" 
 />
    <glyph glyph-name="cid7424" unicode="&#x5854;" 
 />
    <glyph glyph-name="cid4274" unicode="&#x5857;" 
 />
    <glyph glyph-name="cid4241" unicode="&#x5858;" 
 />
    <glyph glyph-name="cid7252" unicode="&#x585a;" 
 />
    <glyph glyph-name="cid5362" unicode="&#x585e;" 
 />
    <glyph glyph-name="cid5362" unicode="&#xf96c;" 
 />
    <glyph glyph-name="cid6650" unicode="&#x5861;" 
 />
    <glyph glyph-name="cid6057" unicode="&#x5862;" 
 />
    <glyph glyph-name="cid7981" unicode="&#x5864;" 
 />
    <glyph glyph-name="cid6982" unicode="&#x5875;" 
 />
    <glyph glyph-name="cid7084" unicode="&#x5879;" 
 />
    <glyph glyph-name="cid6651" unicode="&#x587c;" 
 />
    <glyph glyph-name="cid5629" unicode="&#x587e;" 
 />
    <glyph glyph-name="cid3669" unicode="&#x5883;" 
 />
    <glyph glyph-name="cid5373" unicode="&#x5885;" 
 />
    <glyph glyph-name="cid6179" unicode="&#x5889;" 
 />
    <glyph glyph-name="cid4801" unicode="&#x5893;" 
 />
    <glyph glyph-name="cid7265" unicode="&#x589c;" 
 />
    <glyph glyph-name="cid6931" unicode="&#x589e;" 
 />
    <glyph glyph-name="cid7720" unicode="&#x589f;" 
 />
    <glyph glyph-name="cid4834" unicode="&#x58a8;" 
 />
    <glyph glyph-name="cid4319" unicode="&#x58a9;" 
 />
    <glyph glyph-name="cid7383" unicode="&#x58ae;" 
 />
    <glyph glyph-name="cid5155" unicode="&#x58b3;" 
 />
    <glyph glyph-name="cid6058" unicode="&#x58ba;" 
 />
    <glyph glyph-name="cid6538" unicode="&#x58bb;" 
 />
    <glyph glyph-name="cid3478" unicode="&#x58be;" 
 />
    <glyph glyph-name="cid5022" unicode="&#x58c1;" 
 />
    <glyph glyph-name="cid6090" unicode="&#x58c5;" 
 />
    <glyph glyph-name="cid4197" unicode="&#x58c7;" 
 />
    <glyph glyph-name="cid7982" unicode="&#x58ce;" 
 />
    <glyph glyph-name="cid7630" unicode="&#x58d1;" 
 />
    <glyph glyph-name="cid5829" unicode="&#x58d3;" 
 />
    <glyph glyph-name="cid7803" unicode="&#x58d5;" 
 />
    <glyph glyph-name="cid4564" unicode="&#x58d8;" 
 />
    <glyph glyph-name="cid4564" unicode="&#xf94a;" 
 />
    <glyph glyph-name="cid3842" unicode="&#x58d9;" 
 />
    <glyph glyph-name="cid3858" unicode="&#x58de;" 
 />
    <glyph glyph-name="cid4536" unicode="&#x58df;" 
 />
    <glyph glyph-name="cid4536" unicode="&#xf942;" 
 />
    <glyph glyph-name="cid5880" unicode="&#x58e4;" 
 />
    <glyph glyph-name="cid6470" unicode="&#x58ec;" 
 />
    <glyph glyph-name="cid6539" unicode="&#x58ef;" 
 />
    <glyph glyph-name="cid6463" unicode="&#x58f9;" 
 />
    <glyph glyph-name="cid7804" unicode="&#x58fa;" 
 />
    <glyph glyph-name="cid5374" unicode="&#x58fb;" 
 />
    <glyph glyph-name="cid5572" unicode="&#x58fd;" 
 />
    <glyph glyph-name="cid7619" unicode="&#x590f;" 
 />
    <glyph glyph-name="cid4071" unicode="&#x5914;" 
 />
    <glyph glyph-name="cid6135" unicode="&#x5916;" 
 />
    <glyph glyph-name="cid5630" unicode="&#x5919;" 
 />
    <glyph glyph-name="cid4190" unicode="&#x591a;" 
 />
    <glyph glyph-name="cid5865" unicode="&#x591c;" 
 />
    <glyph glyph-name="cid4797" unicode="&#x5922;" 
 />
    <glyph glyph-name="cid7151" unicode="&#x5929;" 
 />
    <glyph glyph-name="cid7433" unicode="&#x592a;" 
 />
    <glyph glyph-name="cid5118" unicode="&#x592b;" 
 />
    <glyph glyph-name="cid6143" unicode="&#x592d;" 
 />
    <glyph glyph-name="cid5834" unicode="&#x592e;" 
 />
    <glyph glyph-name="cid5758" unicode="&#x5931;" 
 />
    <glyph glyph-name="cid6416" unicode="&#x5937;" 
 />
    <glyph glyph-name="cid7761" unicode="&#x593e;" 
 />
    <glyph glyph-name="cid5928" unicode="&#x5944;" 
 />
    <glyph glyph-name="cid4072" unicode="&#x5947;" 
 />
    <glyph glyph-name="cid4156" unicode="&#x5948;" 
 />
    <glyph glyph-name="cid4156" unicode="&#xf90c;" 
 />
    <glyph glyph-name="cid5094" unicode="&#x5949;" 
 />
    <glyph glyph-name="cid3996" unicode="&#x594e;" 
 />
    <glyph glyph-name="cid6869" unicode="&#x594f;" 
 />
    <glyph glyph-name="cid7884" unicode="&#x5950;" 
 />
    <glyph glyph-name="cid3708" unicode="&#x5951;" 
 />
    <glyph glyph-name="cid3708" unicode="&#xf909;" 
 />
    <glyph glyph-name="cid5156" unicode="&#x5954;" 
 />
    <glyph glyph-name="cid7730" unicode="&#x5955;" 
 />
    <glyph glyph-name="cid7466" unicode="&#x5957;" 
 />
    <glyph glyph-name="cid7689" unicode="&#x595a;" 
 />
    <glyph glyph-name="cid6652" unicode="&#x5960;" 
 />
    <glyph glyph-name="cid5256" unicode="&#x5962;" 
 />
    <glyph glyph-name="cid6059" unicode="&#x5967;" 
 />
    <glyph glyph-name="cid7418" unicode="&#x596a;" 
 />
    <glyph glyph-name="cid6360" unicode="&#x596b;" 
 />
    <glyph glyph-name="cid6540" unicode="&#x596c;" 
 />
    <glyph glyph-name="cid5404" unicode="&#x596d;" 
 />
    <glyph glyph-name="cid5157" unicode="&#x596e;" 
 />
    <glyph glyph-name="cid4170" unicode="&#x5974;" 
 />
    <glyph glyph-name="cid3479" unicode="&#x5978;" 
 />
    <glyph glyph-name="cid7805" unicode="&#x597d;" 
 />
    <glyph glyph-name="cid5936" unicode="&#x5982;" 
 />
    <glyph glyph-name="cid5186" unicode="&#x5983;" 
 />
    <glyph glyph-name="cid4697" unicode="&#x5984;" 
 />
    <glyph glyph-name="cid6471" unicode="&#x598a;" 
 />
    <glyph glyph-name="cid4073" unicode="&#x5993;" 
 />
    <glyph glyph-name="cid6144" unicode="&#x5996;" 
 />
    <glyph glyph-name="cid4039" unicode="&#x5997;" 
 />
    <glyph glyph-name="cid4802" unicode="&#x5999;" 
 />
    <glyph glyph-name="cid7384" unicode="&#x59a5;" 
 />
    <glyph glyph-name="cid4944" unicode="&#x59a8;" 
 />
    <glyph glyph-name="cid7467" unicode="&#x59ac;" 
 />
    <glyph glyph-name="cid4709" unicode="&#x59b9;" 
 />
    <glyph glyph-name="cid7131" unicode="&#x59bb;" 
 />
    <glyph glyph-name="cid7188" unicode="&#x59be;" 
 />
    <glyph glyph-name="cid6710" unicode="&#x59c3;" 
 />
    <glyph glyph-name="cid4767" unicode="&#x59c6;" 
 />
    </font>
</defs>
</svg>
